<?xml version="1.0" encoding="UTF-8" standalone="no"?>
<svg xmlns="http://www.w3.org/2000/svg"
     xmlns:svg="http://www.w3.org/2000/svg"
     version="1.1"
     width="0.5in" height="0.5in"
     viewBox="0 0 150 150">
  <path id="Imported Path"
        fill="none" stroke="black" stroke-width="1"
        d="M 72.00,60.00
           C 72.00,60.00 82.00,72.00 82.00,72.00
             82.00,72.00 68.00,78.00 68.00,78.00
             68.00,78.00 78.00,90.00 78.00,90.00M 23.00,75.00
           C 23.00,76.66 21.66,78.00 20.00,78.00
             18.34,78.00 17.00,76.66 17.00,75.00
             17.00,73.34 18.34,72.00 20.00,72.00
             21.66,72.00 23.00,73.34 23.00,75.00 Z
           M 133.00,75.00
           C 133.00,76.66 131.66,78.00 130.00,78.00
             128.34,78.00 127.00,76.66 127.00,75.00
             127.00,73.34 128.34,72.00 130.00,72.00
             131.66,72.00 133.00,73.34 133.00,75.00 Z
           M 20.00,75.00
           C 20.00,38.33 38.33,20.00 75.00,20.00M 75.00,130.00
           C 38.33,130.00 20.00,111.67 20.00,75.00M 130.00,75.00
           C 130.00,111.67 111.67,130.00 75.00,130.00M 75.00,20.00
           C 111.67,20.00 130.00,38.33 130.00,75.00M 75.00,30.00
           C 75.00,30.00 115.00,55.00 115.00,55.00
             115.00,55.00 115.00,95.00 115.00,95.00
             115.00,95.00 75.00,120.00 75.00,120.00
             75.00,120.00 35.00,95.00 35.00,95.00
             35.00,95.00 35.00,55.00 35.00,55.00
             35.00,55.00 75.00,30.00 75.00,30.00 Z
           M 75.00,40.00
           C 75.00,40.00 105.00,60.00 105.00,60.00
             105.00,60.00 105.00,90.00 105.00,90.00
             105.00,90.00 75.00,110.00 75.00,110.00
             75.00,110.00 45.00,90.00 45.00,90.00
             45.00,90.00 45.00,60.00 45.00,60.00
             45.00,60.00 75.00,40.00 75.00,40.00 Z
           M 85.00,75.00
           C 85.00,80.52 80.52,85.00 75.00,85.00
             69.48,85.00 65.00,80.52 65.00,75.00
             65.00,69.48 69.48,65.00 75.00,65.00
             80.52,65.00 85.00,69.48 85.00,75.00 Z
           M 105.00,125.00
           C 105.00,125.00 105.00,135.00 105.00,135.00
             105.00,135.00 95.00,135.00 95.00,135.00
             95.00,135.00 95.00,125.00 95.00,125.00
             95.00,125.00 105.00,125.00 105.00,125.00 Z
           M 55.00,15.00
           C 55.00,15.00 55.00,25.00 55.00,25.00
             55.00,25.00 45.00,25.00 45.00,25.00
             45.00,25.00 45.00,15.00 45.00,15.00
             45.00,15.00 55.00,15.00 55.00,15.00 Z
           M 20.00,50.00
           C 20.00,50.00 50.00,20.00 50.00,20.00
             50.00,20.00 100.00,20.00 100.00,20.00
             100.00,20.00 130.00,50.00 130.00,50.00
             130.00,50.00 130.00,100.00 130.00,100.00
             130.00,100.00 100.00,130.00 100.00,130.00
             100.00,130.00 50.00,130.00 50.00,130.00
             50.00,130.00 20.00,100.00 20.00,100.00
             20.00,100.00 20.00,50.00 20.00,50.00 Z" />
</svg>
