<svg xmlns="http://www.w3.org/2000/svg" viewBox="0 0 150 150" width="150" height="150">
  <g fill="none" stroke-linecap="round" stroke-linejoin="round">
    <g stroke="#0055aa" stroke-width="1">
        <polygon points="20,50 50,20 100,20 130,50 130,100 100,130 50,130 20,100" stroke-dasharray="5 2"/>
        <rect x="45" y="15" width="10" height="10" stroke="#00aaff" stroke-width="2"/>
        <rect x="95" y="125" width="10" height="10" stroke="#00aaff" stroke-width="2"/>
    </g>

    <g stroke="#00ffff">
        <circle cx="75" cy="75" r="10" stroke-width="3" />
        <polyline points="75,65 75,85 M 65,75 85,75" stroke-width="1"/> <g stroke-width="2">
             <polygon points="75,40 105,60 105,90 75,110 45,90 45,60" />
             <polygon points="75,30 115,55 115,95 75,120 35,95 35,55" stroke-dasharray="10 5" stroke-width="1"/>
        </g>

        <g stroke="#0088ff" stroke-width="1.5" stroke-dasharray="2 4 8 4">
            <path d="M 75,20 Q 130,20 130,75" />
            <path d="M 130,75 Q 130,130 75,130" />
            <path d="M 75,130 Q 20,130 20,75" />
            <path d="M 20,75 Q 20,20 75,20" />
            <circle cx="130" cy="75" r="3" fill="#00ffff"/>
            <circle cx="20" cy="75" r="3" fill="#00ffff"/>
        </g>
        <polyline points="72,60 82,72 68,78 78,90" stroke="#ffffff" stroke-width="2"/>
    </g>
  </g>
</svg>