<?xml version="1.0" encoding="UTF-8" standalone="no"?>
<svg xmlns="http://www.w3.org/2000/svg"
     xmlns:svg="http://www.w3.org/2000/svg"
     version="1.1"
     width="14.3889in" height="7.41667in"
     viewBox="0 0 1036 534">
  <path id="Selection #2"
        fill="none" stroke="black" stroke-width="1"
        d="M 616.00,155.00
           C 616.00,155.00 642.00,155.00 642.00,155.00
             642.00,155.00 642.00,162.00 642.00,162.00
             642.00,162.00 655.00,162.00 655.00,162.00
             655.00,162.00 655.00,180.00 655.00,180.00
             655.00,180.00 650.00,180.00 650.00,180.00
             650.00,180.00 650.00,230.00 650.00,230.00
             650.00,230.00 655.00,230.00 655.00,230.00
             655.00,230.00 655.00,234.00 655.00,234.00
             655.00,234.00 650.00,234.00 650.00,234.00
             650.00,234.00 650.00,281.00 650.00,281.00
             650.00,281.00 655.00,281.00 655.00,281.00
             655.00,281.00 655.00,285.00 655.00,285.00
             655.00,285.00 650.00,285.00 650.00,285.00
             650.00,285.00 650.00,327.00 650.00,327.00
             650.00,327.00 657.00,327.00 657.00,327.00
             657.00,327.00 657.00,407.00 657.00,407.00
             657.00,407.00 667.00,407.00 667.00,407.00
             667.00,398.47 666.08,374.77 668.00,368.12
             668.00,368.12 672.30,368.12 672.30,368.12
             677.01,368.53 676.92,370.96 677.00,375.00
             677.00,375.00 677.00,407.00 677.00,407.00
             677.00,407.00 687.00,407.00 687.00,407.00
             687.00,407.00 687.00,356.00 687.00,356.00
             687.06,347.87 688.27,348.02 696.00,348.00
             696.00,348.00 727.00,348.00 727.00,348.00
             727.00,348.00 727.00,407.00 727.00,407.00
             727.00,407.00 738.00,407.00 738.00,407.00
             738.00,407.00 738.00,343.00 738.00,343.00
             738.00,343.00 733.00,343.00 733.00,343.00
             733.00,343.00 733.00,337.00 733.00,337.00
             733.00,337.00 738.00,337.00 738.00,337.00
             738.00,337.00 738.00,256.00 738.00,256.00
             738.00,256.00 734.00,256.00 734.00,256.00
             734.00,256.00 734.00,228.00 734.00,228.00
             734.00,228.00 746.00,228.00 746.00,228.00
             746.00,228.00 746.00,217.00 746.00,217.00
             746.00,217.00 772.00,217.00 772.00,217.00
             772.00,217.00 772.00,228.00 772.00,228.00
             772.00,228.00 786.00,228.00 786.00,228.00
             786.00,228.00 786.00,257.00 786.00,257.00
             786.00,257.00 781.00,257.00 781.00,257.00
             781.00,257.00 781.00,260.00 781.00,260.00
             781.00,260.00 812.00,260.00 812.00,260.00
             814.50,260.00 818.30,259.64 820.15,261.60
             821.99,263.56 821.97,267.46 822.00,270.00
             822.19,285.72 824.57,293.60 813.00,294.00
             813.00,294.00 813.00,329.00 813.00,329.00
             813.00,329.00 814.00,346.00 814.00,346.00
             814.00,346.00 814.00,389.00 814.00,389.00
             814.00,389.00 811.00,389.00 811.00,389.00
             811.00,389.00 811.00,362.00 811.00,362.00
             811.00,362.00 808.00,362.00 808.00,362.00
             808.00,362.00 808.00,390.00 808.00,390.00
             808.00,390.00 808.66,401.00 808.66,401.00
             808.66,401.00 808.02,408.00 808.02,408.00
             808.02,408.00 808.02,423.00 808.02,423.00
             808.02,423.00 808.82,433.00 808.82,433.00
             808.82,433.00 808.00,444.00 808.00,444.00
             808.00,444.00 808.00,487.00 808.00,487.00
             808.00,487.00 812.00,487.00 812.00,487.00
             812.00,487.00 812.00,433.00 812.00,433.00
             812.00,433.00 814.04,433.00 814.04,433.00
             814.04,433.00 814.04,449.00 814.04,449.00
             814.04,449.00 815.00,461.00 815.00,461.00
             815.00,461.00 815.00,487.00 815.00,487.00
             815.00,487.00 826.00,487.00 826.00,487.00
             826.00,487.00 826.00,460.00 826.00,460.00
             826.00,460.00 825.10,448.00 825.10,448.00
             824.91,443.64 826.79,437.12 825.69,433.06
             824.29,427.96 820.03,429.88 817.74,428.01
             815.62,426.27 816.00,421.52 816.00,419.00
             816.00,419.00 816.00,327.00 816.00,327.00
             816.00,327.00 835.00,327.00 835.00,327.00
             835.00,327.00 835.00,264.00 835.00,264.00
             835.00,264.00 835.96,252.00 835.96,252.00
             835.96,252.00 835.96,236.00 835.96,236.00
             835.96,236.00 830.00,236.00 830.00,236.00
             830.00,236.00 830.00,220.00 830.00,220.00
             830.00,220.00 859.00,220.00 859.00,220.00
             859.00,220.00 859.00,236.00 859.00,236.00
             859.00,236.00 851.00,236.00 851.00,236.00
             851.00,236.00 851.00,292.00 851.00,292.00
             851.00,292.00 852.34,300.12 852.34,300.12
             852.34,300.12 851.03,307.01 851.03,307.01
             851.03,307.01 851.03,327.00 851.03,327.00
             851.03,327.00 856.00,327.00 856.00,327.00
             856.00,327.00 856.00,372.00 856.00,372.00
             856.00,372.00 885.00,372.00 885.00,372.00
             885.00,372.00 885.00,339.00 885.00,339.00
             885.01,336.46 884.68,332.52 886.60,330.60
             888.71,328.49 894.14,329.00 897.00,329.00
             897.00,329.00 897.00,242.00 897.00,242.00
             897.00,242.00 918.00,242.00 918.00,242.00
             918.00,242.00 923.98,243.60 923.98,243.60
             923.98,243.60 925.00,251.00 925.00,251.00
             925.00,251.00 925.00,354.00 925.00,354.00
             925.00,354.00 932.00,354.00 932.00,354.00
             932.00,354.00 932.00,276.00 932.00,276.00
             932.00,276.00 946.00,276.00 946.00,276.00
             946.00,276.00 946.00,345.00 946.00,345.00
             946.02,356.09 947.98,350.89 948.00,362.00
             948.02,372.85 946.98,374.98 958.00,375.00
             958.00,375.00 976.00,375.00 976.00,375.00
             986.78,374.94 983.93,372.29 990.04,371.11
             990.04,371.11 1007.00,371.11 1007.00,371.11
             1007.00,371.11 1007.00,394.00 1007.00,394.00
             1007.00,394.00 1010.00,394.00 1010.00,394.00
             1010.00,394.00 1010.00,371.00 1010.00,371.00
             1010.00,371.00 1031.00,371.00 1031.00,371.00
             1031.00,371.00 1031.00,391.00 1031.00,391.00
             1031.00,391.00 1027.00,425.00 1027.00,425.00
             1027.00,425.00 1035.00,425.00 1035.00,425.00
             1035.00,425.00 1036.00,416.00 1036.00,416.00
             1036.00,416.00 1036.00,429.00 1036.00,429.00
             1036.00,429.00 1033.00,429.00 1033.00,429.00
             1033.00,429.00 1033.00,445.00 1033.00,445.00
             1033.00,445.00 1036.00,445.00 1036.00,445.00
             1036.00,445.00 1036.00,449.00 1036.00,449.00
             1036.00,449.00 1032.00,449.00 1032.00,449.00
             1032.00,449.00 1032.00,487.00 1032.00,487.00
             1032.00,487.00 1036.00,487.00 1036.00,487.00
             1036.00,487.00 1036.00,534.00 1036.00,534.00
             1036.00,534.00 0.00,534.00 0.00,534.00
             0.00,534.00 0.00,488.00 0.00,488.00
             0.00,488.00 3.00,488.00 3.00,488.00
             3.00,488.00 3.00,453.00 3.00,453.00
             3.00,453.00 13.00,453.00 13.00,453.00
             13.00,453.00 13.00,449.00 13.00,449.00
             13.00,449.00 0.00,449.00 0.00,449.00
             0.00,449.00 0.00,445.00 0.00,445.00
             0.00,445.00 14.00,445.00 14.00,445.00
             14.00,445.00 14.00,429.00 14.00,429.00
             14.00,429.00 0.00,429.00 0.00,429.00
             0.00,429.00 0.00,425.00 0.00,425.00
             0.00,425.00 19.00,425.00 19.00,425.00
             19.00,425.00 19.00,372.00 19.00,372.00
             19.00,372.00 46.00,372.00 46.00,372.00
             46.00,372.00 46.00,329.00 46.00,329.00
             46.00,329.00 74.00,329.00 74.00,329.00
             74.00,329.00 74.00,354.00 74.00,354.00
             74.00,354.00 108.00,354.00 108.00,354.00
             108.00,345.18 106.17,333.17 113.33,326.76
             120.75,320.12 132.62,322.00 142.00,322.00
             142.00,322.00 196.00,322.00 196.00,322.00
             201.27,322.00 215.78,321.50 220.00,322.80
             222.90,323.69 225.43,325.45 228.00,327.00
             228.00,327.00 228.00,316.00 228.00,316.00
             228.00,316.00 222.00,316.00 222.00,316.00
             222.00,316.00 222.00,309.00 222.00,309.00
             222.00,309.00 315.00,309.00 315.00,309.00
             315.00,309.00 315.00,316.00 315.00,316.00
             315.00,316.00 310.00,316.00 310.00,316.00
             310.00,316.00 310.00,384.00 310.00,384.00
             310.00,384.00 349.00,384.00 349.00,384.00
             349.00,384.00 349.00,302.00 349.00,302.00
             349.02,290.83 353.64,280.33 365.58,277.53
             368.07,276.94 372.36,277.00 375.00,277.00
             375.00,277.00 464.00,277.00 464.00,277.00
             481.64,277.03 489.92,285.37 490.00,303.00
             490.00,303.00 490.00,314.00 490.00,314.00
             490.17,323.23 494.68,324.96 503.00,325.00
             503.00,325.00 552.00,325.00 552.00,325.00
             562.35,325.05 571.16,327.67 575.64,338.00
             577.77,342.94 576.66,349.83 581.22,353.26
             584.74,355.90 596.31,355.00 601.00,355.00
             601.00,355.00 601.00,327.00 601.00,327.00
             601.00,327.00 608.00,327.00 608.00,327.00
             608.00,327.00 608.00,285.00 608.00,285.00
             608.00,285.00 603.00,285.00 603.00,285.00
             603.00,285.00 603.00,281.00 603.00,281.00
             603.00,281.00 608.00,281.00 608.00,281.00
             608.00,281.00 608.00,234.00 608.00,234.00
             608.00,234.00 603.00,234.00 603.00,234.00
             603.00,234.00 603.00,230.00 603.00,230.00
             603.00,230.00 608.00,230.00 608.00,230.00
             608.00,230.00 608.00,180.00 608.00,180.00
             608.00,180.00 603.00,180.00 603.00,180.00
             603.00,180.00 603.00,162.00 603.00,162.00
             603.00,162.00 616.00,162.00 616.00,162.00
             616.00,162.00 616.00,155.00 616.00,155.00 Z
           M 858.00,221.00
           C 858.00,221.00 832.00,221.00 832.00,221.00
             832.00,221.00 832.00,227.00 832.00,227.00
             832.00,227.00 841.00,227.00 841.00,227.00
             842.81,221.34 846.19,221.34 848.00,227.00
             848.00,227.00 858.00,227.00 858.00,227.00
             858.00,227.00 858.00,221.00 858.00,221.00 Z
           M 836.00,228.00
           C 836.00,228.00 832.00,228.00 832.00,228.00
             832.00,228.00 832.00,234.00 832.00,234.00
             832.00,234.00 839.00,234.00 839.00,234.00
             839.00,234.00 836.00,228.00 836.00,228.00 Z
           M 858.00,228.00
           C 858.00,228.00 853.00,228.00 853.00,228.00
             853.00,228.00 851.00,234.00 851.00,234.00
             851.00,234.00 858.00,234.00 858.00,234.00
             858.00,234.00 858.00,228.00 858.00,228.00 Z
           M 839.00,236.00
           C 839.00,236.00 837.00,236.00 837.00,236.00
             837.00,236.00 837.00,265.00 837.00,265.00
             837.00,265.00 839.00,265.00 839.00,265.00
             839.00,265.00 839.00,236.00 839.00,236.00 Z
           M 819.00,262.00
           C 819.00,262.00 781.00,262.00 781.00,262.00
             781.00,262.00 781.00,275.00 781.00,275.00
             781.00,275.00 794.00,275.00 794.00,275.00
             794.00,275.00 794.00,265.00 794.00,265.00
             794.00,265.00 804.00,265.00 804.00,265.00
             804.00,265.00 804.00,275.00 804.00,275.00
             804.00,275.00 819.00,275.00 819.00,275.00
             819.00,275.00 819.00,262.00 819.00,262.00 Z
           M 839.00,268.00
           C 839.00,268.00 837.00,268.00 837.00,268.00
             837.00,268.00 837.00,298.00 837.00,298.00
             837.00,298.00 839.00,298.00 839.00,298.00
             839.00,298.00 839.00,268.00 839.00,268.00 Z
           M 786.00,278.00
           C 786.00,278.00 781.00,278.00 781.00,278.00
             781.00,278.00 781.00,291.00 781.00,291.00
             781.00,291.00 790.00,291.00 790.00,291.00
             790.00,291.00 786.00,278.00 786.00,278.00 Z
           M 819.00,278.00
           C 819.00,278.00 812.00,278.00 812.00,278.00
             811.84,282.45 812.07,283.71 808.00,286.00
             808.00,286.00 808.00,356.00 808.00,356.00
             808.00,356.00 811.00,356.00 811.00,356.00
             811.00,356.00 811.00,291.00 811.00,291.00
             819.93,290.88 819.00,289.71 819.00,278.00 Z
           M 602.00,369.00
           C 591.18,369.00 578.78,370.77 570.18,362.67
             567.30,359.96 564.90,355.80 563.79,352.00
             562.69,348.26 563.24,344.27 559.77,341.60
             557.33,339.71 553.92,340.01 551.00,340.00
             551.00,340.00 532.00,340.00 532.00,340.00
             532.00,340.00 518.00,339.00 518.00,339.00
             506.93,338.88 496.30,342.48 486.00,336.01
             478.33,331.19 475.04,321.64 475.00,313.00
             474.98,307.84 476.55,295.09 471.77,292.17
             469.50,290.78 465.63,291.00 463.00,291.00
             463.00,291.00 388.00,291.00 388.00,291.00
             381.94,291.00 368.36,289.18 365.02,295.11
             363.81,297.27 364.00,300.56 364.00,303.00
             364.00,303.00 364.00,347.00 364.00,347.00
             364.00,347.00 379.00,347.00 379.00,347.00
             384.87,347.01 387.37,347.09 393.00,349.23
             408.22,355.02 417.81,368.77 418.00,385.00
             418.00,385.00 418.00,398.00 418.00,398.00
             418.00,398.00 418.00,425.00 418.00,425.00
             418.00,425.00 427.00,425.00 427.00,425.00
             427.00,425.00 427.00,473.00 427.00,473.00
             427.00,473.00 433.00,473.00 433.00,473.00
             433.00,473.00 433.00,437.00 433.00,437.00
             433.00,428.96 432.33,420.79 434.67,413.00
             438.78,399.34 452.53,387.45 467.00,387.00
             467.00,379.59 466.22,373.62 473.04,368.65
             478.05,365.00 485.98,366.00 492.00,366.00
             492.00,366.00 535.00,366.00 535.00,366.00
             550.88,366.08 552.00,373.77 552.00,387.00
             567.33,388.38 582.23,400.77 585.48,416.00
             585.48,416.00 586.00,440.00 586.00,440.00
             586.00,440.00 586.00,465.00 586.00,465.00
             586.02,467.13 585.74,470.51 587.60,471.98
             589.52,473.50 598.23,473.00 601.00,473.00
             601.00,473.00 601.00,385.00 601.00,385.00
             601.00,385.00 602.00,369.00 602.00,369.00 Z
           M 790.00,294.00
           C 790.00,294.00 781.00,294.00 781.00,294.00
             781.00,294.00 781.00,337.00 781.00,337.00
             781.00,337.00 785.00,337.00 785.00,337.00
             785.00,337.00 785.00,343.00 785.00,343.00
             785.00,343.00 781.00,343.00 781.00,343.00
             781.00,343.00 781.00,487.00 781.00,487.00
             781.00,487.00 790.00,487.00 790.00,487.00
             790.00,487.00 790.00,435.00 790.00,435.00
             790.00,435.00 786.00,435.00 786.00,435.00
             786.00,435.00 786.00,430.00 786.00,430.00
             786.00,430.00 790.00,430.00 790.00,430.00
             790.00,430.00 790.00,362.00 790.00,362.00
             790.00,362.00 786.00,362.00 786.00,362.00
             786.00,362.00 786.00,357.00 786.00,357.00
             786.00,357.00 790.00,357.00 790.00,357.00
             790.00,357.00 790.00,294.00 790.00,294.00 Z
           M 839.00,302.00
           C 839.00,302.00 836.00,302.00 836.00,302.00
             836.00,302.00 836.00,327.00 836.00,327.00
             836.00,327.00 839.00,327.00 839.00,327.00
             839.00,327.00 839.00,302.00 839.00,302.00 Z
           M 264.00,316.00
           C 264.00,316.00 233.00,316.00 233.00,316.00
             233.00,316.00 233.00,362.00 233.00,362.00
             236.33,362.00 243.09,361.73 246.00,362.65
             255.85,365.77 255.00,375.79 255.00,384.00
             255.00,384.00 264.00,384.00 264.00,384.00
             264.00,384.00 264.00,316.00 264.00,316.00 Z
           M 304.00,316.00
           C 304.00,316.00 272.00,316.00 272.00,316.00
             272.00,316.00 272.00,384.00 272.00,384.00
             272.00,384.00 304.00,384.00 304.00,384.00
             304.00,384.00 304.00,316.00 304.00,316.00 Z
           M 190.00,339.00
           C 190.00,339.00 125.00,339.00 125.00,339.00
             125.00,351.62 126.07,352.98 121.00,365.00
             121.00,365.00 129.00,365.00 129.00,365.00
             129.00,360.04 127.97,351.10 131.57,347.43
             134.33,344.62 138.38,345.01 142.00,345.00
             142.00,345.00 190.00,345.00 190.00,345.00
             190.00,345.00 190.00,339.00 190.00,339.00 Z
           M 215.00,339.00
           C 215.00,339.00 193.00,339.00 193.00,339.00
             193.00,339.00 193.00,345.00 193.00,345.00
             193.00,345.00 215.00,345.00 215.00,345.00
             215.00,345.00 215.00,339.00 215.00,339.00 Z
           M 190.00,347.00
           C 190.00,347.00 139.00,347.00 139.00,347.00
             129.38,347.18 131.00,350.96 131.00,365.00
             131.00,365.00 190.00,365.00 190.00,365.00
             190.00,365.00 190.00,347.00 190.00,347.00 Z
           M 215.00,347.00
           C 215.00,347.00 193.00,347.00 193.00,347.00
             193.00,347.00 193.00,365.00 193.00,365.00
             193.00,365.00 215.00,365.00 215.00,365.00
             215.00,365.00 215.00,347.00 215.00,347.00 Z
           M 407.00,425.00
           C 407.00,425.00 407.00,395.00 407.00,395.00
             407.00,389.68 407.41,381.94 406.07,377.00
             402.88,365.20 392.99,358.06 381.00,358.00
             381.00,358.00 364.00,358.00 364.00,358.00
             364.00,358.00 364.00,384.00 364.00,384.00
             367.92,384.00 374.44,383.69 378.00,384.80
             382.94,386.35 387.80,391.04 389.35,396.00
             390.48,399.61 390.00,419.76 390.00,425.00
             390.00,425.00 407.00,425.00 407.00,425.00 Z
           M 253.00,384.00
           C 253.00,380.71 253.27,373.87 252.35,371.02
             249.60,362.50 240.05,364.00 233.00,364.00
             233.00,364.00 233.00,371.00 233.00,371.00
             233.00,371.00 238.00,371.00 238.00,371.00
             238.00,373.54 237.56,380.55 239.02,382.40
             240.93,384.82 249.92,384.00 253.00,384.00 Z
           M 129.00,367.00
           C 129.00,367.00 103.00,371.00 103.00,371.00
             103.00,371.00 74.00,371.00 74.00,371.00
             74.00,371.00 74.00,374.00 74.00,374.00
             74.00,374.00 129.00,374.00 129.00,374.00
             129.00,374.00 129.00,367.00 129.00,367.00 Z
           M 190.00,367.00
           C 190.00,367.00 131.00,367.00 131.00,367.00
             131.00,367.00 133.00,381.00 133.00,381.00
             133.00,381.00 128.00,381.00 128.00,381.00
             128.00,392.15 127.08,393.72 135.00,394.00
             135.00,394.00 135.00,371.00 135.00,371.00
             135.00,371.00 156.00,371.00 156.00,371.00
             156.00,371.00 156.00,394.00 156.00,394.00
             156.00,394.00 159.00,394.00 159.00,394.00
             159.00,394.00 159.00,371.00 159.00,371.00
             159.00,371.00 180.00,371.00 180.00,371.00
             180.00,371.00 180.00,394.00 180.00,394.00
             180.00,394.00 185.00,394.00 185.00,394.00
             185.00,394.00 185.00,371.00 185.00,371.00
             185.00,371.00 190.00,371.00 190.00,371.00
             190.00,371.00 190.00,367.00 190.00,367.00 Z
           M 215.00,367.00
           C 215.00,367.00 193.00,367.00 193.00,367.00
             193.00,367.00 193.00,371.00 193.00,371.00
             193.00,371.00 215.00,371.00 215.00,371.00
             215.00,371.00 215.00,367.00 215.00,367.00 Z
           M 547.00,387.00
           C 547.00,382.87 547.75,376.57 544.57,373.51
             541.83,370.87 537.53,371.02 534.00,371.00
             534.00,371.00 486.00,371.00 486.00,371.00
             472.48,371.02 472.90,375.14 472.00,387.00
             476.95,387.93 481.47,388.76 486.00,391.13
             503.14,400.13 507.00,416.31 507.00,434.00
             507.00,434.00 513.00,434.00 513.00,434.00
             513.00,428.34 512.59,421.40 513.90,416.00
             518.00,399.12 530.67,390.08 547.00,387.00 Z
           M 215.00,377.00
           C 215.00,377.00 188.00,377.00 188.00,377.00
             188.00,377.00 188.00,394.00 188.00,394.00
             188.00,394.00 217.00,394.00 217.00,394.00
             217.00,394.00 215.00,377.00 215.00,377.00 Z
           M 95.00,381.00
           C 95.00,381.00 92.00,381.00 92.00,381.00
             92.00,381.00 92.00,394.00 92.00,394.00
             92.00,394.00 95.00,394.00 95.00,394.00
             95.00,394.00 95.00,381.00 95.00,381.00 Z
           M 117.00,381.00
           C 117.00,381.00 114.00,381.00 114.00,381.00
             114.00,381.00 114.00,394.00 114.00,394.00
             114.00,394.00 117.00,394.00 117.00,394.00
             117.00,394.00 117.00,381.00 117.00,381.00 Z
           M 968.00,381.00
           C 968.00,381.00 964.00,381.00 964.00,381.00
             964.00,386.14 962.36,392.02 968.00,394.00
             968.00,394.00 968.00,381.00 968.00,381.00 Z
           M 986.00,381.00
           C 986.00,381.00 984.00,381.00 984.00,381.00
             984.00,381.00 984.00,394.00 984.00,394.00
             984.00,394.00 986.00,394.00 986.00,394.00
             986.00,394.00 986.00,381.00 986.00,381.00 Z
           M 140.00,425.00
           C 140.00,425.00 136.75,405.00 136.75,405.00
             136.75,405.00 134.41,398.02 134.41,398.02
             134.41,398.02 128.00,397.00 128.00,397.00
             128.00,397.00 128.00,418.00 128.00,418.00
             128.00,418.00 129.60,423.98 129.60,423.98
             129.60,423.98 140.00,425.00 140.00,425.00 Z
           M 159.00,397.00
           C 159.00,397.00 156.00,397.00 156.00,397.00
             156.00,397.00 152.00,425.00 152.00,425.00
             152.00,425.00 163.00,425.00 163.00,425.00
             163.00,425.00 159.00,397.00 159.00,397.00 Z
           M 185.00,397.00
           C 185.00,397.00 180.00,397.00 180.00,397.00
             180.00,397.00 176.00,425.00 176.00,425.00
             176.00,425.00 185.00,425.00 185.00,425.00
             185.00,425.00 185.00,397.00 185.00,397.00 Z
           M 222.00,425.00
           C 222.00,425.00 218.92,406.00 218.92,406.00
             218.92,406.00 216.27,397.99 216.27,397.99
             216.27,397.99 211.00,397.00 211.00,397.00
             211.00,397.00 188.00,397.00 188.00,397.00
             188.00,397.00 188.00,425.00 188.00,425.00
             188.00,425.00 222.00,425.00 222.00,425.00 Z
           M 986.00,397.00
           C 986.00,397.00 979.00,397.00 979.00,397.00
             979.00,397.00 979.00,425.00 979.00,425.00
             979.00,425.00 991.00,425.00 991.00,425.00
             991.00,425.00 986.00,397.00 986.00,397.00 Z
           M 1010.00,397.00
           C 1010.00,397.00 1007.00,397.00 1007.00,397.00
             1007.00,397.00 1003.00,425.00 1003.00,425.00
             1003.00,425.00 1014.00,425.00 1014.00,425.00
             1014.00,425.00 1010.00,397.00 1010.00,397.00 Z
           M 95.00,401.00
           C 95.00,401.00 92.00,401.00 92.00,401.00
             92.00,401.00 92.00,417.00 92.00,417.00
             92.00,417.00 95.00,417.00 95.00,417.00
             95.00,417.00 95.00,401.00 95.00,401.00 Z
           M 117.00,401.00
           C 117.00,401.00 114.00,401.00 114.00,401.00
             114.00,401.00 114.00,417.00 114.00,417.00
             114.00,417.00 117.00,417.00 117.00,417.00
             117.00,417.00 117.00,401.00 117.00,401.00 Z
           M 263.00,401.00
           C 263.00,401.00 244.00,401.00 244.00,401.00
             244.00,401.00 244.00,425.00 244.00,425.00
             244.00,425.00 263.00,425.00 263.00,425.00
             263.00,425.00 263.00,401.00 263.00,401.00 Z
           M 291.00,401.00
           C 291.00,401.00 270.00,401.00 270.00,401.00
             270.00,401.00 270.00,425.00 270.00,425.00
             270.00,425.00 291.00,425.00 291.00,425.00
             291.00,425.00 291.00,401.00 291.00,401.00 Z
           M 374.00,401.00
           C 374.00,401.00 303.00,401.00 303.00,401.00
             303.00,401.00 303.00,425.00 303.00,425.00
             303.00,425.00 374.00,425.00 374.00,425.00
             374.00,425.00 374.00,401.00 374.00,401.00 Z
           M 968.00,401.00
           C 968.00,401.00 964.00,401.00 964.00,401.00
             964.00,401.00 965.02,415.41 965.02,415.41
             965.02,415.41 968.00,417.00 968.00,417.00
             968.00,417.00 968.00,401.00 968.00,401.00 Z
           M 238.00,403.00
           C 238.00,403.00 235.00,425.00 235.00,425.00
             235.00,425.00 238.00,425.00 238.00,425.00
             238.00,425.00 238.00,403.00 238.00,403.00 Z
           M 667.00,416.00
           C 667.00,416.00 657.00,416.00 657.00,416.00
             657.00,416.00 657.00,429.00 657.00,429.00
             657.00,429.00 667.00,429.00 667.00,429.00
             667.00,429.00 667.00,416.00 667.00,416.00 Z
           M 687.00,416.00
           C 687.00,416.00 677.00,416.00 677.00,416.00
             677.00,416.00 677.00,429.00 677.00,429.00
             677.00,429.00 687.00,429.00 687.00,429.00
             687.00,429.00 687.00,416.00 687.00,416.00 Z
           M 738.00,416.00
           C 738.00,416.00 727.00,416.00 727.00,416.00
             727.00,416.00 727.00,429.00 727.00,429.00
             727.00,429.00 738.00,429.00 738.00,429.00
             738.00,429.00 738.00,416.00 738.00,416.00 Z
           M 25.00,429.00
           C 25.00,429.00 16.00,429.00 16.00,429.00
             16.00,429.00 16.00,445.00 16.00,445.00
             16.00,445.00 25.00,445.00 25.00,445.00
             25.00,445.00 25.00,429.00 25.00,429.00 Z
           M 37.00,429.00
           C 37.00,429.00 27.00,429.00 27.00,429.00
             27.00,429.00 27.00,445.00 27.00,445.00
             27.00,445.00 37.00,445.00 37.00,445.00
             37.00,445.00 37.00,429.00 37.00,429.00 Z
           M 48.00,429.00
           C 48.00,429.00 39.00,429.00 39.00,429.00
             39.00,429.00 39.00,445.00 39.00,445.00
             39.00,445.00 48.00,445.00 48.00,445.00
             48.00,445.00 48.00,429.00 48.00,429.00 Z
           M 70.00,429.00
           C 70.00,429.00 50.00,429.00 50.00,429.00
             50.00,429.00 50.00,445.00 50.00,445.00
             50.00,445.00 70.00,445.00 70.00,445.00
             70.00,445.00 70.00,429.00 70.00,429.00 Z
           M 133.00,429.00
           C 133.00,429.00 74.00,429.00 74.00,429.00
             74.00,429.00 74.00,445.00 74.00,445.00
             74.00,445.00 133.00,445.00 133.00,445.00
             133.00,445.00 133.00,429.00 133.00,429.00 Z
           M 144.00,429.00
           C 144.00,429.00 135.00,429.00 135.00,429.00
             135.00,429.00 135.00,445.00 135.00,445.00
             135.00,445.00 144.00,445.00 144.00,445.00
             144.00,445.00 144.00,429.00 144.00,429.00 Z
           M 156.00,429.00
           C 156.00,429.00 146.00,429.00 146.00,429.00
             146.00,429.00 146.00,445.00 146.00,445.00
             146.00,445.00 156.00,445.00 156.00,445.00
             156.00,445.00 156.00,429.00 156.00,429.00 Z
           M 168.00,429.00
           C 168.00,429.00 158.00,429.00 158.00,429.00
             158.00,429.00 158.00,445.00 158.00,445.00
             158.00,445.00 168.00,445.00 168.00,445.00
             168.00,445.00 168.00,429.00 168.00,429.00 Z
           M 178.00,429.00
           C 178.00,429.00 169.00,429.00 169.00,429.00
             169.00,429.00 169.00,445.00 169.00,445.00
             169.00,445.00 178.00,445.00 178.00,445.00
             178.00,445.00 178.00,429.00 178.00,429.00 Z
           M 191.00,429.00
           C 191.00,429.00 182.00,429.00 182.00,429.00
             182.00,429.00 182.00,445.00 182.00,445.00
             182.00,445.00 186.00,445.00 186.00,445.00
             186.00,445.00 186.00,434.00 186.00,434.00
             186.00,434.00 191.00,434.00 191.00,434.00
             191.00,434.00 191.00,429.00 191.00,429.00 Z
           M 207.00,429.00
           C 207.00,429.00 194.00,429.00 194.00,429.00
             194.00,429.00 194.00,434.00 194.00,434.00
             194.00,434.00 199.00,434.00 199.00,434.00
             199.00,434.00 199.00,445.00 199.00,445.00
             199.00,445.00 202.00,445.00 202.00,445.00
             202.00,445.00 202.00,434.00 202.00,434.00
             202.00,434.00 207.00,434.00 207.00,434.00
             207.00,434.00 207.00,429.00 207.00,429.00 Z
           M 292.00,429.00
           C 292.00,429.00 210.00,429.00 210.00,429.00
             210.00,429.00 210.00,434.00 210.00,434.00
             210.00,434.00 215.00,434.00 215.00,434.00
             215.00,434.00 215.00,445.00 215.00,445.00
             215.00,445.00 259.00,445.00 259.00,445.00
             259.00,445.00 259.00,435.00 259.00,435.00
             262.50,439.17 262.81,439.60 263.00,445.00
             263.00,445.00 292.00,445.00 292.00,445.00
             292.00,445.00 292.00,429.00 292.00,429.00 Z
           M 308.00,429.00
           C 308.00,429.00 294.00,429.00 294.00,429.00
             294.00,429.00 294.00,445.00 294.00,445.00
             294.00,445.00 308.00,445.00 308.00,445.00
             308.00,445.00 308.00,429.00 308.00,429.00 Z
           M 341.00,429.00
           C 341.00,429.00 310.00,429.00 310.00,429.00
             310.00,429.00 310.00,445.00 310.00,445.00
             310.00,445.00 341.00,445.00 341.00,445.00
             341.00,445.00 341.00,429.00 341.00,429.00 Z
           M 423.00,429.00
           C 423.00,429.00 345.00,429.00 345.00,429.00
             345.00,429.00 345.00,445.00 345.00,445.00
             345.00,445.00 390.00,445.00 390.00,445.00
             390.00,445.00 390.00,434.00 390.00,434.00
             390.00,434.00 403.00,434.00 403.00,434.00
             403.00,434.00 403.00,445.00 403.00,445.00
             403.00,445.00 406.00,445.00 406.00,445.00
             406.00,445.00 406.00,434.00 406.00,434.00
             406.00,434.00 419.00,434.00 419.00,434.00
             419.00,434.00 419.00,445.00 419.00,445.00
             419.00,445.00 423.00,445.00 423.00,445.00
             423.00,445.00 423.00,429.00 423.00,429.00 Z
           M 846.00,429.00
           C 846.00,429.00 831.00,429.00 831.00,429.00
             831.00,429.00 831.00,445.00 831.00,445.00
             831.00,445.00 846.00,445.00 846.00,445.00
             846.00,445.00 846.00,429.00 846.00,429.00 Z
           M 864.00,429.00
           C 864.00,429.00 850.00,429.00 850.00,429.00
             850.00,429.00 850.00,445.00 850.00,445.00
             850.00,445.00 864.00,445.00 864.00,445.00
             864.00,445.00 864.00,429.00 864.00,429.00 Z
           M 876.00,429.00
           C 876.00,429.00 866.00,429.00 866.00,429.00
             866.00,429.00 866.00,445.00 866.00,445.00
             866.00,445.00 876.00,445.00 876.00,445.00
             876.00,445.00 876.00,429.00 876.00,429.00 Z
           M 888.00,429.00
           C 888.00,429.00 878.00,429.00 878.00,429.00
             878.00,429.00 878.00,445.00 878.00,445.00
             878.00,445.00 888.00,445.00 888.00,445.00
             888.00,445.00 888.00,429.00 888.00,429.00 Z
           M 899.00,429.00
           C 899.00,429.00 889.00,429.00 889.00,429.00
             889.00,429.00 889.00,445.00 889.00,445.00
             889.00,445.00 899.00,445.00 899.00,445.00
             899.00,445.00 899.00,429.00 899.00,429.00 Z
           M 921.00,429.00
           C 921.00,429.00 901.00,429.00 901.00,429.00
             901.00,429.00 901.00,445.00 901.00,445.00
             901.00,445.00 921.00,445.00 921.00,445.00
             921.00,445.00 921.00,429.00 921.00,429.00 Z
           M 984.00,445.00
           C 984.00,431.00 985.21,429.16 977.00,429.00
             977.00,429.00 925.00,429.00 925.00,429.00
             925.00,429.00 925.00,445.00 925.00,445.00
             925.00,445.00 984.00,445.00 984.00,445.00 Z
           M 995.00,429.00
           C 992.86,429.00 988.27,428.70 986.60,430.02
             984.15,431.96 985.00,441.82 985.00,445.00
             985.00,445.00 995.00,445.00 995.00,445.00
             995.00,445.00 995.00,429.00 995.00,429.00 Z
           M 1007.00,429.00
           C 1007.00,429.00 997.00,429.00 997.00,429.00
             997.00,429.00 997.00,445.00 997.00,445.00
             997.00,445.00 1007.00,445.00 1007.00,445.00
             1007.00,445.00 1007.00,429.00 1007.00,429.00 Z
           M 1018.00,429.00
           C 1018.00,429.00 1009.00,429.00 1009.00,429.00
             1009.00,429.00 1009.00,445.00 1009.00,445.00
             1009.00,445.00 1018.00,445.00 1018.00,445.00
             1018.00,445.00 1018.00,429.00 1018.00,429.00 Z
           M 1028.00,429.00
           C 1028.00,429.00 1020.00,429.00 1020.00,429.00
             1020.00,429.00 1020.00,445.00 1020.00,445.00
             1020.00,445.00 1028.00,445.00 1028.00,445.00
             1028.00,445.00 1028.00,429.00 1028.00,429.00 Z
           M 513.00,437.00
           C 513.00,437.00 507.00,437.00 507.00,437.00
             507.00,437.00 507.00,452.00 507.00,452.00
             507.00,452.00 513.00,452.00 513.00,452.00
             513.00,452.00 513.00,437.00 513.00,437.00 Z
           M 667.00,439.00
           C 667.00,439.00 657.00,439.00 657.00,439.00
             657.00,439.00 657.00,451.00 657.00,451.00
             657.00,451.00 667.00,451.00 667.00,451.00
             667.00,451.00 667.00,439.00 667.00,439.00 Z
           M 687.00,439.00
           C 687.00,439.00 677.00,439.00 677.00,439.00
             677.00,439.00 677.00,451.00 677.00,451.00
             677.00,451.00 687.00,451.00 687.00,451.00
             687.00,451.00 687.00,439.00 687.00,439.00 Z
           M 738.00,439.00
           C 738.00,439.00 727.00,439.00 727.00,439.00
             727.00,439.00 727.00,451.00 727.00,451.00
             727.00,451.00 738.00,451.00 738.00,451.00
             738.00,451.00 738.00,439.00 738.00,439.00 Z
           M 24.00,449.00
           C 24.00,449.00 16.00,449.00 16.00,449.00
             16.00,449.00 16.00,453.00 16.00,453.00
             16.00,453.00 24.00,453.00 24.00,453.00
             24.00,453.00 24.00,449.00 24.00,449.00 Z
           M 36.00,449.00
           C 36.00,449.00 28.00,449.00 28.00,449.00
             28.00,449.00 28.00,453.00 28.00,453.00
             28.00,453.00 36.00,453.00 36.00,453.00
             36.00,453.00 36.00,449.00 36.00,449.00 Z
           M 47.00,449.00
           C 47.00,449.00 40.00,449.00 40.00,449.00
             40.00,449.00 40.00,453.00 40.00,453.00
             40.00,453.00 47.00,453.00 47.00,453.00
             47.00,453.00 47.00,449.00 47.00,449.00 Z
           M 70.00,449.00
           C 70.00,449.00 51.00,449.00 51.00,449.00
             51.00,449.00 51.00,453.00 51.00,453.00
             51.00,453.00 65.00,453.00 65.00,453.00
             65.00,453.00 65.00,487.00 65.00,487.00
             65.00,487.00 70.00,487.00 70.00,487.00
             70.00,487.00 70.00,449.00 70.00,449.00 Z
           M 133.00,449.00
           C 133.00,449.00 74.00,449.00 74.00,449.00
             74.00,449.00 74.00,487.00 74.00,487.00
             74.00,487.00 78.00,487.00 78.00,487.00
             78.00,487.00 78.00,453.00 78.00,453.00
             78.00,453.00 133.00,453.00 133.00,453.00
             133.00,453.00 133.00,449.00 133.00,449.00 Z
           M 144.00,449.00
           C 144.00,449.00 135.00,449.00 135.00,449.00
             135.00,449.00 135.00,453.00 135.00,453.00
             135.00,453.00 140.00,453.00 140.00,453.00
             140.00,453.00 140.00,465.00 140.00,465.00
             140.00,465.00 144.00,465.00 144.00,465.00
             144.00,465.00 144.00,449.00 144.00,449.00 Z
           M 156.00,449.00
           C 156.00,449.00 146.00,449.00 146.00,449.00
             146.00,449.00 146.00,465.00 146.00,465.00
             146.00,465.00 156.00,465.00 156.00,465.00
             156.00,465.00 156.00,449.00 156.00,449.00 Z
           M 168.00,449.00
           C 168.00,449.00 158.00,449.00 158.00,449.00
             158.00,449.00 158.00,465.00 158.00,465.00
             160.14,465.00 164.73,465.30 166.40,463.98
             168.85,462.04 168.00,452.18 168.00,449.00 Z
           M 178.00,449.00
           C 178.00,449.00 169.00,449.00 169.00,449.00
             169.00,462.27 167.74,464.39 175.00,465.00
             175.00,465.00 175.00,481.00 175.00,481.00
             175.00,481.00 178.00,481.00 178.00,481.00
             178.00,481.00 178.00,449.00 178.00,449.00 Z
           M 186.00,449.00
           C 186.00,449.00 182.00,449.00 182.00,449.00
             182.00,449.00 182.00,481.00 182.00,481.00
             182.00,481.00 186.00,481.00 186.00,481.00
             186.00,481.00 186.00,449.00 186.00,449.00 Z
           M 202.00,449.00
           C 202.00,449.00 199.00,449.00 199.00,449.00
             199.00,449.00 199.00,487.00 199.00,487.00
             199.00,487.00 202.00,487.00 202.00,487.00
             202.00,487.00 202.00,449.00 202.00,449.00 Z
           M 259.00,449.00
           C 259.00,449.00 215.00,449.00 215.00,449.00
             215.00,449.00 215.00,487.00 215.00,487.00
             215.00,487.00 220.00,487.00 220.00,487.00
             220.00,487.00 220.00,453.00 220.00,453.00
             220.00,453.00 259.00,453.00 259.00,453.00
             259.00,453.00 259.00,449.00 259.00,449.00 Z
           M 289.00,449.00
           C 289.00,449.00 263.00,449.00 263.00,449.00
             263.00,449.00 263.00,453.00 263.00,453.00
             263.00,453.00 282.00,453.00 282.00,453.00
             282.00,453.00 282.00,487.00 282.00,487.00
             282.00,487.00 286.00,487.00 286.00,487.00
             286.00,487.00 286.00,453.00 286.00,453.00
             286.00,453.00 289.00,453.00 289.00,453.00
             289.00,453.00 289.00,449.00 289.00,449.00 Z
           M 306.00,449.00
           C 306.00,449.00 296.00,449.00 296.00,449.00
             296.00,449.00 296.00,453.00 296.00,453.00
             296.00,453.00 299.00,453.00 299.00,453.00
             299.00,453.00 299.00,487.00 299.00,487.00
             299.00,487.00 302.00,487.00 302.00,487.00
             302.00,487.00 302.00,453.00 302.00,453.00
             302.00,453.00 306.00,453.00 306.00,453.00
             306.00,453.00 306.00,449.00 306.00,449.00 Z
           M 341.00,449.00
           C 341.00,449.00 312.00,449.00 312.00,449.00
             312.00,449.00 312.00,453.00 312.00,453.00
             312.00,453.00 315.00,453.00 315.00,453.00
             315.00,453.00 315.00,462.00 315.00,462.00
             315.00,462.00 341.00,462.00 341.00,462.00
             341.00,462.00 341.00,449.00 341.00,449.00 Z
           M 390.00,449.00
           C 390.00,449.00 345.00,449.00 345.00,449.00
             345.00,449.00 345.00,462.00 345.00,462.00
             345.00,462.00 349.00,462.00 349.00,462.00
             349.00,462.00 349.00,453.00 349.00,453.00
             349.00,453.00 387.00,453.00 387.00,453.00
             387.00,453.00 387.00,487.00 387.00,487.00
             387.00,487.00 390.00,487.00 390.00,487.00
             390.00,487.00 390.00,449.00 390.00,449.00 Z
           M 846.00,449.00
           C 846.00,449.00 831.00,449.00 831.00,449.00
             831.00,449.00 831.00,487.00 831.00,487.00
             831.00,487.00 846.00,487.00 846.00,487.00
             846.00,487.00 846.00,449.00 846.00,449.00 Z
           M 864.00,449.00
           C 864.00,449.00 850.00,449.00 850.00,449.00
             850.00,449.00 850.00,487.00 850.00,487.00
             850.00,487.00 854.00,487.00 854.00,487.00
             854.00,487.00 854.00,453.00 854.00,453.00
             854.00,453.00 864.00,453.00 864.00,453.00
             864.00,453.00 864.00,449.00 864.00,449.00 Z
           M 876.00,449.00
           C 876.00,449.00 867.00,449.00 867.00,449.00
             867.00,449.00 867.00,453.00 867.00,453.00
             867.00,453.00 876.00,453.00 876.00,453.00
             876.00,453.00 876.00,449.00 876.00,449.00 Z
           M 887.00,449.00
           C 887.00,449.00 879.00,449.00 879.00,449.00
             879.00,449.00 879.00,453.00 879.00,453.00
             879.00,453.00 887.00,453.00 887.00,453.00
             887.00,453.00 887.00,449.00 887.00,449.00 Z
           M 898.00,449.00
           C 898.00,449.00 890.00,449.00 890.00,449.00
             890.00,449.00 890.00,453.00 890.00,453.00
             890.00,453.00 898.00,453.00 898.00,453.00
             898.00,453.00 898.00,449.00 898.00,449.00 Z
           M 921.00,449.00
           C 921.00,449.00 902.00,449.00 902.00,449.00
             902.00,449.00 902.00,453.00 902.00,453.00
             902.00,453.00 916.00,453.00 916.00,453.00
             916.00,453.00 916.00,487.00 916.00,487.00
             916.00,487.00 921.00,487.00 921.00,487.00
             921.00,487.00 921.00,449.00 921.00,449.00 Z
           M 984.00,449.00
           C 984.00,449.00 925.00,449.00 925.00,449.00
             925.00,449.00 925.00,487.00 925.00,487.00
             925.00,487.00 928.00,487.00 928.00,487.00
             928.00,487.00 928.00,463.00 928.00,463.00
             928.01,460.09 927.55,455.86 930.31,454.02
             932.67,452.45 942.73,453.00 946.00,453.00
             946.00,453.00 984.00,453.00 984.00,453.00
             984.00,453.00 984.00,449.00 984.00,449.00 Z
           M 995.00,449.00
           C 995.00,449.00 986.00,449.00 986.00,449.00
             986.00,449.00 986.00,453.00 986.00,453.00
             986.00,453.00 990.00,453.00 990.00,453.00
             990.00,458.78 988.30,463.82 995.00,465.00
             995.00,465.00 995.00,449.00 995.00,449.00 Z
           M 1007.00,449.00
           C 1007.00,449.00 997.00,449.00 997.00,449.00
             997.00,449.00 997.00,465.00 997.00,465.00
             997.00,465.00 1007.00,465.00 1007.00,465.00
             1007.00,465.00 1007.00,449.00 1007.00,449.00 Z
           M 1018.00,449.00
           C 1018.00,449.00 1009.00,449.00 1009.00,449.00
             1009.00,449.00 1009.00,465.00 1009.00,465.00
             1009.00,465.00 1018.00,465.00 1018.00,465.00
             1018.00,465.00 1018.00,449.00 1018.00,449.00 Z
           M 1028.00,449.00
           C 1028.00,449.00 1020.00,449.00 1020.00,449.00
             1020.00,449.00 1020.00,465.00 1020.00,465.00
             1020.00,465.00 1026.00,465.00 1026.00,465.00
             1026.00,465.00 1026.00,487.00 1026.00,487.00
             1026.00,487.00 1028.00,487.00 1028.00,487.00
             1028.00,487.00 1028.00,449.00 1028.00,449.00 Z
           M 406.00,450.00
           C 406.00,450.00 403.00,450.00 403.00,450.00
             403.00,450.00 403.00,487.00 403.00,487.00
             403.00,487.00 406.00,487.00 406.00,487.00
             406.00,487.00 406.00,450.00 406.00,450.00 Z
           M 423.00,450.00
           C 423.00,450.00 419.00,450.00 419.00,450.00
             419.00,450.00 419.00,473.00 419.00,473.00
             419.00,473.00 423.00,473.00 423.00,473.00
             423.00,473.00 423.00,450.00 423.00,450.00 Z
           M 513.00,456.00
           C 513.00,456.00 507.00,456.00 507.00,456.00
             507.00,456.00 507.00,473.00 507.00,473.00
             507.00,473.00 513.00,473.00 513.00,473.00
             513.00,473.00 513.00,456.00 513.00,456.00 Z
           M 667.00,461.00
           C 667.00,461.00 657.00,461.00 657.00,461.00
             657.00,461.00 657.00,474.00 657.00,474.00
             657.00,474.00 667.00,474.00 667.00,474.00
             667.00,474.00 667.00,461.00 667.00,461.00 Z
           M 687.00,461.00
           C 687.00,461.00 677.00,461.00 677.00,461.00
             677.00,461.00 677.00,474.00 677.00,474.00
             677.00,474.00 687.00,474.00 687.00,474.00
             687.00,474.00 687.00,461.00 687.00,461.00 Z
           M 738.00,461.00
           C 738.00,461.00 727.00,461.00 727.00,461.00
             727.00,461.00 727.00,473.00 727.00,473.00
             727.00,473.00 738.00,473.00 738.00,473.00
             738.00,473.00 738.00,461.00 738.00,461.00 Z
           M 341.00,473.00
           C 341.00,473.00 315.00,473.00 315.00,473.00
             315.00,473.00 315.00,475.00 315.00,475.00
             315.00,475.00 341.00,475.00 341.00,475.00
             341.00,475.00 341.00,473.00 341.00,473.00 Z
           M 349.00,473.00
           C 349.00,473.00 345.00,473.00 345.00,473.00
             345.00,473.00 345.00,475.00 345.00,475.00
             345.00,475.00 349.00,475.00 349.00,475.00
             349.00,475.00 349.00,473.00 349.00,473.00 Z
           M 667.00,484.00
           C 667.00,484.00 657.00,484.00 657.00,484.00
             657.00,484.00 657.00,487.00 657.00,487.00
             657.00,487.00 667.00,487.00 667.00,487.00
             667.00,487.00 667.00,484.00 667.00,484.00 Z
           M 687.00,484.00
           C 687.00,484.00 677.00,484.00 677.00,484.00
             677.00,484.00 677.00,487.00 677.00,487.00
             677.00,487.00 687.00,487.00 687.00,487.00
             687.00,487.00 687.00,484.00 687.00,484.00 Z
           M 341.00,485.00
           C 341.00,485.00 315.00,485.00 315.00,485.00
             315.00,485.00 315.00,487.00 315.00,487.00
             315.00,487.00 341.00,487.00 341.00,487.00
             341.00,487.00 341.00,485.00 341.00,485.00 Z" />
</svg>
