<?xml version="1.0" encoding="UTF-8" standalone="no"?>
<svg xmlns="http://www.w3.org/2000/svg"
     xmlns:svg="http://www.w3.org/2000/svg"
     version="1.1"
     width="14.3889in" height="9in"
     viewBox="0 0 1036 648">
  <path id="Selection"
        fill="none" stroke="black" stroke-width="1"
        d="M 0.00,252.00
           C 2.65,254.05 2.02,254.66 0.00,257.00
             0.00,257.00 0.00,252.00 0.00,252.00 Z
           M 616.00,269.00
           C 616.00,269.00 642.00,269.00 642.00,269.00
             642.00,269.00 642.00,276.00 642.00,276.00
             642.00,276.00 655.00,276.00 655.00,276.00
             655.00,276.00 655.00,294.00 655.00,294.00
             655.00,294.00 650.00,294.00 650.00,294.00
             650.00,294.00 650.00,344.00 650.00,344.00
             650.00,344.00 655.00,344.00 655.00,344.00
             655.00,344.00 655.00,348.00 655.00,348.00
             655.00,348.00 650.00,348.00 650.00,348.00
             650.00,348.00 650.00,395.00 650.00,395.00
             650.00,395.00 655.00,395.00 655.00,395.00
             655.00,395.00 655.00,399.00 655.00,399.00
             655.00,399.00 650.00,399.00 650.00,399.00
             650.00,399.00 650.00,441.00 650.00,441.00
             650.00,441.00 657.00,441.00 657.00,441.00
             657.00,441.00 657.00,521.00 657.00,521.00
             657.00,521.00 667.00,521.00 667.00,521.00
             667.00,512.47 666.08,488.77 668.00,482.12
             668.00,482.12 672.30,482.12 672.30,482.12
             677.01,482.53 676.92,484.96 677.00,489.00
             677.00,489.00 677.00,521.00 677.00,521.00
             677.00,521.00 687.00,521.00 687.00,521.00
             687.00,521.00 687.00,470.00 687.00,470.00
             687.06,461.87 688.27,462.02 696.00,462.00
             696.00,462.00 727.00,462.00 727.00,462.00
             727.00,462.00 727.00,521.00 727.00,521.00
             727.00,521.00 738.00,521.00 738.00,521.00
             738.00,521.00 738.00,457.00 738.00,457.00
             738.00,457.00 733.00,457.00 733.00,457.00
             733.00,457.00 733.00,451.00 733.00,451.00
             733.00,451.00 738.00,451.00 738.00,451.00
             738.00,451.00 738.00,370.00 738.00,370.00
             738.00,370.00 733.00,371.00 733.00,371.00
             733.00,371.00 733.96,362.00 733.96,362.00
             733.96,362.00 733.96,342.00 733.96,342.00
             733.96,342.00 746.00,342.00 746.00,342.00
             746.00,342.00 746.00,331.00 746.00,331.00
             746.00,331.00 772.00,331.00 772.00,331.00
             772.00,331.00 772.00,342.00 772.00,342.00
             772.00,342.00 784.40,343.02 784.40,343.02
             784.40,343.02 786.00,351.00 786.00,351.00
             786.00,351.00 786.00,371.00 786.00,371.00
             786.00,371.00 781.00,371.00 781.00,371.00
             781.00,371.00 781.00,374.00 781.00,374.00
             781.00,374.00 790.00,373.05 790.00,373.05
             790.00,373.05 809.00,373.05 809.00,373.05
             811.80,373.04 817.24,373.24 819.49,374.98
             822.05,376.97 821.96,381.07 822.00,384.00
             822.06,388.91 823.15,403.03 819.49,406.15
             817.68,407.69 815.24,407.79 813.00,408.00
             813.00,408.00 813.00,443.00 813.00,443.00
             813.00,443.00 814.00,458.00 814.00,458.00
             814.00,458.00 814.00,480.00 814.00,480.00
             814.00,480.00 813.41,501.71 813.41,501.71
             813.41,501.71 811.00,504.00 811.00,504.00
             811.00,504.00 811.00,476.00 811.00,476.00
             811.00,476.00 808.00,476.00 808.00,476.00
             808.00,476.00 808.00,504.00 808.00,504.00
             808.00,504.00 808.66,515.00 808.66,515.00
             808.66,515.00 808.02,522.00 808.02,522.00
             808.02,522.00 808.02,537.00 808.02,537.00
             808.02,537.00 808.91,550.00 808.91,550.00
             808.91,550.00 808.00,560.00 808.00,560.00
             808.00,560.00 808.00,601.00 808.00,601.00
             808.00,601.00 812.00,601.00 812.00,601.00
             812.00,601.00 812.00,558.00 812.00,558.00
             811.99,553.17 810.73,549.75 814.00,546.00
             814.00,546.00 814.00,560.00 814.00,560.00
             814.00,560.00 815.00,575.00 815.00,575.00
             815.00,575.00 815.00,601.00 815.00,601.00
             815.00,601.00 826.00,601.00 826.00,601.00
             826.00,601.00 826.00,574.00 826.00,574.00
             826.00,574.00 825.10,562.00 825.10,562.00
             824.91,557.64 826.79,551.12 825.69,547.06
             824.29,541.96 820.03,543.88 817.74,542.01
             815.62,540.27 816.00,535.52 816.00,533.00
             816.00,533.00 815.32,498.00 815.32,498.00
             815.32,498.00 816.00,441.00 816.00,441.00
             816.00,441.00 835.00,440.00 835.00,440.00
             835.00,440.00 835.00,415.00 835.00,415.00
             835.00,415.00 835.00,378.00 835.00,378.00
             835.00,378.00 835.96,366.00 835.96,366.00
             835.96,366.00 835.96,350.00 835.96,350.00
             834.32,349.72 832.92,349.73 831.67,348.40
             829.41,346.21 829.25,337.00 831.67,334.99
             833.77,333.35 846.74,333.99 850.00,334.00
             852.30,334.00 856.41,333.62 857.98,335.60
             858.98,336.87 861.43,349.78 854.00,349.00
             854.00,349.00 858.00,348.00 858.00,348.00
             858.00,348.00 858.00,342.00 858.00,342.00
             858.00,342.00 853.00,342.00 853.00,342.00
             853.00,342.00 851.00,346.00 851.00,346.00
             851.00,346.00 851.00,348.00 851.00,348.00
             851.00,348.00 853.00,348.00 853.00,348.00
             853.00,348.00 853.00,350.00 853.00,350.00
             853.00,350.00 851.13,358.00 851.13,358.00
             851.13,358.00 851.13,375.91 851.13,375.91
             851.13,375.91 853.00,382.00 853.00,382.00
             850.25,383.25 851.00,387.30 851.00,390.00
             851.00,390.00 851.00,406.00 851.00,406.00
             851.10,411.78 852.21,412.14 852.34,414.12
             852.34,414.12 851.03,421.01 851.03,421.01
             851.03,421.01 851.03,441.00 851.03,441.00
             851.03,441.00 856.00,441.00 856.00,441.00
             856.00,441.00 856.00,486.00 856.00,486.00
             856.00,486.00 885.00,486.00 885.00,486.00
             885.00,486.00 885.00,453.00 885.00,453.00
             885.01,450.46 884.68,446.52 886.60,444.60
             888.71,442.49 894.14,443.00 897.00,443.00
             897.00,443.00 897.00,371.00 897.00,371.00
             896.97,368.04 895.74,358.85 897.82,356.99
             899.23,355.74 903.16,356.00 905.00,356.00
             908.58,355.99 921.98,355.07 923.98,357.60
             925.23,359.19 925.00,363.01 925.00,365.00
             925.00,365.00 925.00,468.00 925.00,468.00
             925.00,468.00 932.00,468.00 932.00,468.00
             932.00,468.00 932.00,390.00 932.00,390.00
             932.00,390.00 946.00,390.00 946.00,390.00
             946.00,390.00 946.00,468.00 946.00,468.00
             946.00,468.00 949.00,468.00 949.00,468.00
             949.00,468.00 948.17,481.00 948.17,481.00
             947.98,483.51 947.97,486.42 950.31,487.98
             952.02,489.12 955.00,488.99 957.00,489.00
             961.67,489.03 979.66,489.49 982.91,488.30
             985.46,487.37 986.43,486.04 988.00,484.00
             988.00,484.00 1007.00,485.00 1007.00,485.00
             1007.00,492.05 1005.73,501.79 1009.00,508.00
             1009.00,508.00 1010.00,485.00 1010.00,485.00
             1010.00,485.00 1031.00,486.00 1031.00,486.00
             1031.00,486.00 1031.00,505.00 1031.00,505.00
             1031.00,505.00 1027.00,539.00 1027.00,539.00
             1027.00,539.00 1035.00,539.00 1035.00,539.00
             1035.00,539.00 1036.00,530.00 1036.00,530.00
             1036.00,530.00 1036.00,543.00 1036.00,543.00
             1036.00,543.00 1033.00,543.00 1033.00,543.00
             1033.00,543.00 1033.00,559.00 1033.00,559.00
             1033.00,559.00 1036.00,559.00 1036.00,559.00
             1036.00,559.00 1036.00,563.00 1036.00,563.00
             1036.00,563.00 1032.00,564.00 1032.00,564.00
             1032.00,564.00 1032.00,583.00 1032.00,583.00
             1032.00,583.00 1033.00,601.00 1033.00,601.00
             1033.00,601.00 1036.00,601.00 1036.00,601.00
             1036.00,601.00 1036.00,648.00 1036.00,648.00
             1036.00,648.00 0.00,648.00 0.00,648.00
             0.00,648.00 0.00,601.00 0.00,601.00
             3.76,599.63 2.99,595.44 3.00,592.00
             3.00,592.00 3.00,567.00 3.00,567.00
             3.00,567.00 14.00,567.00 14.00,567.00
             10.90,561.51 5.65,563.00 0.00,563.00
             0.00,563.00 0.00,559.00 0.00,559.00
             0.00,559.00 14.00,559.00 14.00,559.00
             14.00,555.26 15.05,546.27 11.69,544.02
             9.52,542.58 2.78,543.00 0.00,543.00
             0.00,543.00 0.00,539.00 0.00,539.00
             0.00,539.00 18.87,539.00 18.87,539.00
             18.87,539.00 18.87,515.00 18.87,515.00
             18.87,515.00 19.41,505.00 19.41,505.00
             19.27,501.13 19.02,491.64 20.74,488.29
             23.68,482.54 39.26,489.39 43.42,485.40
             46.07,482.85 45.99,475.51 46.00,472.00
             46.00,472.00 46.00,442.00 46.00,442.00
             46.00,442.00 74.00,443.00 74.00,443.00
             74.00,443.00 74.00,468.00 74.00,468.00
             74.00,468.00 108.00,468.00 108.00,468.00
             108.00,459.18 106.17,447.17 113.33,440.76
             120.75,434.12 132.62,436.00 142.00,436.00
             142.00,436.00 196.00,436.00 196.00,436.00
             201.27,436.00 215.78,435.50 220.00,436.80
             222.90,437.69 225.43,439.45 228.00,441.00
             227.99,434.95 229.07,431.19 222.00,430.00
             222.00,430.00 222.00,423.00 222.00,423.00
             222.00,423.00 315.00,423.00 315.00,423.00
             315.00,423.00 315.00,430.00 315.00,430.00
             315.00,430.00 310.00,430.00 310.00,430.00
             310.00,430.00 310.00,453.00 310.00,453.00
             310.00,453.00 310.92,465.00 310.92,465.00
             310.92,465.00 310.00,476.00 310.00,476.00
             310.00,476.00 310.00,499.00 310.00,499.00
             310.00,499.00 349.00,498.00 349.00,498.00
             349.00,498.00 349.00,416.00 349.00,416.00
             349.02,404.83 353.64,394.33 365.58,391.53
             368.07,390.94 372.36,391.00 375.00,391.00
             375.00,391.00 464.00,391.00 464.00,391.00
             481.64,391.03 489.92,399.37 490.00,417.00
             490.00,417.00 490.00,428.00 490.00,428.00
             490.17,437.23 494.68,438.96 503.00,439.00
             503.00,439.00 552.00,439.00 552.00,439.00
             562.35,439.05 571.16,441.67 575.64,452.00
             577.77,456.94 576.66,463.83 581.22,467.26
             584.74,469.90 596.31,469.00 601.00,469.00
             601.00,469.00 601.00,441.00 601.00,441.00
             601.00,441.00 608.00,441.00 608.00,441.00
             608.00,441.00 608.00,399.00 608.00,399.00
             608.00,399.00 603.00,399.00 603.00,399.00
             603.00,399.00 603.00,395.00 603.00,395.00
             603.00,395.00 608.00,395.00 608.00,395.00
             608.00,395.00 608.00,348.00 608.00,348.00
             608.00,348.00 603.00,348.00 603.00,348.00
             603.00,348.00 603.00,344.00 603.00,344.00
             603.00,344.00 608.00,344.00 608.00,344.00
             608.00,344.00 608.00,294.00 608.00,294.00
             608.00,294.00 603.00,294.00 603.00,294.00
             603.00,294.00 603.00,276.00 603.00,276.00
             603.00,276.00 616.00,276.00 616.00,276.00
             616.00,276.00 616.00,269.00 616.00,269.00 Z
           M 858.00,341.00
           C 858.00,341.00 856.40,336.02 856.40,336.02
             856.40,336.02 849.00,335.00 849.00,335.00
             849.00,335.00 832.00,335.00 832.00,335.00
             832.00,335.00 832.00,341.00 832.00,341.00
             832.00,341.00 841.00,341.00 841.00,341.00
             842.81,335.34 846.19,335.34 848.00,341.00
             848.00,341.00 858.00,341.00 858.00,341.00 Z
           M 836.00,342.00
           C 836.00,342.00 832.00,342.00 832.00,342.00
             832.00,342.00 832.00,348.00 832.00,348.00
             832.00,348.00 838.00,349.00 838.00,349.00
             838.00,349.00 837.00,379.00 837.00,379.00
             837.00,379.00 839.00,379.00 839.00,379.00
             839.00,379.00 839.00,346.00 839.00,346.00
             839.00,346.00 836.00,346.00 836.00,346.00
             836.00,346.00 836.00,342.00 836.00,342.00 Z
           M 819.00,389.00
           C 819.00,389.00 817.98,377.60 817.98,377.60
             817.98,377.60 811.00,376.00 811.00,376.00
             811.00,376.00 781.00,376.00 781.00,376.00
             781.00,376.00 781.00,389.00 781.00,389.00
             781.00,389.00 794.00,389.00 794.00,389.00
             792.10,378.17 795.68,379.00 804.93,379.00
             804.93,379.00 804.93,385.87 804.93,385.87
             805.63,390.55 815.37,389.00 819.00,389.00 Z
           M 839.00,382.00
           C 839.00,382.00 837.00,382.00 837.00,382.00
             837.00,382.00 838.00,413.00 838.00,413.00
             838.00,413.00 839.00,382.00 839.00,382.00 Z
           M 786.00,392.00
           C 786.00,392.00 781.00,392.00 781.00,392.00
             781.00,392.00 781.00,405.00 781.00,405.00
             781.00,405.00 790.00,405.00 790.00,405.00
             790.00,405.00 786.00,392.00 786.00,392.00 Z
           M 819.00,392.00
           C 819.00,392.00 812.00,392.00 812.00,392.00
             812.00,392.00 811.00,400.00 811.00,400.00
             811.00,400.00 809.00,399.00 809.00,399.00
             809.00,399.00 808.00,424.00 808.00,424.00
             808.00,424.00 808.00,470.00 808.00,470.00
             808.00,470.00 811.00,470.00 811.00,470.00
             811.00,470.00 811.00,429.00 811.00,429.00
             811.00,429.00 810.00,406.00 810.00,406.00
             811.68,405.59 816.30,404.87 817.40,403.98
             819.70,402.12 819.00,394.86 819.00,392.00 Z
           M 602.00,483.00
           C 591.18,483.00 578.78,484.77 570.18,476.67
             567.30,473.96 564.90,469.80 563.79,466.00
             562.69,462.26 563.24,458.27 559.77,455.60
             557.33,453.71 553.92,454.01 551.00,454.00
             551.00,454.00 532.00,454.00 532.00,454.00
             532.00,454.00 518.00,453.00 518.00,453.00
             506.93,452.88 496.30,456.48 486.00,450.01
             478.33,445.19 475.04,435.64 475.00,427.00
             474.98,421.84 476.55,409.09 471.77,406.17
             469.50,404.78 465.63,405.00 463.00,405.00
             463.00,405.00 388.00,405.00 388.00,405.00
             381.94,405.00 368.36,403.18 365.02,409.11
             363.81,411.27 364.00,414.56 364.00,417.00
             364.00,417.00 364.00,461.00 364.00,461.00
             364.00,461.00 379.00,461.00 379.00,461.00
             384.87,461.01 387.37,461.09 393.00,463.23
             408.22,469.02 417.81,482.77 418.00,499.00
             418.00,499.00 418.00,512.00 418.00,512.00
             418.00,512.00 418.00,539.00 418.00,539.00
             418.00,539.00 427.00,539.00 427.00,539.00
             427.00,539.00 427.00,587.00 427.00,587.00
             427.00,587.00 433.00,587.00 433.00,587.00
             433.00,587.00 433.00,551.00 433.00,551.00
             433.00,542.96 432.33,534.79 434.67,527.00
             438.78,513.34 452.53,501.45 467.00,501.00
             467.00,493.59 466.22,487.62 473.04,482.65
             478.05,479.00 485.98,480.00 492.00,480.00
             492.00,480.00 535.00,480.00 535.00,480.00
             550.88,480.08 552.00,487.77 552.00,501.00
             567.33,502.38 582.23,514.77 585.48,530.00
             585.48,530.00 586.00,554.00 586.00,554.00
             586.00,554.00 586.00,579.00 586.00,579.00
             586.03,581.15 585.89,584.52 587.74,586.01
             589.61,587.52 598.29,587.00 601.00,587.00
             601.00,587.00 601.00,499.00 601.00,499.00
             601.00,499.00 602.00,483.00 602.00,483.00 Z
           M 790.00,408.00
           C 790.00,408.00 781.00,408.00 781.00,408.00
             781.00,408.00 781.00,451.00 781.00,451.00
             781.00,451.00 785.00,451.00 785.00,451.00
             785.00,451.00 785.00,457.00 785.00,457.00
             785.00,457.00 781.00,457.00 781.00,457.00
             781.00,457.00 781.00,601.00 781.00,601.00
             781.00,601.00 790.00,601.00 790.00,601.00
             790.00,601.00 790.00,549.00 790.00,549.00
             790.00,549.00 786.00,549.00 786.00,549.00
             786.63,545.24 786.65,544.89 790.00,543.00
             790.00,543.00 790.00,476.00 790.00,476.00
             790.00,476.00 786.00,476.00 786.00,476.00
             786.00,476.00 786.00,471.00 786.00,471.00
             786.00,471.00 790.00,471.00 790.00,471.00
             790.00,471.00 790.00,408.00 790.00,408.00 Z
           M 838.00,415.00
           C 834.54,419.21 836.00,435.06 836.00,441.00
             836.00,441.00 839.00,441.00 839.00,441.00
             839.00,441.00 838.00,415.00 838.00,415.00 Z
           M 264.00,430.00
           C 264.00,430.00 233.00,430.00 233.00,430.00
             233.00,430.00 233.00,476.00 233.00,476.00
             236.33,476.00 243.09,475.73 246.00,476.65
             255.85,479.77 255.00,489.79 255.00,498.00
             255.00,498.00 264.00,498.00 264.00,498.00
             264.00,498.00 264.00,430.00 264.00,430.00 Z
           M 304.00,430.00
           C 304.00,430.00 271.00,430.00 271.00,430.00
             271.00,430.00 271.00,456.00 271.00,456.00
             271.00,456.00 271.90,471.00 271.90,471.00
             271.90,471.00 270.90,478.00 270.90,478.00
             270.90,478.00 270.90,498.00 270.90,498.00
             270.90,498.00 304.00,498.00 304.00,498.00
             304.00,498.00 304.00,476.00 304.00,476.00
             304.00,476.00 305.00,455.00 305.00,455.00
             305.00,455.00 304.00,430.00 304.00,430.00 Z
           M 0.00,448.00
           C 0.00,448.00 3.00,449.00 3.00,449.00
             3.00,449.00 1.00,453.00 1.00,453.00
             1.00,453.00 0.00,448.00 0.00,448.00 Z
           M 959.00,448.00
           C 959.00,448.00 960.00,448.00 960.00,448.00
             960.00,448.00 959.00,449.00 959.00,449.00
             959.00,449.00 959.00,448.00 959.00,448.00 Z
           M 190.00,453.00
           C 190.00,453.00 125.00,453.00 125.00,453.00
             125.00,465.62 126.07,466.98 121.00,479.00
             121.00,479.00 129.00,479.00 129.00,479.00
             129.00,474.46 128.18,465.82 130.89,462.23
             133.66,458.56 137.92,459.01 142.00,459.00
             142.00,459.00 168.00,459.00 168.00,459.00
             171.56,459.00 186.23,459.69 188.40,457.98
             189.96,456.74 189.85,454.77 190.00,453.00 Z
           M 215.00,453.00
           C 215.00,453.00 193.00,453.00 193.00,453.00
             193.00,453.00 193.00,459.00 193.00,459.00
             193.00,459.00 216.00,458.00 216.00,458.00
             216.00,458.00 215.00,453.00 215.00,453.00 Z
           M 190.00,461.00
           C 190.00,461.00 139.00,461.00 139.00,461.00
             129.38,461.18 131.00,464.96 131.00,479.00
             131.00,479.00 190.00,479.00 190.00,479.00
             190.00,479.00 190.00,461.00 190.00,461.00 Z
           M 215.00,461.00
           C 215.00,461.00 193.00,461.00 193.00,461.00
             193.00,461.00 193.00,479.00 193.00,479.00
             193.00,479.00 215.00,479.00 215.00,479.00
             215.00,479.00 215.00,461.00 215.00,461.00 Z
           M 407.00,539.00
           C 407.00,539.00 407.00,509.00 407.00,509.00
             407.00,503.68 407.41,495.94 406.07,491.00
             402.88,479.20 392.99,472.06 381.00,472.00
             381.00,472.00 364.00,472.00 364.00,472.00
             364.00,472.00 364.00,498.00 364.00,498.00
             367.92,498.00 374.44,497.69 378.00,498.80
             382.94,500.35 387.80,505.04 389.35,510.00
             390.48,513.61 390.00,533.76 390.00,539.00
             390.00,539.00 407.00,539.00 407.00,539.00 Z
           M 253.00,498.00
           C 253.00,494.71 253.27,487.87 252.35,485.02
             249.60,476.50 240.05,478.00 233.00,478.00
             233.00,478.00 233.00,485.00 233.00,485.00
             233.00,485.00 238.00,485.00 238.00,485.00
             238.00,487.54 237.56,494.55 239.02,496.40
             240.93,498.82 249.92,498.00 253.00,498.00 Z
           M 129.00,481.00
           C 129.00,481.00 103.00,485.00 103.00,485.00
             103.00,485.00 74.00,485.00 74.00,485.00
             74.00,485.00 74.00,488.00 74.00,488.00
             74.00,488.00 129.00,488.00 129.00,488.00
             129.00,488.00 129.00,481.00 129.00,481.00 Z
           M 190.00,481.00
           C 190.00,481.00 131.00,481.00 131.00,481.00
             131.00,481.00 133.00,495.00 133.00,495.00
             133.00,495.00 128.00,495.00 128.00,495.00
             128.00,506.15 127.08,507.72 135.00,508.00
             135.00,503.53 133.73,488.41 137.31,486.02
             140.16,484.13 151.80,485.44 156.00,485.00
             156.00,491.00 154.60,503.38 158.00,508.00
             158.00,508.00 159.00,485.00 159.00,485.00
             159.00,485.00 180.00,485.00 180.00,485.00
             180.00,485.00 180.00,508.00 180.00,508.00
             180.00,508.00 183.98,506.40 183.98,506.40
             183.98,506.40 184.98,499.04 184.98,499.04
             184.98,499.04 184.98,485.00 184.98,485.00
             184.98,485.00 190.00,485.00 190.00,485.00
             190.00,485.00 190.00,481.00 190.00,481.00 Z
           M 215.00,481.00
           C 215.00,481.00 193.00,481.00 193.00,481.00
             193.00,481.00 193.00,485.00 193.00,485.00
             193.00,485.00 215.00,485.00 215.00,485.00
             215.00,485.00 215.00,481.00 215.00,481.00 Z
           M 547.00,501.00
           C 547.00,496.87 547.75,490.57 544.57,487.51
             541.83,484.87 537.53,485.02 534.00,485.00
             534.00,485.00 486.00,485.00 486.00,485.00
             472.48,485.02 472.90,489.14 472.00,501.00
             476.95,501.93 481.47,502.76 486.00,505.13
             500.35,512.67 509.89,530.99 506.00,547.00
             506.00,547.00 513.00,548.00 513.00,548.00
             513.00,542.34 512.59,535.40 513.90,530.00
             518.00,513.12 530.67,504.08 547.00,501.00 Z
           M 1035.00,486.00
           C 1036.31,489.30 1036.31,491.70 1035.00,495.00
             1035.00,495.00 1035.00,486.00 1035.00,486.00 Z
           M 215.00,491.00
           C 215.00,491.00 196.00,491.00 196.00,491.00
             196.00,491.00 188.99,492.74 188.99,492.74
             188.99,492.74 188.00,508.00 188.00,508.00
             188.00,508.00 217.00,508.00 217.00,508.00
             217.00,508.00 215.00,491.00 215.00,491.00 Z
           M 95.00,495.00
           C 95.00,495.00 92.00,495.00 92.00,495.00
             92.00,499.71 90.71,505.13 95.00,508.00
             95.00,508.00 95.00,495.00 95.00,495.00 Z
           M 117.00,495.00
           C 117.00,495.00 114.00,495.00 114.00,495.00
             114.00,495.00 114.00,508.00 114.00,508.00
             114.00,508.00 117.00,508.00 117.00,508.00
             117.00,508.00 117.00,495.00 117.00,495.00 Z
           M 968.00,495.00
           C 968.00,495.00 964.00,495.00 964.00,495.00
             964.00,500.14 962.36,506.02 968.00,508.00
             968.00,508.00 968.00,495.00 968.00,495.00 Z
           M 986.00,495.00
           C 986.00,495.00 984.00,495.00 984.00,495.00
             984.00,495.00 984.00,508.00 984.00,508.00
             984.00,508.00 986.00,508.00 986.00,508.00
             986.00,508.00 986.00,495.00 986.00,495.00 Z
           M 140.00,539.00
           C 140.00,539.00 136.75,519.00 136.75,519.00
             136.75,519.00 134.41,512.02 134.41,512.02
             134.41,512.02 128.00,511.00 128.00,511.00
             128.00,511.00 128.00,532.00 128.00,532.00
             128.00,532.00 129.60,537.98 129.60,537.98
             129.60,537.98 140.00,539.00 140.00,539.00 Z
           M 159.00,511.00
           C 159.00,511.00 157.00,511.00 157.00,511.00
             157.00,511.00 152.00,539.00 152.00,539.00
             152.00,539.00 164.00,539.00 164.00,539.00
             164.00,539.00 159.00,511.00 159.00,511.00 Z
           M 185.00,539.00
           C 185.00,539.00 185.00,522.00 185.00,522.00
             185.00,522.00 184.40,513.31 184.40,513.31
             184.40,513.31 180.00,511.00 180.00,511.00
             180.00,511.00 176.00,539.00 176.00,539.00
             176.00,539.00 185.00,539.00 185.00,539.00 Z
           M 222.00,539.00
           C 222.00,539.00 218.92,520.00 218.92,520.00
             218.92,520.00 216.27,511.99 216.27,511.99
             216.27,511.99 209.00,511.00 209.00,511.00
             209.00,511.00 189.60,512.02 189.60,512.02
             189.60,512.02 188.00,519.00 188.00,519.00
             188.00,519.00 188.00,539.00 188.00,539.00
             188.00,539.00 222.00,539.00 222.00,539.00 Z
           M 986.00,511.00
           C 986.00,511.00 979.00,511.00 979.00,511.00
             979.00,511.00 979.00,539.00 979.00,539.00
             979.00,539.00 991.00,539.00 991.00,539.00
             991.00,539.00 986.00,511.00 986.00,511.00 Z
           M 1008.00,511.00
           C 1008.00,511.00 1003.00,539.00 1003.00,539.00
             1003.00,539.00 1014.00,539.00 1014.00,539.00
             1013.87,532.95 1011.39,515.53 1008.00,511.00 Z
           M 1.00,511.00
           C 1.00,511.00 2.00,511.00 2.00,511.00
             2.00,511.00 1.00,512.00 1.00,512.00
             1.00,512.00 1.00,511.00 1.00,511.00 Z
           M 95.00,515.00
           C 95.00,515.00 92.00,515.00 92.00,515.00
             92.00,515.00 92.00,531.00 92.00,531.00
             92.00,531.00 96.00,530.00 96.00,530.00
             96.00,530.00 95.00,515.00 95.00,515.00 Z
           M 117.00,515.00
           C 117.00,515.00 114.00,515.00 114.00,515.00
             114.00,515.00 114.00,531.00 114.00,531.00
             114.00,531.00 117.00,531.00 117.00,531.00
             117.00,531.00 117.00,515.00 117.00,515.00 Z
           M 263.00,539.00
           C 263.00,539.00 263.00,522.00 263.00,522.00
             263.00,522.00 261.40,516.02 261.40,516.02
             261.40,516.02 244.00,515.00 244.00,515.00
             244.00,515.00 244.00,539.00 244.00,539.00
             244.00,539.00 263.00,539.00 263.00,539.00 Z
           M 291.00,515.00
           C 282.87,516.95 277.44,513.70 273.23,515.60
             268.37,517.78 270.00,534.01 270.00,539.00
             270.00,539.00 290.00,539.00 290.00,539.00
             290.00,539.00 291.00,515.00 291.00,515.00 Z
           M 374.00,515.00
           C 374.00,515.00 327.00,515.00 327.00,515.00
             327.00,515.00 315.00,515.91 315.00,515.91
             305.87,516.43 303.02,511.95 303.00,524.00
             303.00,524.00 303.00,539.00 303.00,539.00
             303.00,539.00 374.00,539.00 374.00,539.00
             374.00,539.00 374.00,515.00 374.00,515.00 Z
           M 968.00,515.00
           C 968.00,515.00 964.00,515.00 964.00,515.00
             964.00,515.00 965.02,529.41 965.02,529.41
             965.02,529.41 968.00,531.00 968.00,531.00
             968.00,531.00 968.00,515.00 968.00,515.00 Z
           M 238.00,517.00
           C 238.00,517.00 234.00,538.00 234.00,538.00
             234.00,538.00 238.00,539.00 238.00,539.00
             238.00,539.00 238.00,517.00 238.00,517.00 Z
           M 667.00,530.00
           C 667.00,530.00 657.00,530.00 657.00,530.00
             657.00,530.00 657.00,543.00 657.00,543.00
             657.00,543.00 667.00,543.00 667.00,543.00
             667.00,543.00 667.00,530.00 667.00,530.00 Z
           M 687.00,530.00
           C 687.00,530.00 677.00,530.00 677.00,530.00
             677.00,530.00 677.00,543.00 677.00,543.00
             677.00,543.00 687.00,543.00 687.00,543.00
             687.00,543.00 687.00,530.00 687.00,530.00 Z
           M 738.00,530.00
           C 738.00,530.00 727.00,530.00 727.00,530.00
             727.00,530.00 727.00,543.00 727.00,543.00
             727.00,543.00 738.00,543.00 738.00,543.00
             738.00,543.00 738.00,530.00 738.00,530.00 Z
           M 25.00,543.00
           C 25.00,543.00 16.00,543.00 16.00,543.00
             16.00,543.00 16.00,559.00 16.00,559.00
             16.00,559.00 25.00,559.00 25.00,559.00
             25.00,559.00 25.00,543.00 25.00,543.00 Z
           M 37.00,543.00
           C 37.00,543.00 27.00,543.00 27.00,543.00
             27.00,543.00 27.00,559.00 27.00,559.00
             27.00,559.00 37.00,559.00 37.00,559.00
             37.00,559.00 37.00,543.00 37.00,543.00 Z
           M 48.00,543.00
           C 48.00,543.00 39.00,543.00 39.00,543.00
             39.00,543.00 39.00,559.00 39.00,559.00
             39.00,559.00 48.00,559.00 48.00,559.00
             48.00,559.00 48.00,543.00 48.00,543.00 Z
           M 70.00,543.00
           C 70.00,543.00 50.00,543.00 50.00,543.00
             50.00,543.00 50.00,559.00 50.00,559.00
             50.00,559.00 70.00,559.00 70.00,559.00
             70.00,559.00 70.00,543.00 70.00,543.00 Z
           M 133.00,543.00
           C 133.00,543.00 82.00,543.00 82.00,543.00
             72.80,543.06 74.00,544.14 74.00,559.00
             74.00,559.00 133.00,559.00 133.00,559.00
             133.00,559.00 133.00,543.00 133.00,543.00 Z
           M 144.00,543.00
           C 144.00,543.00 135.00,543.00 135.00,543.00
             135.00,543.00 135.00,559.00 135.00,559.00
             135.00,559.00 144.00,559.00 144.00,559.00
             144.00,559.00 144.00,543.00 144.00,543.00 Z
           M 156.00,543.00
           C 156.00,543.00 146.00,543.00 146.00,543.00
             146.00,543.00 146.00,559.00 146.00,559.00
             146.00,559.00 156.00,559.00 156.00,559.00
             156.00,559.00 156.00,543.00 156.00,543.00 Z
           M 168.00,543.00
           C 168.00,543.00 158.00,543.00 158.00,543.00
             158.00,543.00 158.00,559.00 158.00,559.00
             158.00,559.00 168.00,559.00 168.00,559.00
             168.00,559.00 168.00,543.00 168.00,543.00 Z
           M 178.00,543.00
           C 178.00,543.00 169.00,543.00 169.00,543.00
             169.00,543.00 169.00,559.00 169.00,559.00
             169.00,559.00 178.00,559.00 178.00,559.00
             178.00,559.00 178.00,543.00 178.00,543.00 Z
           M 192.00,543.00
           C 192.00,543.00 182.00,543.00 182.00,543.00
             182.00,543.00 182.00,559.00 182.00,559.00
             182.00,559.00 186.00,559.00 186.00,559.00
             186.00,559.00 186.00,548.00 186.00,548.00
             190.44,547.63 191.21,547.52 192.00,543.00 Z
           M 208.00,543.00
           C 205.19,543.00 195.67,542.22 194.07,544.60
             193.33,545.84 193.84,546.81 194.07,548.00
             200.45,548.16 199.00,554.04 199.00,559.00
             199.00,559.00 202.00,559.00 202.00,559.00
             202.00,559.00 202.00,548.00 202.00,548.00
             206.44,547.63 207.21,547.52 208.00,543.00 Z
           M 292.00,543.04
           C 292.00,543.04 282.00,543.04 282.00,543.04
             282.00,543.04 273.00,543.97 273.00,543.97
             273.00,543.97 262.00,543.03 262.00,543.03
             262.00,543.03 253.00,543.82 253.00,543.82
             253.00,543.82 241.00,543.00 241.00,543.00
             241.00,543.00 210.00,543.00 210.00,543.00
             210.00,543.00 210.00,548.00 210.00,548.00
             210.00,548.00 215.00,548.00 215.00,548.00
             215.00,548.00 215.00,559.00 215.00,559.00
             215.00,559.00 259.00,559.00 259.00,559.00
             259.00,559.00 259.00,549.00 259.00,549.00
             262.69,553.22 263.26,553.46 263.00,559.00
             263.00,559.00 292.00,559.00 292.00,559.00
             292.00,559.00 292.00,543.04 292.00,543.04 Z
           M 308.00,543.00
           C 308.00,543.00 294.00,543.00 294.00,543.00
             294.00,543.00 294.00,559.00 294.00,559.00
             294.00,559.00 308.00,559.00 308.00,559.00
             308.00,559.00 308.00,543.00 308.00,543.00 Z
           M 341.00,543.00
           C 341.00,543.00 310.00,543.00 310.00,543.00
             310.00,543.00 310.00,559.00 310.00,559.00
             310.00,559.00 341.00,559.00 341.00,559.00
             341.00,559.00 341.00,543.00 341.00,543.00 Z
           M 423.00,543.00
           C 423.00,543.00 345.00,543.00 345.00,543.00
             345.00,543.00 345.00,559.00 345.00,559.00
             345.00,559.00 390.00,559.00 390.00,559.00
             390.00,559.00 390.00,548.00 390.00,548.00
             390.00,548.00 403.00,548.00 403.00,548.00
             403.00,548.00 403.00,559.00 403.00,559.00
             403.00,559.00 406.00,559.00 406.00,559.00
             406.00,559.00 406.00,548.00 406.00,548.00
             406.00,548.00 419.00,548.00 419.00,548.00
             419.00,548.00 419.00,559.00 419.00,559.00
             419.00,559.00 423.00,559.00 423.00,559.00
             423.00,559.00 423.00,543.00 423.00,543.00 Z
           M 846.00,543.00
           C 846.00,543.00 831.00,543.00 831.00,543.00
             831.00,543.00 831.00,559.00 831.00,559.00
             831.00,559.00 846.00,559.00 846.00,559.00
             846.00,559.00 846.00,543.00 846.00,543.00 Z
           M 864.00,543.00
           C 864.00,543.00 850.00,543.00 850.00,543.00
             850.00,543.00 850.00,559.00 850.00,559.00
             850.00,559.00 864.00,559.00 864.00,559.00
             864.00,559.00 864.00,543.00 864.00,543.00 Z
           M 876.00,543.00
           C 876.00,543.00 866.00,543.00 866.00,543.00
             866.00,543.00 866.00,559.00 866.00,559.00
             866.00,559.00 876.00,559.00 876.00,559.00
             876.00,559.00 876.00,543.00 876.00,543.00 Z
           M 888.00,559.00
           C 887.71,555.53 889.06,546.13 886.40,544.02
             884.73,542.70 880.14,543.00 878.00,543.00
             878.00,543.00 878.00,559.00 878.00,559.00
             878.00,559.00 888.00,559.00 888.00,559.00 Z
           M 899.00,543.00
           C 899.00,543.00 889.00,543.00 889.00,543.00
             889.00,543.00 889.00,559.00 889.00,559.00
             889.00,559.00 899.00,559.00 899.00,559.00
             899.00,559.00 899.00,543.00 899.00,543.00 Z
           M 921.00,543.00
           C 921.00,543.00 901.00,543.00 901.00,543.00
             901.00,543.00 901.00,559.00 901.00,559.00
             901.00,559.00 921.00,559.00 921.00,559.00
             921.00,559.00 921.00,543.00 921.00,543.00 Z
           M 925.00,559.00
           C 925.00,559.00 975.00,559.00 975.00,559.00
             976.94,559.00 980.72,559.25 982.33,558.01
             984.62,556.10 984.79,545.91 982.33,544.02
             980.81,542.77 976.99,543.00 975.00,543.00
             975.00,543.00 925.00,543.00 925.00,543.00
             925.00,543.00 925.00,559.00 925.00,559.00 Z
           M 995.00,543.00
           C 992.86,543.00 988.27,542.70 986.60,544.02
             984.15,545.96 985.00,555.82 985.00,559.00
             985.00,559.00 995.00,559.00 995.00,559.00
             995.00,559.00 995.00,543.00 995.00,543.00 Z
           M 1007.00,543.00
           C 1007.00,543.00 997.00,543.00 997.00,543.00
             997.00,543.00 997.00,559.00 997.00,559.00
             997.00,559.00 1007.00,559.00 1007.00,559.00
             1007.00,559.00 1007.00,543.00 1007.00,543.00 Z
           M 1018.00,543.00
           C 1018.00,543.00 1009.00,543.00 1009.00,543.00
             1009.00,543.00 1009.00,559.00 1009.00,559.00
             1009.00,559.00 1018.00,559.00 1018.00,559.00
             1018.00,559.00 1018.00,543.00 1018.00,543.00 Z
           M 1028.00,543.00
           C 1028.00,543.00 1020.00,543.00 1020.00,543.00
             1020.00,543.00 1020.00,559.00 1020.00,559.00
             1020.00,559.00 1028.00,559.00 1028.00,559.00
             1028.00,559.00 1028.00,543.00 1028.00,543.00 Z
           M 513.00,551.00
           C 513.00,551.00 507.00,551.00 507.00,551.00
             507.00,551.00 507.00,566.00 507.00,566.00
             507.00,566.00 513.00,566.00 513.00,566.00
             513.00,566.00 513.00,551.00 513.00,551.00 Z
           M 667.00,553.00
           C 667.00,553.00 657.00,553.00 657.00,553.00
             657.00,553.00 657.00,565.00 657.00,565.00
             657.00,565.00 667.00,565.00 667.00,565.00
             667.00,565.00 667.00,553.00 667.00,553.00 Z
           M 687.00,553.00
           C 687.00,553.00 677.00,553.00 677.00,553.00
             677.00,553.00 677.00,565.00 677.00,565.00
             677.00,565.00 687.00,565.00 687.00,565.00
             687.00,565.00 687.00,553.00 687.00,553.00 Z
           M 738.00,553.00
           C 738.00,553.00 727.00,553.00 727.00,553.00
             727.00,553.00 727.00,565.00 727.00,565.00
             727.00,565.00 738.00,565.00 738.00,565.00
             738.00,565.00 738.00,553.00 738.00,553.00 Z
           M 25.00,567.00
           C 23.14,561.65 19.71,563.31 15.00,564.00
             15.00,564.00 15.00,567.00 15.00,567.00
             15.00,567.00 25.00,567.00 25.00,567.00 Z
           M 37.00,567.00
           C 35.11,561.60 31.81,563.37 27.00,564.00
             27.00,564.00 27.00,567.00 27.00,567.00
             27.00,567.00 37.00,567.00 37.00,567.00 Z
           M 49.00,567.00
           C 45.88,562.13 44.32,563.35 39.00,563.00
             39.00,563.00 39.00,567.00 39.00,567.00
             39.00,567.00 49.00,567.00 49.00,567.00 Z
           M 70.00,563.00
           C 70.00,563.00 51.57,564.17 51.57,564.17
             51.57,564.17 50.00,567.00 50.00,567.00
             50.00,567.00 65.00,567.00 65.00,567.00
             65.00,567.00 65.00,601.00 65.00,601.00
             65.00,601.00 70.00,601.00 70.00,601.00
             70.00,601.00 70.00,563.00 70.00,563.00 Z
           M 133.00,567.00
           C 131.35,562.14 127.54,563.04 123.00,563.00
             123.00,563.00 92.00,563.00 92.00,563.00
             89.08,563.00 77.40,562.60 75.60,564.02
             73.62,565.58 74.00,569.71 74.00,572.00
             74.00,572.00 74.00,601.00 74.00,601.00
             74.00,601.00 77.00,601.00 77.00,601.00
             77.00,601.00 78.00,567.00 78.00,567.00
             78.00,567.00 133.00,567.00 133.00,567.00 Z
           M 144.00,563.00
           C 144.00,563.00 135.00,563.00 135.00,563.00
             135.00,563.00 135.00,567.00 135.00,567.00
             135.00,567.00 140.00,567.00 140.00,567.00
             140.00,567.00 140.00,579.00 140.00,579.00
             140.00,579.00 144.00,579.00 144.00,579.00
             144.00,579.00 144.00,563.00 144.00,563.00 Z
           M 147.00,563.00
           C 147.00,563.00 146.00,579.00 146.00,579.00
             146.00,579.00 156.00,579.00 156.00,579.00
             156.00,579.00 156.00,563.00 156.00,563.00
             156.00,563.00 147.00,563.00 147.00,563.00 Z
           M 158.00,579.00
           C 160.14,579.00 164.73,579.30 166.40,577.98
             168.70,576.16 168.70,565.84 166.40,564.02
             164.73,562.70 160.14,563.00 158.00,563.00
             158.00,563.00 158.00,579.00 158.00,579.00 Z
           M 178.00,595.00
           C 178.00,595.00 178.00,571.00 178.00,571.00
             178.00,571.00 176.98,564.60 176.98,564.60
             176.98,564.60 170.00,563.00 170.00,563.00
             170.00,563.00 169.00,564.00 169.00,564.00
             169.88,574.39 166.64,578.30 175.00,579.00
             175.00,579.00 175.00,595.00 175.00,595.00
             175.00,595.00 178.00,595.00 178.00,595.00 Z
           M 186.00,595.00
           C 186.00,595.00 186.00,570.00 186.00,570.00
             185.92,565.85 186.14,564.45 182.00,563.00
             182.00,563.00 182.00,595.00 182.00,595.00
             182.00,595.00 186.00,595.00 186.00,595.00 Z
           M 200.00,563.00
           C 200.00,563.00 199.00,576.00 199.00,576.00
             199.00,576.00 199.00,601.00 199.00,601.00
             199.00,601.00 202.00,601.00 202.00,601.00
             202.00,601.00 202.00,576.00 202.00,576.00
             202.00,576.00 201.00,563.00 201.00,563.00
             201.00,563.00 200.00,563.00 200.00,563.00 Z
           M 259.00,563.01
           C 259.00,563.01 221.00,563.01 221.00,563.01
             214.81,563.27 215.04,565.54 215.00,571.00
             215.00,571.00 215.00,601.00 215.00,601.00
             215.00,601.00 220.00,601.00 220.00,601.00
             220.00,601.00 220.00,567.00 220.00,567.00
             220.00,567.00 259.00,567.00 259.00,567.00
             259.00,567.00 259.00,563.01 259.00,563.01 Z
           M 289.00,563.00
           C 289.00,563.00 263.00,564.00 263.00,564.00
             263.00,564.00 263.00,566.00 263.00,566.00
             263.00,566.00 282.00,567.00 282.00,567.00
             282.00,567.00 282.00,601.00 282.00,601.00
             282.00,601.00 286.00,601.00 286.00,601.00
             286.00,601.00 286.00,567.00 286.00,567.00
             286.00,567.00 289.00,567.00 289.00,567.00
             289.00,567.00 289.00,563.00 289.00,563.00 Z
           M 297.00,563.00
           C 297.00,563.00 296.00,567.00 296.00,567.00
             296.00,567.00 299.00,567.00 299.00,567.00
             299.00,567.00 299.00,601.00 299.00,601.00
             299.00,601.00 302.00,601.00 302.00,601.00
             302.00,601.00 302.00,567.00 302.00,567.00
             302.00,567.00 306.00,567.00 306.00,567.00
             306.00,567.00 306.00,563.00 306.00,563.00
             306.00,563.00 297.00,563.00 297.00,563.00 Z
           M 340.00,577.00
           C 340.84,574.05 342.18,566.22 339.40,564.02
             337.81,562.77 333.99,563.00 332.00,563.00
             332.00,563.00 313.00,563.00 313.00,563.00
             313.00,563.00 312.00,567.00 312.00,567.00
             315.73,569.50 314.98,571.85 315.00,576.00
             315.00,576.00 340.00,577.00 340.00,577.00 Z
           M 346.00,563.00
           C 346.00,563.00 345.00,577.00 345.00,577.00
             345.00,577.00 348.00,577.00 348.00,577.00
             348.00,577.00 349.00,567.00 349.00,567.00
             349.00,567.00 387.00,567.00 387.00,567.00
             387.00,567.00 387.00,601.00 387.00,601.00
             387.00,601.00 390.00,601.00 390.00,601.00
             390.00,601.00 390.00,563.00 390.00,563.00
             390.00,563.00 346.00,563.00 346.00,563.00 Z
           M 846.00,601.00
           C 846.00,601.00 846.00,572.00 846.00,572.00
             846.00,572.00 844.43,564.17 844.43,564.17
             844.43,564.17 831.00,563.00 831.00,563.00
             831.00,563.00 831.00,601.00 831.00,601.00
             831.00,601.00 846.00,601.00 846.00,601.00 Z
           M 851.00,563.00
           C 851.00,563.00 850.00,576.00 850.00,576.00
             850.00,576.00 850.00,601.00 850.00,601.00
             850.00,601.00 854.00,601.00 854.00,601.00
             854.00,601.00 854.00,567.00 854.00,567.00
             858.78,567.00 861.93,568.09 865.00,564.00
             865.00,564.00 851.00,563.00 851.00,563.00 Z
           M 876.00,567.00
           C 874.22,561.91 872.10,563.46 867.00,563.00
             867.00,563.00 866.00,567.00 866.00,567.00
             866.00,567.00 876.00,567.00 876.00,567.00 Z
           M 888.00,567.00
           C 886.08,561.51 879.91,561.72 878.00,567.00
             878.00,567.00 888.00,567.00 888.00,567.00 Z
           M 899.00,567.00
           C 897.08,561.53 890.92,561.53 889.00,567.00
             889.00,567.00 899.00,567.00 899.00,567.00 Z
           M 920.00,563.00
           C 920.00,563.00 902.59,564.02 902.59,564.02
             902.59,564.02 901.00,567.00 901.00,567.00
             901.00,567.00 916.00,567.00 916.00,567.00
             916.00,567.00 916.00,601.00 916.00,601.00
             916.00,601.00 921.00,601.00 921.00,601.00
             921.00,592.60 921.91,569.72 920.00,563.00 Z
           M 983.00,563.00
           C 983.00,563.00 926.00,563.00 926.00,563.00
             924.09,569.72 925.00,592.60 925.00,601.00
             925.00,601.00 928.00,601.00 928.00,601.00
             928.00,601.00 928.00,577.00 928.00,577.00
             928.01,574.09 927.55,569.86 930.31,568.02
             932.67,566.45 942.73,567.00 946.00,567.00
             946.00,567.00 984.00,567.00 984.00,567.00
             984.00,567.00 984.00,564.00 984.00,564.00
             984.00,564.00 983.00,563.00 983.00,563.00 Z
           M 995.00,563.00
           C 990.67,563.15 986.77,562.46 985.00,567.00
             985.00,567.00 990.00,567.00 990.00,567.00
             990.00,572.78 988.30,577.82 995.00,579.00
             995.00,579.00 995.00,563.00 995.00,563.00 Z
           M 998.00,563.00
           C 998.00,563.00 997.00,579.00 997.00,579.00
             999.14,579.00 1003.73,579.30 1005.40,577.98
             1007.70,576.16 1007.70,565.84 1005.40,564.02
             1003.85,562.79 1000.06,563.15 998.00,563.00 Z
           M 1018.00,563.00
           C 1018.00,563.00 1009.00,563.00 1009.00,563.00
             1009.00,563.00 1009.00,579.00 1009.00,579.00
             1009.00,579.00 1018.00,579.00 1018.00,579.00
             1018.00,579.00 1018.00,563.00 1018.00,563.00 Z
           M 1029.00,564.00
           C 1029.00,564.00 1020.00,563.00 1020.00,563.00
             1020.00,576.27 1018.74,578.39 1026.00,579.00
             1026.00,579.00 1026.00,601.00 1026.00,601.00
             1026.00,601.00 1028.00,601.00 1028.00,601.00
             1028.00,601.00 1029.00,564.00 1029.00,564.00 Z
           M 406.00,564.00
           C 406.00,564.00 403.00,564.00 403.00,564.00
             403.00,564.00 403.00,601.00 403.00,601.00
             403.00,601.00 406.00,601.00 406.00,601.00
             406.00,601.00 406.00,564.00 406.00,564.00 Z
           M 423.00,564.00
           C 423.00,564.00 419.00,564.00 419.00,564.00
             419.00,564.00 419.00,587.00 419.00,587.00
             419.00,587.00 423.00,587.00 423.00,587.00
             423.00,587.00 423.00,564.00 423.00,564.00 Z
           M 513.00,570.00
           C 513.00,570.00 506.00,571.00 506.00,571.00
             506.00,571.00 507.00,587.00 507.00,587.00
             507.00,587.00 513.00,587.00 513.00,587.00
             513.00,587.00 513.00,570.00 513.00,570.00 Z
           M 667.00,575.00
           C 667.00,575.00 657.00,575.00 657.00,575.00
             657.00,575.00 657.00,588.00 657.00,588.00
             657.00,588.00 667.00,588.00 667.00,588.00
             667.00,588.00 667.00,575.00 667.00,575.00 Z
           M 687.00,575.00
           C 687.00,575.00 677.00,575.00 677.00,575.00
             677.00,575.00 677.00,588.00 677.00,588.00
             677.00,588.00 687.00,588.00 687.00,588.00
             687.00,588.00 687.00,575.00 687.00,575.00 Z
           M 738.00,575.00
           C 738.00,575.00 727.00,575.00 727.00,575.00
             727.00,575.00 727.00,587.00 727.00,587.00
             727.00,587.00 738.00,587.00 738.00,587.00
             738.00,587.00 738.00,575.00 738.00,575.00 Z
           M 341.00,587.00
           C 341.00,587.00 315.00,587.00 315.00,587.00
             315.00,587.00 315.00,589.00 315.00,589.00
             315.00,589.00 341.00,589.00 341.00,589.00
             341.00,589.00 341.00,587.00 341.00,587.00 Z
           M 349.00,587.00
           C 349.00,587.00 345.00,587.00 345.00,587.00
             345.00,587.00 345.00,589.00 345.00,589.00
             345.00,589.00 349.00,589.00 349.00,589.00
             349.00,589.00 349.00,587.00 349.00,587.00 Z
           M 667.00,598.00
           C 667.00,598.00 657.00,598.00 657.00,598.00
             657.00,598.00 657.00,601.00 657.00,601.00
             657.00,601.00 667.00,601.00 667.00,601.00
             667.00,601.00 667.00,598.00 667.00,598.00 Z
           M 687.00,598.00
           C 687.00,598.00 677.00,598.00 677.00,598.00
             677.00,598.00 677.00,601.00 677.00,601.00
             677.00,601.00 687.00,601.00 687.00,601.00
             687.00,601.00 687.00,598.00 687.00,598.00 Z
           M 341.00,599.00
           C 341.00,599.00 315.00,599.00 315.00,599.00
             315.00,599.00 315.00,601.00 315.00,601.00
             315.00,601.00 341.00,601.00 341.00,601.00
             341.00,601.00 341.00,599.00 341.00,599.00 Z
           M 349.00,600.00
           C 349.00,600.00 345.00,599.00 345.00,599.00
             346.63,600.83 346.66,600.76 349.00,600.00 Z" />
</svg>
