<svg xmlns="http://www.w3.org/2000/svg" viewBox="0 0 150 150" width="150" height="150">
  <g fill="none" stroke-linecap="round" stroke-linejoin="round">
    <g stroke="#0055aa" stroke-width="1">
        <polygon points="20,50 50,20 100,20 130,50 130,100 100,130 50,130 20,100" stroke-dasharray="5 2"/>
        <rect x="45" y="15" width="10" height="10" stroke="#00aaff" stroke-width="2"/>
        <rect x="95" y="125" width="10" height="10" stroke="#00aaff" stroke-width="2"/>
    </g>

    <g transform="rotate(-45 75 75)">
        <g stroke="#ffaa00" stroke-width="1">
             <circle cx="120" cy="40" r="10" stroke-dasharray="4 2" stroke-width="2"/>
             <line x1="120" y1="25" x2="120" y2="55" />
             <line x1="105" y1="40" x2="135" y2="40" />
             <path d="M 40,75 C 40,75 80,75 110,50" stroke-dasharray="5 5" stroke-width="2"/>
        </g>

        <g stroke="#ffcc00" stroke-width="2">
            <rect x="30" y="65" width="50" height="20" /> 
            <line x1="45" y1="65" x2="45" y2="85" stroke-width="1" stroke-dasharray="2 2"/>
            <line x1="65" y1="65" x2="65" y2="85" stroke-width="1" stroke-dasharray="2 2"/>
            
            <polygon points="80,65 100,75 80,85" fill="none" stroke="#ff5500" stroke-width="2"/>
            <circle cx="100" cy="75" r="3" stroke="#ff5500"/>

            <polygon points="35,65 25,50 45,65" />
            <polygon points="35,85 25,100 45,85" />
            
            <path d="M 30,70 L 10,60 M 30,75 L 5,75 M 30,80 L 10,90" stroke="#ff5500" stroke-width="1" stroke-dasharray="3 3"/>
        </g>
    </g>
  </g>
</svg>