<?xml version="1.0" encoding="UTF-8" standalone="no"?>
<svg xmlns="http://www.w3.org/2000/svg"
     xmlns:svg="http://www.w3.org/2000/svg"
     version="1.1"
     width="19.5556in" height="10.6667in"
     viewBox="0 0 1408 768">
  <path id="Selection #1"
        fill="none" stroke="black" stroke-width="1"
        d="M 1072.00,455.00
           C 1062.29,464.50 1059.32,464.90 1049.00,472.02
             1046.38,473.84 1040.59,478.62 1038.00,479.33
             1034.82,480.20 1021.00,476.83 1017.00,476.00
             1017.00,476.00 970.00,466.66 970.00,466.66
             970.00,466.66 845.00,441.55 845.00,441.55
             845.00,441.55 806.00,433.60 806.00,433.60
             801.77,432.75 790.50,430.03 787.00,430.21
             787.00,430.21 774.00,431.83 774.00,431.83
             774.00,431.83 719.00,436.83 719.00,436.83
             719.00,436.83 667.00,441.83 667.00,441.83
             667.00,441.83 651.00,443.46 651.00,443.46
             651.00,443.46 631.00,449.57 631.00,449.57
             631.00,449.57 590.00,460.12 590.00,460.12
             590.00,460.12 507.00,478.21 507.00,478.21
             507.00,478.21 443.00,491.54 443.00,491.54
             443.00,491.54 409.00,494.09 409.00,494.09
             409.00,494.09 361.00,497.83 361.00,497.83
             361.00,497.83 342.00,498.98 342.00,498.98
             339.64,498.89 335.72,498.55 337.17,495.03
             338.52,491.75 349.63,484.65 353.00,482.28
             353.00,482.28 393.00,453.81 393.00,453.81
             393.00,453.81 415.00,438.45 415.00,438.45
             415.00,438.45 470.00,409.74 470.00,409.74
             470.00,409.74 530.00,378.25 530.00,378.25
             530.00,378.25 585.00,350.94 585.00,350.94
             585.00,350.94 624.00,324.00 624.00,324.00
             628.36,321.07 639.22,314.25 641.43,309.96
             641.43,309.96 646.42,292.00 646.42,292.00
             646.42,292.00 657.58,249.00 657.58,249.00
             658.88,244.32 661.13,230.62 664.31,227.85
             667.91,224.72 687.62,221.01 693.00,220.48
             698.65,219.92 713.51,228.87 719.00,232.00
             719.00,232.00 753.00,249.86 753.00,249.86
             753.00,249.86 775.00,261.84 775.00,261.84
             779.05,263.14 785.98,260.05 790.00,258.66
             794.69,257.03 803.39,253.54 808.00,253.12
             808.00,253.12 814.69,253.12 815.87,253.12
             815.98,253.12 816.05,253.12 816.05,253.12
             816.05,253.12 840.82,248.36 840.82,248.36
             840.82,248.36 842.73,248.50 842.73,248.50
             849.19,247.90 856.93,259.89 858.54,264.00
             859.64,266.83 860.57,269.94 860.24,273.00
             860.20,275.52 858.90,278.29 860.24,280.70
             861.46,283.39 869.08,287.63 872.00,290.18
             872.00,290.18 884.24,301.80 884.24,301.80
             886.16,303.89 888.65,307.76 891.09,309.03
             893.24,309.89 899.08,308.94 902.00,309.03
             903.79,309.10 906.33,309.47 908.00,309.03
             908.00,309.03 915.00,306.34 915.00,306.34
             915.00,306.34 928.00,303.40 928.00,303.40
             931.78,302.64 936.08,301.43 939.83,302.85
             951.77,307.37 960.33,326.57 952.99,337.91
             949.01,344.07 936.80,350.27 930.00,353.00
             930.00,353.00 930.00,355.00 930.00,355.00
             930.00,355.00 959.00,374.33 959.00,374.33
             959.00,374.33 1025.00,420.58 1025.00,420.58
             1025.00,420.58 1056.00,442.29 1056.00,442.29
             1056.00,442.29 1072.00,455.00 1072.00,455.00 Z
           M 728.00,240.00
           C 728.00,240.00 705.00,227.24 705.00,227.24
             705.00,227.24 694.00,222.39 694.00,222.39
             694.00,222.39 669.00,227.00 669.00,227.00
             669.00,227.00 664.17,275.00 664.17,275.00
             664.17,275.00 661.00,305.00 661.00,305.00
             666.56,305.57 680.86,300.22 687.00,298.42
             687.00,298.42 735.00,283.71 735.00,283.71
             735.00,283.71 754.00,272.00 754.00,272.00
             754.00,272.00 754.00,270.00 754.00,270.00
             754.00,270.00 733.00,256.33 733.00,256.33
             733.00,256.33 717.00,244.00 717.00,244.00
             717.00,244.00 728.00,240.00 728.00,240.00 Z
           M 668.00,227.00
           C 668.00,227.00 665.16,228.63 665.16,228.63
             660.26,239.06 659.09,251.65 656.12,263.00
             652.99,274.90 645.90,299.90 645.00,311.00
             648.15,310.28 657.97,307.97 659.69,305.49
             661.16,303.35 661.81,287.71 662.17,284.00
             662.17,284.00 665.83,248.00 665.83,248.00
             666.49,241.09 666.35,233.77 668.00,227.00 Z
           M 773.00,264.00
           C 768.57,260.47 761.12,256.98 756.00,254.14
             750.94,251.33 736.09,242.78 731.00,242.63
             728.12,242.54 723.80,244.09 721.00,245.00
             726.13,251.52 739.63,258.94 747.00,263.69
             749.87,265.54 754.68,269.33 758.00,269.52
             761.23,269.70 769.92,265.60 773.00,264.00 Z
           M 849.00,254.00
           C 847.15,253.15 846.12,252.52 844.00,252.31
             839.34,251.86 825.04,252.06 821.44,254.95
             821.44,254.95 828.50,259.99 828.50,259.99
             828.50,259.99 849.00,256.00 849.00,256.00
             849.00,256.00 849.00,254.00 849.00,254.00 Z
           M 811.00,258.00
           C 807.40,252.69 799.91,257.41 795.00,258.97
             795.00,258.97 771.00,267.06 771.00,267.06
             771.00,267.06 753.00,274.00 753.00,274.00
             753.00,274.00 752.00,275.00 752.00,275.00
             751.41,275.38 738.26,283.72 738.34,287.71
             738.34,287.97 753.13,278.35 753.20,278.56
             746.12,283.60 741.63,285.65 739.08,288.15
             738.41,288.82 742.53,289.99 742.81,289.91
             743.00,289.87 755.77,284.45 755.96,284.42
             756.21,284.38 743.88,289.72 744.12,289.68
             746.39,289.29 748.00,289.00 748.00,289.00
             748.00,289.00 764.00,287.00 764.00,287.00
             764.00,287.00 759.06,277.54 759.06,277.54
             759.06,277.54 752.94,274.34 753.09,274.03
             758.68,275.34 759.00,276.00 759.00,276.00
             759.00,276.00 772.00,271.05 772.00,271.05
             772.00,271.05 811.00,258.00 811.00,258.00 Z
           M 855.00,265.00
           C 854.33,262.76 853.75,260.38 851.61,259.03
             848.12,256.82 833.85,260.75 830.08,262.33
             830.94,264.65 834.46,268.61 836.63,269.97
             839.63,271.84 851.64,266.47 855.00,265.00 Z
           M 822.00,266.00
           C 819.13,256.35 812.32,259.28 805.00,261.67
             805.00,261.67 761.00,277.00 761.00,277.00
             764.02,287.29 769.38,286.72 778.00,285.93
             778.00,285.93 807.00,282.00 807.00,282.00
             807.00,282.00 826.61,274.50 826.61,274.50
             825.16,267.06 825.36,266.26 811.00,271.00
             811.00,271.00 785.00,279.67 785.00,279.67
             779.57,281.47 773.76,283.82 768.00,283.00
             768.00,283.00 822.00,266.00 822.00,266.00 Z
           M 856.00,267.00
           C 850.46,268.26 843.14,271.85 838.00,273.91
             842.24,276.01 854.91,281.44 856.67,273.91
             857.07,272.06 856.33,268.82 856.00,267.00 Z
           M 749.00,277.00M 862.00,288.00
           C 862.00,288.00 855.00,282.86 855.00,282.86
             855.00,282.86 840.00,282.86 840.00,282.86
             840.00,282.86 830.00,282.86 830.00,282.86
             830.00,282.86 821.00,283.99 821.00,283.99
             821.00,283.99 798.00,285.83 798.00,285.83
             798.00,285.83 724.00,294.43 724.00,294.43
             724.00,294.43 698.00,300.00 698.00,300.00
             700.01,303.68 701.79,304.81 705.00,307.40
             708.06,309.86 713.36,314.63 717.00,315.57
             722.32,316.93 739.79,311.42 746.00,310.01
             746.00,310.01 800.00,299.20 800.00,299.20
             800.00,299.20 862.00,288.00 862.00,288.00 Z
           M 733.00,287.00
           C 726.66,287.89 708.98,292.60 704.00,296.00
             708.19,295.91 726.76,292.98 729.78,291.02
             731.59,289.83 731.98,288.75 733.00,287.00 Z
           M 884.00,306.00
           C 881.88,301.52 871.14,290.00 866.00,290.06
             863.16,290.10 857.63,293.70 855.00,295.14
             855.00,295.14 835.00,304.69 835.00,304.69
             835.00,304.69 773.00,332.00 773.00,332.00
             766.33,334.84 747.33,341.86 743.00,346.00
             743.00,346.00 778.00,336.42 778.00,336.42
             778.00,336.42 852.00,315.26 852.00,315.26
             852.00,315.26 884.00,306.00 884.00,306.00 Z
           M 858.00,291.00
           C 846.81,291.10 825.54,295.61 814.00,298.00
             814.00,298.00 754.00,309.80 754.00,309.80
             754.00,309.80 729.00,315.87 729.00,315.87
             726.53,316.49 721.50,317.35 720.06,319.51
             718.64,321.57 719.69,325.65 720.06,328.00
             720.06,328.00 725.00,351.00 725.00,351.00
             725.00,351.00 761.00,336.09 761.00,336.09
             761.00,336.09 817.00,311.86 817.00,311.86
             817.00,311.86 844.00,299.25 844.00,299.25
             844.00,299.25 858.00,291.00 858.00,291.00 Z
           M 714.00,318.00
           C 710.53,313.38 697.79,302.38 692.00,301.88
             688.99,301.62 683.91,304.04 681.00,305.20
             681.00,305.20 658.00,314.76 658.00,314.76
             658.00,314.76 640.00,323.31 640.00,323.31
             617.80,335.31 597.09,349.22 576.00,363.00
             579.14,369.65 585.52,374.43 591.00,379.15
             592.90,380.78 595.27,383.36 598.00,383.10
             600.31,382.88 606.73,377.62 609.00,376.00
             609.00,376.00 635.00,357.67 635.00,357.67
             664.98,337.46 681.23,331.10 714.00,318.00 Z
           M 679.00,303.00
           C 671.24,304.09 648.67,310.86 642.00,314.26
             642.00,314.26 627.00,324.66 627.00,324.66
             621.28,328.55 612.46,334.03 608.00,339.00
             608.00,339.00 645.00,319.25 645.00,319.25
             645.00,319.25 679.00,303.00 679.00,303.00 Z
           M 885.10,306.73
           C 885.10,306.73 855.00,315.58 855.00,315.58
             855.00,315.58 765.00,341.29 765.00,341.29
             765.00,341.29 736.00,349.34 736.00,349.34
             733.20,350.22 727.75,351.21 726.69,354.22
             725.94,356.38 727.31,359.90 728.00,362.00
             728.00,362.00 733.14,377.00 733.14,377.00
             733.93,379.18 734.68,382.49 737.22,383.19
             739.60,383.85 750.17,379.80 753.00,378.78
             753.00,378.78 798.00,363.22 798.00,363.22
             802.57,361.59 814.50,358.15 818.00,356.00
             822.19,353.42 824.40,349.69 827.61,346.17
             827.61,346.17 843.10,332.74 843.10,332.74
             835.52,340.33 825.54,348.20 823.00,359.00
             829.96,354.99 838.55,336.72 843.26,332.63
             846.14,330.13 854.20,326.96 858.00,325.23
             858.00,325.23 889.73,311.03 889.73,311.03
             889.73,311.03 885.10,306.73 885.10,306.73 Z
           M 945.00,310.00
           C 943.62,308.39 943.10,307.41 940.96,306.60
             936.85,305.05 924.26,309.26 919.00,310.00
             924.95,320.57 936.62,314.34 945.00,310.00 Z
           M 903.00,311.00
           C 895.46,308.88 890.83,311.78 884.00,314.72
             884.00,314.72 860.00,325.29 860.00,325.29
             855.04,327.59 849.91,329.10 846.00,333.00
             852.84,335.79 856.68,331.68 863.00,328.86
             863.00,328.86 886.00,318.43 886.00,318.43
             891.16,316.22 898.51,313.92 903.00,311.00 Z
           M 928.00,350.00
           C 932.29,347.30 932.15,343.76 931.96,339.00
             931.49,327.36 923.70,311.43 911.00,310.00
             913.77,315.33 916.57,315.28 919.90,320.04
             926.64,329.68 928.27,338.57 928.00,350.00 Z
           M 916.00,319.00
           C 909.54,308.68 903.00,312.24 894.00,316.30
             894.00,316.30 853.00,335.00 853.00,335.00
             853.00,335.00 858.23,341.49 858.23,341.49
             858.23,341.49 916.00,319.00 916.00,319.00 Z
           M 932.00,328.00
           C 936.01,327.37 944.88,324.39 947.65,321.51
             950.35,318.69 949.01,314.68 945.87,313.78
             943.47,313.10 931.41,317.23 928.00,318.00
             928.00,318.00 932.00,328.00 932.00,328.00 Z
           M 926.67,343.61
           C 925.59,337.91 922.85,322.49 916.90,320.35
             913.90,319.27 904.29,324.08 901.00,325.40
             901.00,325.40 872.00,337.42 872.00,337.42
             872.00,337.42 859.00,343.00 859.00,343.00
             859.00,343.00 864.00,353.00 864.00,353.00
             864.00,353.00 868.17,352.01 868.17,352.01
             868.17,352.01 864.79,354.62 864.79,354.62
             864.79,354.62 867.03,371.16 867.03,371.16
             878.42,370.91 896.39,363.60 908.00,360.02
             911.28,359.01 922.29,355.86 924.43,353.92
             926.09,352.41 926.44,348.28 927.00,346.00
             927.00,346.00 886.00,360.00 886.00,360.00
             880.24,361.92 874.15,364.88 868.00,364.00
             868.00,364.00 926.67,343.61 926.67,343.61 Z
           M 723.00,352.00
           C 723.00,352.00 718.66,329.00 718.66,329.00
             718.15,326.62 717.87,322.43 715.57,321.11
             713.23,319.77 709.29,321.72 707.00,322.58
             707.00,322.58 687.00,330.42 687.00,330.42
             664.20,340.34 651.47,348.29 631.00,362.00
             623.33,367.14 611.32,374.74 606.00,382.00
             606.00,382.00 651.00,370.42 651.00,370.42
             651.00,370.42 723.00,352.00 723.00,352.00 Z
           M 951.00,323.00
           C 951.00,323.00 933.00,331.00 933.00,331.00
             933.00,331.00 934.00,340.00 934.00,340.00
             938.38,339.18 950.59,334.08 952.22,329.79
             953.17,327.29 952.00,325.21 951.00,323.00 Z
           M 868.16,352.01
           C 871.84,349.38 877.61,347.69 882.00,346.05
             882.00,346.05 906.00,336.80 906.00,336.80
             911.15,334.72 916.33,331.42 922.00,332.00
             916.84,335.74 891.51,344.90 884.00,347.68
             878.79,349.61 873.81,352.73 868.16,352.01 Z
           M 849.00,339.07
           C 847.69,333.01 843.17,334.19 839.90,338.06
             835.49,343.28 826.86,355.63 825.00,362.00
             825.00,362.00 847.00,341.00 847.00,341.00
             847.00,341.00 826.00,364.00 826.00,364.00
             833.73,361.74 847.45,351.83 853.75,346.80
             853.75,346.80 828.00,366.00 828.00,366.00
             828.00,366.00 843.00,363.00 843.00,363.00
             837.84,364.18 833.85,365.19 830.00,369.00
             830.00,369.00 836.00,370.00 836.00,370.00
             836.00,370.00 830.00,372.00 830.00,372.00
             838.26,373.09 846.64,374.71 855.00,373.72
             863.34,372.72 864.07,372.37 864.33,365.05
             864.33,365.05 860.21,365.87 860.21,365.87
             860.21,365.87 864.34,364.22 864.34,364.22
             864.33,359.84 864.93,357.63 861.00,355.00
             861.63,353.69 862.09,353.55 861.86,351.82
             861.47,348.85 855.61,340.33 852.90,339.07
             851.18,338.37 850.59,338.80 849.00,339.07 Z
           M 948.00,337.00
           C 942.29,338.63 935.88,340.95 934.00,347.00
             939.17,344.48 944.26,341.41 948.00,337.00 Z
           M 608.00,339.00 608.00,339.00 608.00,339.00 608.00,339.00
           M 724.00,355.00
           C 714.18,357.67 685.25,373.15 675.00,378.69
             675.00,378.69 614.00,410.00 614.00,410.00
             620.83,404.45 633.73,398.89 642.00,394.75
             642.00,394.75 686.00,371.88 686.00,371.88
             693.03,368.12 707.11,362.45 712.00,357.00
             706.16,356.24 686.98,362.38 680.00,364.13
             680.00,364.13 625.00,379.00 625.00,379.00
             616.73,381.37 606.64,383.29 599.00,387.00
             608.06,403.94 614.29,411.72 622.00,431.00
             622.00,431.00 653.00,418.86 653.00,418.86
             653.00,418.86 704.00,397.68 704.00,397.68
             704.00,397.68 725.00,389.15 725.00,389.15
             725.00,389.15 732.88,384.59 732.88,384.59
             732.88,384.59 731.35,376.00 731.35,376.00
             731.35,376.00 724.00,355.00 724.00,355.00 Z
           M 1006.00,412.00
           C 1001.60,406.15 990.36,398.71 984.00,394.34
             984.00,394.34 950.00,370.67 950.00,370.67
             945.60,367.72 932.12,357.60 928.00,356.75
             923.90,355.90 912.16,361.16 908.00,363.00
             912.46,367.16 925.22,374.82 931.00,378.42
             931.00,378.42 967.00,401.42 967.00,401.42
             971.49,404.24 988.13,415.45 992.00,416.25
             995.91,417.06 1002.31,413.56 1006.00,412.00 Z
           M 714.00,359.00 714.00,359.00 714.00,359.00 714.00,359.00
           M 819.00,358.00
           C 819.00,358.00 766.00,375.66 766.00,375.66
             758.92,378.11 744.38,381.84 739.00,386.00
             739.00,386.00 787.00,399.15 787.00,399.15
             791.67,400.43 804.97,404.77 809.00,404.87
             814.48,404.99 830.38,396.97 836.00,394.26
             836.00,394.26 871.00,378.42 871.00,378.42
             876.84,375.88 889.49,370.59 894.00,367.00
             879.72,368.20 869.17,375.03 848.00,375.00
             848.00,375.00 828.11,373.26 828.11,373.26
             824.08,371.54 819.48,362.20 819.00,358.00 Z
           M 860.15,355.50
           C 860.15,355.50 851.09,360.02 851.09,360.02
             851.09,360.02 860.15,355.50 860.15,355.50 Z
           M 843.09,363.04
           C 843.09,363.04 851.00,360.00 851.00,360.00
             851.00,360.00 843.09,363.04 843.09,363.04 Z
           M 1067.00,453.00
           C 1067.00,453.00 1030.00,426.58 1030.00,426.58
             1026.69,424.24 1013.81,414.77 1011.00,413.93
             1003.22,411.60 997.70,421.50 989.00,417.08
             989.00,417.08 976.00,408.60 976.00,408.60
             976.00,408.60 930.00,379.59 930.00,379.59
             926.10,377.11 909.02,365.88 906.00,365.20
             901.60,364.22 888.78,371.94 884.00,374.00
             884.00,374.00 837.00,395.69 837.00,395.69
             830.52,398.67 818.75,402.30 814.00,407.00
             814.00,407.00 838.00,413.12 838.00,413.12
             838.00,413.12 896.00,429.58 896.00,429.58
             896.00,429.58 994.00,457.57 994.00,457.57
             994.00,457.57 1027.00,466.71 1027.00,466.71
             1027.00,466.71 1039.00,470.00 1039.00,470.00
             1032.54,471.03 1026.17,468.14 1020.00,466.42
             1020.00,466.42 985.00,456.42 985.00,456.42
             985.00,456.42 859.00,420.72 859.00,420.72
             859.00,420.72 827.00,411.58 827.00,411.58
             823.81,410.67 813.73,407.57 811.00,407.79
             806.57,408.14 797.36,413.31 795.00,417.00
             795.00,417.00 824.00,424.13 824.00,424.13
             824.00,424.13 867.00,434.63 867.00,434.63
             867.00,434.63 980.00,462.37 980.00,462.37
             980.00,462.37 1023.00,473.19 1023.00,473.19
             1027.31,474.45 1037.42,477.27 1041.85,473.74
             1052.29,466.65 1053.40,465.94 1053.27,465.76
             1053.27,465.76 1060.02,461.30 1060.02,461.30
             1063.38,458.28 1060.31,461.16 1067.00,455.00
             1067.00,455.00 1067.00,453.00 1067.00,453.00 Z
           M 595.00,386.00
           C 590.86,380.22 585.16,375.88 580.00,371.04
             577.52,368.71 574.62,365.74 571.00,365.60
             567.97,365.48 561.92,368.33 559.00,369.58
             559.00,369.58 532.00,381.74 532.00,381.74
             532.00,381.74 451.00,422.14 451.00,422.14
             443.17,426.48 426.28,433.01 421.00,439.00
             421.00,439.00 427.04,444.19 427.04,444.19
             427.04,444.19 437.00,440.86 437.00,440.86
             437.00,440.86 463.00,428.25 463.00,428.25
             463.00,428.25 546.00,389.70 546.00,389.70
             546.00,389.70 569.00,379.02 569.00,379.02
             569.00,379.02 581.00,375.00 581.00,375.00
             581.00,375.00 529.00,398.74 529.00,398.74
             529.00,398.74 518.00,403.31 518.00,403.31
             518.00,403.31 473.00,424.30 473.00,424.30
             473.00,424.30 428.00,446.00 428.00,446.00
             429.44,448.79 431.72,453.37 435.09,454.08
             437.63,454.61 443.51,451.79 446.00,450.72
             446.00,450.72 471.00,439.99 471.00,439.99
             471.00,439.99 595.00,386.00 595.00,386.00 Z
           M 843.10,369.04
           C 843.10,369.04 855.35,366.73 855.35,366.73
             855.35,366.73 843.10,369.04 843.10,369.04 Z
           M 836.10,369.88
           C 836.10,369.88 843.00,369.00 843.00,369.00
             843.00,369.00 836.10,369.88 836.10,369.88 Z
           M 807.00,406.00
           C 807.00,406.00 759.00,392.57 759.00,392.57
             759.00,392.57 736.00,386.39 736.00,386.39
             736.00,386.39 726.00,389.99 726.00,389.99
             726.00,389.99 707.00,397.85 707.00,397.85
             707.00,397.85 657.00,418.60 657.00,418.60
             657.00,418.60 632.00,430.00 632.00,430.00
             632.00,430.00 675.00,426.00 675.00,426.00
             675.00,426.00 684.26,425.02 684.26,425.02
             684.26,425.02 707.00,423.17 707.00,423.17
             707.00,423.17 753.00,419.17 753.00,419.17
             753.00,419.17 791.00,415.20 791.00,415.20
             791.00,415.20 807.00,406.00 807.00,406.00 Z
           M 611.00,410.00
           C 611.00,410.00 601.27,394.00 601.27,394.00
             599.72,391.50 598.26,388.90 594.98,388.64
             592.12,388.42 583.97,392.31 581.00,393.58
             581.00,393.58 550.00,407.00 550.00,407.00
             550.00,407.00 484.00,435.58 484.00,435.58
             484.00,435.58 435.00,457.00 435.00,457.00
             435.00,457.00 439.81,473.00 439.81,473.00
             439.81,473.00 443.42,479.34 443.42,479.34
             443.42,479.34 457.00,476.71 457.00,476.71
             457.00,476.71 489.00,468.47 489.00,468.47
             489.00,468.47 570.00,447.29 570.00,447.29
             570.00,447.29 620.41,431.64 620.41,431.64
             620.41,431.64 614.85,418.00 614.85,418.00
             614.85,418.00 610.78,412.81 610.78,412.81
             610.78,412.81 600.00,415.67 600.00,415.67
             600.00,415.67 572.00,425.00 572.00,425.00
             572.00,425.00 481.00,455.74 481.00,455.74
             481.00,455.74 455.00,464.67 455.00,464.67
             455.00,464.67 441.00,468.00 441.00,468.00
             441.00,468.00 470.00,458.33 470.00,458.33
             470.00,458.33 531.00,438.00 531.00,438.00
             531.00,438.00 579.00,421.67 579.00,421.67
             579.00,421.67 611.00,410.00 611.00,410.00 Z
           M 848.00,416.00 848.00,416.00 848.00,416.00 848.00,416.00
           M 789.00,418.00
           C 789.00,418.00 768.00,419.83 768.00,419.83
             768.00,419.83 745.00,421.83 745.00,421.83
             745.00,421.83 722.00,424.04 722.00,424.04
             722.00,424.04 714.01,424.70 714.01,424.70
             714.01,424.70 701.00,425.83 701.00,425.83
             701.00,425.83 650.00,430.17 650.00,430.17
             650.00,430.17 623.00,433.00 623.00,433.00
             623.00,433.00 623.00,444.00 623.00,444.00
             623.00,444.00 645.00,441.91 645.00,441.91
             645.00,441.91 667.00,439.83 667.00,439.83
             667.00,439.83 705.79,435.92 712.05,435.49
             712.05,435.49 744.00,432.17 744.00,432.17
             744.00,432.17 789.00,428.00 789.00,428.00
             789.00,428.00 789.00,418.00 789.00,418.00 Z
           M 1000.00,469.00
           C 1000.00,469.00 981.00,464.37 981.00,464.37
             981.00,464.37 945.00,455.37 945.00,455.37
             945.00,455.37 856.00,433.63 856.00,433.63
             856.00,433.63 814.00,423.35 814.00,423.35
             814.00,423.35 791.16,418.16 791.16,418.16
             791.16,418.16 791.22,428.22 791.22,428.22
             791.22,428.22 886.00,448.00 886.00,448.00
             886.00,448.00 940.00,458.45 940.00,458.45
             940.00,458.45 982.00,467.00 982.00,467.00
             986.62,467.91 995.81,470.39 1000.00,469.00 Z
           M 621.00,433.00
           C 621.00,433.00 602.00,439.02 602.00,439.02
             602.00,439.02 483.00,471.15 483.00,471.15
             483.00,471.15 450.00,479.71 450.00,479.71
             447.04,480.53 439.08,482.46 443.03,487.25
             444.94,489.78 452.34,487.71 455.00,487.25
             455.00,487.25 488.00,480.21 488.00,480.21
             488.00,480.21 588.00,458.37 588.00,458.37
             593.40,457.02 611.07,453.42 614.68,450.92
             616.74,449.49 619.10,446.30 620.07,444.00
             621.34,440.99 621.00,436.32 621.00,433.00 Z
           M 431.00,457.00
           C 429.71,452.57 423.07,440.98 417.96,440.85
             414.49,440.75 405.23,448.12 402.00,450.34
             394.01,455.84 364.89,476.22 360.00,482.00
             366.12,480.21 371.45,476.35 377.00,473.30
             377.00,473.30 404.00,458.42 404.00,458.42
             409.45,455.30 417.87,449.05 424.00,449.00
             424.00,449.00 382.00,471.72 382.00,471.72
             382.00,471.72 359.00,486.00 359.00,486.00
             359.00,486.00 385.00,475.81 385.00,475.81
             385.00,475.81 431.00,457.00 431.00,457.00 Z
           M 635.00,445.00
           C 628.42,445.02 622.72,444.81 618.00,450.00
             623.26,449.26 630.69,448.07 635.00,445.00 Z
           M 432.38,458.91
           C 426.58,460.76 422.81,462.46 417.00,464.80
             417.00,464.80 386.00,477.40 386.00,477.40
             379.75,479.94 368.66,483.54 364.00,488.00
             364.00,488.00 385.00,482.87 385.00,482.87
             385.00,482.87 436.00,470.00 436.00,470.00
             436.00,470.00 432.38,458.91 432.38,458.91 Z
           M 437.01,471.67
           C 437.01,471.67 388.00,483.63 388.00,483.63
             388.00,483.63 359.00,492.00 359.00,492.00
             359.00,492.00 394.00,487.42 394.00,487.42
             394.00,487.42 440.00,481.00 440.00,481.00
             440.00,481.00 437.01,471.67 437.01,471.67 Z
           M 440.00,482.00
           C 440.00,482.00 388.00,489.72 388.00,489.72
             388.00,489.72 363.00,494.00 363.00,494.00
             363.00,494.00 378.00,494.00 378.00,494.00
             378.00,494.00 397.00,493.00 397.00,493.00
             397.00,493.00 423.00,491.04 423.00,491.04
             423.00,491.04 434.00,490.16 434.00,490.16
             440.28,489.44 441.88,488.89 440.00,482.00 Z
           M 815.92,253.23
           C 826.17,260.68 838.12,278.30 834.56,282.69M 808.42,284.94
           C 808.41,284.97 808.58,285.10 808.58,285.10
             813.39,281.84 822.07,278.10 827.92,278.86
             830.14,279.15 829.90,282.86 829.90,282.86" />
</svg>
