<?xml version="1.0" encoding="UTF-8" standalone="no"?>
<!-- Created with Inkscape (http://www.inkscape.org/) -->

<svg
   version="1.1"
   id="svg1"
   width="249.89333"
   height="520"
   viewBox="0 0 249.89333 520"
   sodipodi:docname="1184.eps"
   xmlns:inkscape="http://www.inkscape.org/namespaces/inkscape"
   xmlns:sodipodi="http://sodipodi.sourceforge.net/DTD/sodipodi-0.dtd"
   xmlns="http://www.w3.org/2000/svg"
   xmlns:svg="http://www.w3.org/2000/svg">
  <defs
     id="defs1" />
  <sodipodi:namedview
     id="namedview1"
     pagecolor="#ffffff"
     bordercolor="#000000"
     borderopacity="0.25"
     inkscape:showpageshadow="2"
     inkscape:pageopacity="0.0"
     inkscape:pagecheckerboard="0"
     inkscape:deskcolor="#d1d1d1">
    <inkscape:page
       x="0"
       y="0"
       inkscape:label="1"
       id="page1"
       width="249.89333"
       height="520"
       margin="0"
       bleed="0" />
  </sodipodi:namedview>
  <g
     id="g1"
     inkscape:groupmode="layer"
     inkscape:label="1">
    <g
       id="group-R5">
      <path
         id="path2"
         d="m 1874.22,920.789 -0.45,3.34 c -0.93,4.59 -20.62,101.211 -38.29,184.841 -11.72,55.48 -86.37,120.23 -94.85,127.43 l -187.52,162.69 v 2.66 l 0.45,1350.6 c 0,3.43 -0.86,6.89 -2.56,10.15 l -0.4,0.97 c -68.56,221.25 -99.43,320.16 -110.11,352.76 l -1.77,5.39 0.1,0.04 -2.74,8.39 c -1.12,3.46 -3.26,6.49 -6.19,8.77 -7.56,6.51 -18.61,10.14 -30.55,10.14 -12.2,0 -23.42,-3.77 -30.76,-10.33 -3.04,-2.54 -5.19,-5.82 -6.23,-9.39 l -0.72,-2.63 c -7.07,-20.41 -32.51,-101.79 -113.57,-363.18 l -0.39,-0.96 c -1.7,-3.26 -2.55,-6.7 -2.55,-10.23 l 0.1,-311.88 h -13.41 l -0.06,537.84 c -3.32,277.97 -8.33,698.04 -284.914,912.79 l -11.617,9.01 -11.387,-9.3 C 634.43,3654.57 640.047,3188.76 642.742,2964.9 l -0.043,-524.54 h -14.015 l 0.113,311.88 c 0,3.54 -0.859,7 -2.559,10.26 l -0.398,0.97 c -69.738,225.04 -99.578,320.65 -110.11,352.76 l -1.777,5.43 0.074,0.02 -2.707,8.36 c -1.129,3.47 -3.269,6.51 -6.195,8.79 -7.559,6.5 -18.609,10.13 -30.543,10.13 -12.211,0 -23.426,-3.77 -30.769,-10.33 -3.028,-2.54 -5.188,-5.82 -6.227,-9.39 l -0.723,-2.64 c -7.097,-20.51 -32.543,-101.88 -113.558,-363.16 l -0.399,-0.97 c -1.687,-3.25 -2.547,-6.69 -2.547,-10.23 L 320.793,1398.88 133.738,1236.59 C 125.203,1229.33 50.3867,1164.35 38.6836,1108.97 22.5625,1032.69 4.03125,941.98 0.480469,924.57 L 0.207031,923.23 -0.00390625,836.879 18.8398,733.25 321.02,704.898 321.121,380.449 241.285,222.352 c -0.515,-1.114 -1.836,-6.321 -1.836,-8.043 0,-38.36 50.813,-59.188 93.434,-69.918 l 7.043,-1.762 -3.254,-6.5 C 309.27,81.4297 306.41,75.6289 306.043,74.1094 305.379,71.2891 305.379,70.4297 305.379,69.9102 305.379,24.0117 390.496,0 474.582,0 530.34,0 636.227,13.6094 643.223,64.8086 l 0.211,2.2422 c 0.254,2.4609 0.214,5.1094 0.074,5.9297 -0.563,3.3398 -0.965,5.7383 -29.949,63.9495 l -3.2,6.429 6.95,1.813 c 41.273,10.75 90.476,31.476 90.476,69.137 0,1.281 -0.742,5.031 -1.527,7.23 l -0.156,0.441 c -5.329,13.52 -31.372,66.668 -77.446,158.04 l -0.625,1.242 0.071,229.879 h 20.074 l -1.356,-6.942 c -0.351,-1.808 -0.527,-3.629 -0.527,-5.449 0,-7.559 2.996,-14.801 8.68,-20.949 l 1.875,-2.02 -9.95,-72.051 c -0.21,-1.179 -0.605,-3.648 -0.605,-5.671 0,-22.477 43.992,-34.868 123.891,-34.868 58.011,0 96.332,6.188 113.882,18.411 l 8.379,5.828 0.762,-10.168 c 3.5,-46.582 6.449,-77.793 8.777,-92.774 6.118,-39.449 11.852,-63.937 23.051,-72.308 l 2.348,-1.75 v -2.149 l 19.644,0.051 v 2.098 l 2.336,1.75 c 11.2,8.379 16.942,32.859 23.067,72.308 2.324,14.973 5.285,46.133 8.769,92.633 l 0.762,10.117 8.359,-5.758 c 17.64,-12.128 55.89,-18.289 113.7,-18.289 81.34,0 109.67,12.469 119.1,22.918 l 2.21,2.43 4.18,-0.801 -12.16,88.032 1.88,2.031 c 5.68,6.148 8.69,13.39 8.69,20.949 0,0.68 -0.06,1.371 -0.14,2.07 -0.12,1.399 -0.29,2.578 -0.53,3.731 l -1.43,7 h 19.99 l 0.08,-231.102 -80.54,-160.051 c -0.22,-0.687 -0.34,-1.296 -0.45,-1.769 -0.18,-0.719 -0.31,-1.231 -0.43,-1.887 l -0.25,-1.031 v -1.402 c 0,-38.36 50.77,-59.18 93.37,-69.911 l 7.06,-1.769 -32.55,-64.4493 c -0.69,-1.3711 -1.96,-6.7188 -1.96,-8.2695 C 1230.14,24.0117 1315.26,0 1399.34,0 c 55.83,0 161.93,13.6484 168.67,65.0117 l 0.19,2.0274 c 0.25,2.3398 0.23,5.0195 0.07,5.9531 -0.56,3.3281 -0.97,5.7383 -29.95,63.9378 l -3.2,6.429 6.95,1.813 c 41.28,10.75 90.48,31.476 90.48,69.137 0,0.3 -0.01,0.582 -0.03,0.863 l -0.05,0.508 0.04,0.429 -0.24,1.34 c -0.09,0.571 -0.41,1.699 -0.8,2.832 l -0.64,1.801 c -5.25,13.316 -31.31,66.5 -77.41,157.938 l -0.63,1.242 0.1,323.617 302.48,28.371 18.59,100.922 0.26,86.617"
         style="fill:#262525;fill-opacity:1;fill-rule:nonzero;stroke:none"
         transform="matrix(0.13333333,0,0,-0.13333333,0,520)" />
      <path
         id="path3"
         d="m 1860.1,922.07 c -0.07,0 -20.24,99.07 -38.21,184.03 -10.95,51.84 -89.57,119.15 -90.37,119.83 l -192.28,166.83 0.43,1358.94 c 0.02,2.07 -0.44,3.57 -1.39,5.11 l -0.47,1.04 c -92.42,298.24 -110.76,356.15 -115.13,367.58 l -0.72,1.89 c -0.25,0.28 -0.51,0.49 -0.74,0.66 -5.13,4.56 -13.17,7.1 -21.88,7.1 -8.84,0 -16.94,-2.6 -21.68,-6.96 -0.52,-0.42 -0.93,-0.85 -1.27,-1.29 l -0.59,-1.87 c -4.61,-12.25 -22.67,-69.56 -114.93,-367.11 l -0.47,-1.03 c -0.94,-1.55 -1.4,-3.05 -1.4,-4.58 l 0.1,-325.76 h -41.17 l -0.07,551.56 c -3.29,275.3 -8.25,691.35 -279.528,901.98 l -2.891,2.25 -2.832,-2.32 C 648.391,3648.05 653.953,3186.63 656.625,2964.89 l -0.047,-538.41 h -41.781 l 0.101,325.22 c 0.016,2.07 -0.441,3.57 -1.382,5.11 l -0.469,1.04 C 520.629,3056.09 502.281,3114 497.918,3125.43 l -0.723,1.89 c -0.25,0.28 -0.511,0.49 -0.742,0.66 -5.121,4.56 -13.16,7.1 -21.875,7.1 -8.844,0 -16.941,-2.6 -21.676,-6.96 -0.531,-0.42 -0.945,-0.85 -1.269,-1.29 l -0.602,-1.87 c -4.605,-12.25 -22.664,-69.56 -114.933,-367.11 l -0.465,-1.03 c -0.938,-1.55 -1.399,-3.05 -1.399,-4.58 L 334.68,1392.55 142.738,1226.01 C 141.902,1225.31 63.2109,1157.92 52.2695,1106.1 36.1797,1030.01 17.668,939.391 14.1289,922 l -0.2461,-7.641 V 836.371 L 30.5742,746.102 334.895,717.539 335.004,377.148 253.34,213.68 c 0.594,-25.129 37.398,-46.961 101.18,-59.961 l 5.91,-1.199 -41.121,-82.5786 -0.043,-0.7109 c 1.004,-34.6602 79.453,-55.3516 155.312,-55.3516 74.043,0 152.27,20.2695 155.039,54.1914 0,0 -4.914,15.5508 -36.996,79.7387 l -2.66,5.332 5.824,1.23 c 62.356,13.188 98.113,35.02 98.113,59.938 -0.078,0.382 -33.085,71.16 -79.261,162.66 l -0.492,0.98 0.097,313.41 9.203,-0.89 0.278,-4.207 v -56.633 c 0,-2.539 2.066,-4.609 4.601,-4.609 h 37.11 l -4.223,-20.711 c -0.75,-2.258 -1.047,-3.918 -1.047,-5.559 0,-7.039 5.059,-12.211 9.301,-15.301 l 2.226,-1.609 c 0,0 -11.527,-83.27 -11.527,-83.781 0,-11.571 49.356,-20.977 110.02,-20.977 60.66,0 110.015,9.406 110.015,20.977 -0.109,-0.168 -0.183,0.179 -0.25,0.601 l -5.781,43.301 6.18,-1.02 c 6.125,-1.031 12.39,-1.882 18.644,-2.519 l 3.852,-0.402 0.265,-3.872 c 4.993,-74.937 9.461,-127.328 12.586,-147.527 8.2,-52.769 14.434,-63.91 21.282,-64.391 l 0.253,-0.019 0.2,0.019 c 6.843,0.481 13.086,11.622 21.289,64.399 3.117,20.09 7.586,72.5 12.586,147.531 l 0.265,3.871 3.86,0.399 c 6.179,0.629 12.371,1.441 18.425,2.461 l 6.185,1.031 -4.622,-33.352 0.352,0.231 -1.797,-11.242 c 0.039,-11.071 49.397,-20.477 110.047,-20.477 60.67,0 110.01,9.406 110.01,20.977 -0.09,-0.2 -0.17,0.16 -0.23,0.543 l -1.04,6.386 0.36,-0.058 -10.61,76.89 2.21,1.621 c 4.25,3.09 9.31,8.258 9.31,15.309 l -0.11,1.129 c -0.06,0.902 -0.21,1.75 -0.43,2.57 l -3.88,22.992 h 33.3 c 2.54,0 4.6,2.059 4.6,4.598 v 60.121 l 12.16,1.141 0.09,-314.153 -81.66,-163.507 c 0.63,-25.11 37.43,-46.93 101.18,-59.922 l 5.91,-1.199 -41.11,-82.5786 -0.05,-0.6719 c 0.95,-34.6797 79.42,-55.3906 155.31,-55.3906 74.04,0 152.27,20.2695 155.03,54.1914 0,0 -4.89,15.5313 -37,79.7387 l -2.66,5.332 5.82,1.23 c 62.37,13.188 98.14,35.02 98.14,59.938 -0.09,0.382 -33.1,71.152 -79.27,162.66 l -0.5,0.98 0.11,339.571 304.61,28.582 16.79,91.109 -0.31,84.859"
         style="fill:#ffffff;fill-opacity:1;fill-rule:nonzero;stroke:none"
         transform="matrix(0.13333333,0,0,-0.13333333,0,520)" />
      <path
         id="path4"
         d="m 487.891,2990.25 -13.313,70.06 11.188,-70.03 c 0.707,-0.01 1.418,-0.03 2.125,-0.03"
         style="fill:#262525;fill-opacity:1;fill-rule:nonzero;stroke:none"
         transform="matrix(0.13333333,0,0,-0.13333333,0,520)" />
      <path
         id="path5"
         d="m 438.344,2992.42 23.773,92.14 -25.863,-91.89 c 0.676,-0.09 1.367,-0.17 2.09,-0.25"
         style="fill:#262525;fill-opacity:1;fill-rule:nonzero;stroke:none"
         transform="matrix(0.13333333,0,0,-0.13333333,0,520)" />
      <path
         id="path6"
         d="m 495.883,2746.89 -16.516,204.13 12.395,-204.26 c 1.375,0.04 2.754,0.09 4.121,0.13"
         style="fill:#262525;fill-opacity:1;fill-rule:nonzero;stroke:none"
         transform="matrix(0.13333333,0,0,-0.13333333,0,520)" />
      <path
         id="path7"
         d="M 434.512,2929.97 401.398,2749.2 c 1.223,-0.14 2.477,-0.26 3.715,-0.39 l 29.399,181.16"
         style="fill:#262525;fill-opacity:1;fill-rule:nonzero;stroke:none"
         transform="matrix(0.13333333,0,0,-0.13333333,0,520)" />
      <path
         id="path8"
         d="m 973.492,3817.46 c -10.777,11.99 -21.347,23.14 -31.519,33.83 0,0 6.043,-11.95 15.386,-33.83 6.528,0 12.114,0 16.133,0"
         style="fill:#262525;fill-opacity:1;fill-rule:nonzero;stroke:none"
         transform="matrix(0.13333333,0,0,-0.13333333,0,520)" />
      <path
         id="path9"
         d="m 992.906,3597.58 c 10.414,-60.13 16.564,-121.02 21.664,-182.09 9.11,-122.3 12.22,-245.28 13.63,-368.25 0.38,-34.84 0.59,-69.7 0.71,-104.56 7,0.11 13.89,0.24 20.82,0.4 l -0.17,104.36 c -1,123.21 -3.51,246.53 -12.74,369.8 -4.77,61.6 -12.17,123.28 -25.23,184.04 -6.74,30.33 -14.992,60.31 -24.863,89.64 -9.942,29.3 -21.102,58.02 -32.754,86.66 5.871,-30.36 12.988,-60.43 20.078,-90.28 7.137,-29.84 13.152,-59.76 18.855,-89.72"
         style="fill:#262525;fill-opacity:1;fill-rule:nonzero;stroke:none"
         transform="matrix(0.13333333,0,0,-0.13333333,0,520)" />
      <path
         id="path10"
         d="m 778.879,3616.19 c -24.977,-57.5 -41.356,-118.33 -52.824,-179.6 -22.727,-122.8 -30.032,-247.37 -33.649,-371.52 -0.98,-35.63 -1.422,-71.3 -1.613,-106.94 4.68,-0.69 9.371,-1.4 14.039,-2.04 0.297,36.22 0.797,72.42 1.84,108.58 3.875,123.72 11.558,247.74 34.016,369.15 11.531,60.57 26.816,120.46 49.832,177.5 22.093,57.46 55.195,110.14 82.164,166.26 -16.895,-26.09 -34.141,-51.81 -50.465,-78.36 -16.031,-26.68 -30.934,-54.28 -43.34,-83.03"
         style="fill:#262525;fill-opacity:1;fill-rule:nonzero;stroke:none"
         transform="matrix(0.13333333,0,0,-0.13333333,0,520)" />
      <path
         id="path11"
         d="m 994.969,2942.34 c 4.863,0.02 9.561,0.06 14.171,0.1 l -0.05,48.16 c -0.53,120.01 -2.06,240.08 -8.56,360.08 -3.178,60 -8.092,119.99 -16.206,179.63 -8.047,59.69 -20.574,118.64 -36.484,176.55 39.797,-236.75 45.32,-476.52 47.019,-716.34 0.102,-16.05 0.051,-32.13 0.11,-48.18"
         style="fill:#262525;fill-opacity:1;fill-rule:nonzero;stroke:none"
         transform="matrix(0.13333333,0,0,-0.13333333,0,520)" />
      <path
         id="path12"
         d="m 1412.65,2990.25 -13.31,70.06 11.19,-70.03 c 0.71,-0.01 1.42,-0.03 2.12,-0.03"
         style="fill:#262525;fill-opacity:1;fill-rule:nonzero;stroke:none"
         transform="matrix(0.13333333,0,0,-0.13333333,0,520)" />
      <path
         id="path13"
         d="m 1386.87,3084.56 -25.86,-91.89 c 0.68,-0.09 1.37,-0.17 2.09,-0.25 l 23.77,92.14"
         style="fill:#262525;fill-opacity:1;fill-rule:nonzero;stroke:none"
         transform="matrix(0.13333333,0,0,-0.13333333,0,520)" />
      <path
         id="path14"
         d="m 1420.64,2746.89 -16.51,204.13 12.39,-204.26 c 1.38,0.04 2.76,0.09 4.12,0.13"
         style="fill:#262525;fill-opacity:1;fill-rule:nonzero;stroke:none"
         transform="matrix(0.13333333,0,0,-0.13333333,0,520)" />
      <path
         id="path15"
         d="m 1359.27,2929.97 -33.11,-180.77 c 1.22,-0.14 2.48,-0.26 3.72,-0.39 l 29.39,181.16"
         style="fill:#262525;fill-opacity:1;fill-rule:nonzero;stroke:none"
         transform="matrix(0.13333333,0,0,-0.13333333,0,520)" />
      <path
         id="path16"
         d="m 1276.51,419.59 c 0,0.051 0,0.082 0,0.129 22.81,-9.25 67.66,-15.848 122.83,-15.848 60.68,0 102.19,7.617 122.68,15.66 1.06,0.43 2.08,0.891 3.09,1.348 V 375.91 c -1.01,-1.078 -2.82,-2.238 -5.39,-3.469 l -0.03,35.457 c -8.43,-6.429 -19.94,-11.207 -33.47,-14.687 l 0.07,-30.07 c -3.55,-0.653 -7.33,-1.27 -11.31,-1.852 l -0.07,29.43 c -11.11,-2.149 -23.18,-3.598 -35.73,-4.52 l -0.07,-28.668 c -3.36,-0.23 -6.86,-0.41 -10.39,-0.582 l -0.04,28.602 c -5.9,-0.301 -11.86,-0.492 -17.84,-0.59 l -0.03,-28.582 c -3.69,-0.059 -7.41,-0.117 -11.26,-0.117 -26.26,0 -48.85,1.578 -67.45,3.937 l -0.04,30.281 c -6.2,1.098 -12.18,2.348 -17.83,3.782 l -0.04,-31.364 c -2.48,0.442 -4.85,0.891 -7.11,1.364 l -0.06,31.949 c -10.65,3.109 -19.85,6.84 -26.81,11.211 l -0.06,-35.363 c -3.35,1.511 -5.59,2.961 -6.58,4.25 v 44.57 c 0.96,-0.438 1.93,-0.879 2.94,-1.289 z m 242.95,180.332 c 2.14,-2.363 4.06,-4.613 5.65,-6.652 v -19.879 c -0.02,-0.141 -0.1,-0.262 -0.12,-0.391 -0.84,-1.129 -2.77,-2.398 -5.49,-3.719 z m -120.12,-65.051 c 60.57,0 102.03,7.609 122.56,15.629 1.11,0.449 2.16,0.91 3.21,1.379 v -44 c -0.02,-0.141 -0.1,-0.25 -0.12,-0.391 -0.83,-1.117 -2.73,-2.367 -5.42,-3.679 l -0.04,34.98 c -8.47,-6.418 -20.04,-11.18 -33.62,-14.641 l 0.06,-29.726 c -3.53,-0.641 -7.32,-1.262 -11.29,-1.832 l -0.07,29.082 c -10.94,-2.102 -22.8,-3.543 -35.14,-4.442 l -0.06,-28.332 c -3.51,-0.238 -7.15,-0.429 -10.85,-0.609 l -0.04,28.25 c -5.79,-0.277 -11.65,-0.469 -17.53,-0.57 l -0.03,-28.258 c -3.8,-0.063 -7.65,-0.109 -11.62,-0.109 -26.25,0 -48.82,1.558 -67.4,3.886 l -0.04,30.024 c -6.09,1.09 -11.96,2.32 -17.52,3.707 l -0.04,-31.09 c -2.6,0.461 -5.11,0.941 -7.49,1.422 l -0.06,31.738 c -10.06,2.941 -18.83,6.461 -25.61,10.539 1.18,3.313 2.43,6.633 3.76,9.953 24.49,-7.66 65.31,-12.91 114.4,-12.91 z m 75.02,96.719 c 4,-1.699 7.77,-3.5 11.3,-5.418 v -0.781 c -3.53,-0.641 -7.31,-1.25 -11.28,-1.84 z m -45.98,11.121 c 3.86,-0.332 7.76,-0.641 11.37,-1.211 l -0.05,-21.559 c -3.65,-0.25 -7.43,-0.461 -11.29,-0.64 z m -91.33,-20.82 c 13.45,10.089 29.19,17.257 47.76,19.738 9.36,1.25 18.01,1.66 26.33,1.723 l -0.03,-24.614 c -3.85,-0.078 -7.74,-0.129 -11.77,-0.129 -23.87,0 -44.72,1.301 -62.29,3.282 z m 62.29,-21.512 c 48.86,0 85.09,4.973 108.14,11.09 3.64,-3.071 6.76,-6.071 9.55,-8.981 -8.23,-5.539 -18.93,-9.75 -31.28,-12.867 l 0.07,-29.723 c -3.54,-0.628 -7.32,-1.25 -11.29,-1.828 l -0.07,29.078 c -10.86,-2.078 -22.61,-3.5 -34.83,-4.41 l -0.07,-28.328 c -3.59,-0.238 -7.3,-0.441 -11.08,-0.621 l -0.03,28.262 c -5.75,-0.281 -11.55,-0.473 -17.38,-0.582 l -0.03,-28.25 c -3.83,-0.071 -7.7,-0.11 -11.7,-0.11 -26.29,0 -48.88,1.571 -67.48,3.911 l -0.04,30.019 c -6.03,1.082 -11.84,2.301 -17.36,3.672 l -0.04,-31.082 c -2.67,0.473 -5.24,0.961 -7.68,1.453 l -0.04,28.348 c 0.64,0.949 1.31,1.89 1.97,2.832 3.37,4.726 6.94,9.277 10.79,13.558 22.22,-3.371 49.38,-5.441 79.88,-5.441 z m -125.77,-92.5 v 5.801 c 1.96,7.14 4.24,14.539 6.87,22.039 l -0.06,-32.547 c -1.05,0.457 -1.98,0.918 -2.8,1.367 -1.91,1.051 -3.22,2.039 -3.9,2.949 -0.01,0.141 -0.09,0.25 -0.11,0.391 z m 2.94,-22.789 c 0,0.058 0,0.082 0,0.129 22.81,-9.25 67.66,-15.848 122.83,-15.848 60.69,0 102.21,7.629 122.69,15.668 1.06,0.43 2.08,0.883 3.08,1.34 v -44.008 c -0.02,-0.133 -0.1,-0.242 -0.12,-0.383 -0.82,-1.109 -2.7,-2.347 -5.34,-3.648 l -0.04,35 c -8.45,-6.418 -19.98,-11.192 -33.55,-14.66 l 0.07,-29.731 c -3.53,-0.648 -7.32,-1.258 -11.31,-1.847 l -0.06,29.089 c -11.02,-2.121 -22.98,-3.562 -35.44,-4.48 l -0.05,-28.332 c -3.45,-0.231 -7.01,-0.418 -10.63,-0.59 l -0.04,28.25 c -5.84,-0.289 -11.75,-0.469 -17.68,-0.578 l -0.03,-28.242 c -3.78,-0.071 -7.6,-0.129 -11.55,-0.129 -26.21,0 -48.76,1.558 -67.32,3.898 L 1331.98,456 c -6.14,1.09 -12.07,2.332 -17.68,3.75 l -0.03,-31.109 c -2.54,0.449 -4.99,0.91 -7.31,1.39 l -0.05,31.719 c -10.54,3.082 -19.67,6.781 -26.58,11.102 l -0.06,-35.133 c -0.99,0.441 -1.9,0.883 -2.69,1.312 -1.91,1.051 -3.22,2.039 -3.9,2.957 -0.01,0.141 -0.09,0.25 -0.11,0.383 v 44.008 c 0.96,-0.438 1.93,-0.867 2.94,-1.289 z m 323.72,-281.078 -71.44,147.109 c -7,-10.18 -19.88,-17.422 -36.39,-22.391 l 44.06,-156.16 c -5.73,-1.558 -11.81,-3.039 -18.2,-4.429 l -36.03,157.91 c -10.93,-2.52 -23,-4.289 -35.7,-5.461 l 35.45,-158.731 c -9.81,-1.32 -20.2,-2.39 -31.03,-3.238 l -18.84,160.891 c -5.95,-0.34 -11.99,-0.551 -18.04,-0.703 l 18.51,-161.348 c -11.01,-0.551 -22.31,-0.93 -34.19,-0.93 -54.93,0 -100.67,6.231 -135.05,15.239 l 60.75,154.031 c -6.21,1.289 -12.1,2.75 -17.62,4.39 l -60.85,-153.222 c -6.39,2.101 -12.15,4.312 -17.45,6.57 l 69.67,149.473 c -10.04,3.597 -18.27,7.879 -23.82,12.847 l -70.01,-148.89 c -6.95,5.363 -10.9,10.73 -11.59,15.742 l 73.81,146.141 c 3.19,-2.051 7.09,-3.864 11.3,-5.532 l -0.08,-0.16 c 6.95,-2.73 15.83,-5.219 26.35,-7.371 l 0.04,0.082 c 2.71,-0.551 5.44,-1.082 8.25,-1.551 l -0.04,-0.09 c 5.7,-0.992 11.8,-1.89 18.25,-2.679 l 0.04,0.109 c 24.97,-3 49.48,-3.762 61.99,-3.949 2.28,-0.02 4.52,-0.063 6.84,-0.063 0.07,0 0.17,0 0.24,0 2.97,0 5.81,0.051 8.69,0.082 1.16,0.02 2.46,0.051 3.79,0.079 v -0.039 c 6.24,0.109 12.22,0.332 18.01,0.589 l -0.01,0.11 c 3.94,0.191 8.14,0.461 12.49,0.75 l 0.03,-0.149 c 13.37,0.918 25.39,2.219 36,3.801 l -0.02,0.07 c 3.22,0.469 6.4,0.989 9.57,1.539 l 0.01,-0.058 c 17.65,3.16 30.66,7.047 38.78,10.906 l -0.07,0.141 c 2.21,1.062 4.31,2.179 6.18,3.371 27.89,-55.418 66.61,-133.219 71.59,-145.59 -0.27,-2.98 -1.68,-6.07 -4.22,-9.238 z m -65.18,-144.762 -38.99,85.969 c 2.25,0.351 4.48,0.722 6.71,1.101 0.04,-0.109 0.03,-0.218 0.08,-0.32 28.56,-57.0781 35.92,-72.8594 37.79,-77.1992 -0.37,-3.0625 -2.2,-6.2891 -5.59,-9.5508 z m -276.93,9.0508 15.29,30.2578 c 47.53,30.9214 102.14,36.9724 204.82,-8.457 l 9.49,-52.3907 c -23.06,-5.9609 -52.89,-10.0195 -88.38,-10.0195 -85.06,0 -138.13,23.1289 -141.22,40.6094 z M 351.746,419.59 c 0,0.051 0,0.07 0,0.129 22.813,-9.25 67.66,-15.848 122.836,-15.848 60.676,0 102.188,7.617 122.676,15.66 1.066,0.43 2.082,0.891 3.082,1.348 V 375.91 c -1,-1.078 -2.809,-2.238 -5.375,-3.469 l -0.039,35.457 c -8.43,-6.429 -19.934,-11.207 -33.473,-14.687 l 0.074,-30.07 c -3.547,-0.653 -7.332,-1.27 -11.312,-1.852 l -0.07,29.43 c -11.11,-2.149 -23.172,-3.598 -35.735,-4.52 l -0.062,-28.668 c -3.364,-0.23 -6.856,-0.41 -10.395,-0.582 l -0.035,28.602 c -5.898,-0.301 -11.859,-0.492 -17.84,-0.59 l -0.035,-28.582 c -3.691,-0.059 -7.41,-0.117 -11.254,-0.117 -26.266,0 -48.848,1.578 -67.453,3.937 l -0.031,30.281 c -6.207,1.098 -12.184,2.348 -17.84,3.782 l -0.039,-31.364 c -2.477,0.442 -4.848,0.891 -7.113,1.364 l -0.055,31.949 c -10.649,3.109 -19.852,6.84 -26.805,11.211 l -0.058,-35.363 c -3.352,1.511 -5.598,2.961 -6.59,4.25 v 44.57 c 0.961,-0.438 1.925,-0.879 2.941,-1.289 z m 243.035,109.922 c 2.106,-6.442 3.946,-12.762 5.559,-18.883 v -2.75 c -0.016,-0.141 -0.098,-0.25 -0.113,-0.391 -0.836,-1.117 -2.727,-2.367 -5.414,-3.679 z M 351.746,485.09 c 0,0.058 0,0.082 0,0.129 22.813,-9.25 67.66,-15.848 122.836,-15.848 60.684,0 102.203,7.629 122.688,15.668 1.062,0.43 2.074,0.883 3.07,1.34 v -44.008 c -0.016,-0.133 -0.098,-0.242 -0.113,-0.383 -0.825,-1.109 -2.692,-2.347 -5.34,-3.648 l -0.039,35.012 c -8.45,-6.43 -19.989,-11.204 -33.551,-14.672 l 0.074,-29.731 c -3.543,-0.648 -7.328,-1.258 -11.308,-1.847 L 550,456.191 c -11.027,-2.121 -22.988,-3.562 -35.437,-4.48 L 514.5,423.379 c -3.441,-0.231 -7.004,-0.418 -10.625,-0.59 l -0.035,28.25 c -5.844,-0.289 -11.75,-0.469 -17.684,-0.578 l -0.035,-28.242 c -3.777,-0.071 -7.598,-0.129 -11.543,-0.129 -26.211,0 -48.762,1.558 -67.32,3.898 L 407.223,456 c -6.153,1.09 -12.075,2.332 -17.68,3.75 l -0.039,-31.109 c -2.543,0.449 -4.984,0.91 -7.305,1.39 l -0.054,31.719 c -10.54,3.082 -19.668,6.781 -26.582,11.102 l -0.055,-35.133 c -0.992,0.441 -1.903,0.883 -2.692,1.312 -1.91,1.051 -3.218,2.039 -3.898,2.957 -0.008,0.141 -0.094,0.25 -0.113,0.383 v 44.008 c 0.961,-0.438 1.925,-0.867 2.941,-1.289 z m 151.875,153.172 c 3.914,-1.153 7.715,-2.481 11.356,-4.051 l -0.032,-14.27 c -3.66,-0.25 -7.437,-0.461 -11.304,-0.64 z m -96.609,-3.391 c 20.652,7.27 46.801,11 79.367,6.93 l -0.027,-23.063 c -3.848,-0.078 -7.75,-0.129 -11.774,-0.129 -26.316,0 -48.949,1.59 -67.555,3.93 z m -20.477,-9.191 c 1.055,0.59 2.113,1.16 3.207,1.718 l -0.004,-2.269 c -1.062,0.18 -2.172,0.363 -3.203,0.551 z m 88.047,-25.301 c 31.793,0 58.203,2.121 79.219,5.269 4.183,-4.648 8.066,-9.609 11.676,-14.796 -1.481,-0.422 -2.961,-0.84 -4.493,-1.231 l 0.075,-29.723 c -3.543,-0.628 -7.317,-1.25 -11.293,-1.828 l -0.067,29.078 c -10.851,-2.078 -22.609,-3.5 -34.84,-4.41 l -0.062,-28.328 c -3.582,-0.238 -7.293,-0.441 -11.078,-0.621 l -0.035,28.262 c -5.743,-0.281 -11.547,-0.473 -17.379,-0.582 l -0.028,-28.25 c -3.828,-0.071 -7.699,-0.11 -11.699,-0.11 -26.285,0 -48.887,1.571 -67.476,3.911 l -0.039,30.019 c -6.036,1.082 -11.848,2.301 -17.364,3.672 l -0.039,-31.082 c -2.68,0.473 -5.25,0.961 -7.683,1.453 l -0.055,31.738 c -9.879,2.899 -18.488,6.352 -25.199,10.352 2.699,2.769 5.711,5.617 9.168,8.508 24.886,-6.77 63.164,-11.301 108.691,-11.301 z M 348.805,573.391 v 20.871 c 1.933,2.429 4.297,5.109 6.98,7.918 l -0.058,-33.551 c -1.086,0.48 -2.063,0.953 -2.911,1.422 -1.91,1.039 -3.218,2.039 -3.898,2.949 -0.008,0.129 -0.094,0.25 -0.113,0.391 z m 2.941,-22.789 c 0,0.046 0,0.07 0,0.117 22.813,-9.25 67.66,-15.848 122.836,-15.848 52.867,0 91.152,5.801 113.703,12.598 1.399,-3.508 2.707,-7.008 3.949,-10.508 -8.191,-5.5 -18.816,-9.691 -31.093,-12.813 l 0.074,-29.726 c -3.539,-0.641 -7.32,-1.262 -11.301,-1.832 l -0.066,29.082 c -10.938,-2.102 -22.797,-3.543 -35.133,-4.442 l -0.07,-28.332 c -3.508,-0.238 -7.141,-0.429 -10.848,-0.609 l -0.035,28.25 c -5.793,-0.277 -11.649,-0.469 -17.528,-0.57 l -0.035,-28.258 c -3.804,-0.063 -7.652,-0.109 -11.621,-0.109 -26.246,0 -48.824,1.558 -67.398,3.886 l -0.035,30.024 c -6.098,1.09 -11.965,2.32 -17.524,3.707 l -0.039,-31.09 c -2.609,0.461 -5.117,0.941 -7.492,1.422 l -0.055,31.738 c -10.437,3.051 -19.484,6.699 -26.359,10.992 l -0.063,-35.109 c -1.039,0.457 -1.976,0.918 -2.797,1.367 -1.91,1.051 -3.218,2.039 -3.898,2.949 -0.008,0.141 -0.094,0.25 -0.113,0.391 v 44 c 0.965,-0.43 1.925,-0.859 2.941,-1.277 z M 675.473,204.012 604.02,351.121 c -6.993,-10.18 -19.868,-17.422 -36.379,-22.391 l 44.062,-156.16 c -5.742,-1.558 -11.816,-3.039 -18.211,-4.429 l -36.015,157.91 c -10.942,-2.52 -23.012,-4.289 -35.704,-5.461 l 35.442,-158.731 c -9.809,-1.32 -20.199,-2.39 -31.02,-3.238 l -18.847,160.891 c -5.953,-0.34 -11.985,-0.551 -18.043,-0.703 l 18.511,-161.348 c -11.007,-0.551 -22.308,-0.93 -34.195,-0.93 -54.922,0 -100.66,6.231 -135.051,15.239 l 60.754,154.031 c -6.211,1.289 -12.094,2.75 -17.613,4.39 L 320.863,176.969 c -6.39,2.101 -12.152,4.312 -17.457,6.57 l 69.668,149.473 c -10.035,3.597 -18.269,7.879 -23.816,12.847 L 279.25,196.969 c -6.957,5.363 -10.902,10.73 -11.59,15.742 l 73.805,146.141 c 3.195,-2.051 7.09,-3.864 11.301,-5.532 l -0.075,-0.16 c 6.95,-2.73 15.829,-5.219 26.344,-7.371 l 0.035,0.082 c 2.715,-0.551 5.453,-1.082 8.25,-1.551 l -0.031,-0.09 c 5.703,-0.992 11.789,-1.89 18.246,-2.679 l 0.039,0.109 c 24.977,-3 49.481,-3.762 61.992,-3.949 2.278,-0.02 4.528,-0.063 6.84,-0.063 0.067,0 0.176,0 0.239,0 2.968,0 5.816,0.051 8.699,0.082 1.152,0.02 2.461,0.051 3.785,0.079 l 0.004,-0.039 c 6.238,0.109 12.211,0.332 18.004,0.589 l -0.012,0.11 c 3.934,0.191 8.152,0.461 12.488,0.75 l 0.032,-0.149 c 13.371,0.918 25.394,2.219 35.996,3.801 l -0.016,0.07 c 3.223,0.469 6.406,0.989 9.566,1.539 l 0.016,-0.058 c 17.656,3.16 30.656,7.047 38.773,10.906 l -0.07,0.141 c 2.231,1.062 4.317,2.179 6.184,3.371 27.89,-55.418 66.609,-133.219 71.59,-145.59 -0.266,-2.98 -1.672,-6.07 -4.211,-9.238 z M 610.285,59.25 571.297,145.219 c 2.25,0.351 4.48,0.722 6.711,1.101 0.043,-0.109 0.031,-0.218 0.082,-0.32 28.562,-57.0781 35.918,-72.8594 37.793,-77.1992 -0.375,-3.0625 -2.207,-6.2891 -5.598,-9.5508 z m -276.922,9.0508 15.282,30.2578 c 47.531,30.9214 102.148,36.9724 204.82,-8.457 l 9.496,-52.3907 C 539.891,31.75 510.066,27.6914 474.578,27.6914 c -85.066,0 -138.129,23.1289 -141.215,40.6094 z M 1206.37,639.242 v 66.899 c 16.12,-3.903 25.39,-8.621 27.33,-12 v -54.899 z m -100.02,-99.07 c 11.82,-0.051 23.7,-0.813 35.37,-3.063 11.66,-2.14 23.21,-5.789 33.5,-11.629 -11.53,2.469 -22.98,3.59 -34.42,4.508 -11.47,0.742 -22.94,1.094 -34.43,0.992 -11.49,0.04 -22.99,-0.41 -34.53,-0.96 -11.51,-0.711 -23.05,-1.372 -34.77,-2.731 21.75,9.52 45.72,12.52 69.28,12.883 z m -33.27,11.918 c 10.97,1.961 22.1,2.789 33.25,2.93 11.15,-0.059 22.33,-0.79 33.34,-2.95 10.94,-2.121 21.89,-5.441 31.5,-11.148 -21.76,4.16 -43.15,4.949 -64.81,4.898 -21.66,-0.07 -43.18,-1.109 -65.24,-3.211 10.1,4.75 21.02,7.563 31.96,9.481 z m 2.04,14.961 c 10.29,1.89 20.74,2.679 31.2,2.808 10.46,-0.058 20.96,-0.75 31.29,-2.82 10.28,-2.039 20.54,-5.207 29.52,-10.687 -20.48,3.679 -40.48,4.359 -60.78,4.308 -20.3,-0.051 -40.44,-0.969 -61.19,-2.719 9.45,4.571 19.69,7.27 29.96,9.11 z m 90.49,136.121 c -11.57,0 -24.03,-1.41 -33.97,-4.742 4.55,4.742 25.4,23.312 56.32,3.129 v -0.289 c -7.24,1.281 -14.96,1.902 -22.35,1.902 z m 5.91,-26.211 c 1.44,-1.492 2.75,-3.231 3.7,-5.57 v -0.012 c -4.79,0.082 -9.52,-0.32 -14.09,-1 5.49,-0.82 10.9,-2.188 15.89,-4.117 0.41,-1.282 0.81,-2.614 1.19,-4 -5.67,0.328 -11.27,-0.082 -16.65,-0.883 6.37,-0.957 12.61,-2.66 18.21,-5.129 0.26,-1.059 0.51,-2.129 0.76,-3.199 -6.33,0.57 -12.56,0.211 -18.54,-0.692 7.03,-1.05 13.96,-2.949 19.98,-5.89 0.18,-0.867 0.35,-1.731 0.53,-2.59 -6.87,0.812 -13.62,0.441 -20.08,-0.527 7.61,-1.141 15.13,-3.223 21.45,-6.602 0.13,-0.691 0.26,-1.379 0.38,-2.02 -7.32,1.04 -14.53,0.641 -21.4,-0.39 8.12,-1.219 16.09,-3.559 22.67,-7.371 -6.1,1.332 -12.79,2.082 -19.91,2.082 -10.99,0 -20.99,-1.75 -29.28,-4.762 l 11.18,55.641 c 6.71,2.09 13.88,2.808 19.57,0.191 -2.15,-0.191 -4.29,-0.41 -6.38,-0.73 3.68,-0.551 7.3,-1.399 10.82,-2.43 z m -94.37,-94.949 c 9.61,1.808 19.37,2.558 29.16,2.699 4.13,-0.031 8.28,-0.25 12.41,-0.539 3.3,-3.59 7.84,-6.711 13.33,-9.211 -8.57,0.418 -17.11,0.57 -25.71,0.551 -18.94,-0.051 -37.71,-0.852 -57.12,-2.242 8.78,4.39 18.34,6.968 27.93,8.742 z m 2.03,14.957 c 8.93,1.742 18.02,2.441 27.12,2.582 2.11,-0.02 4.23,-0.199 6.33,-0.281 0,-0.18 -0.04,-0.34 -0.04,-0.52 0,-2.961 0.72,-5.781 1.98,-8.449 -2.75,0.019 -5.49,0.058 -8.24,0.051 -17.57,-0.032 -34.97,-0.711 -53.07,-1.75 8.12,4.199 17.01,6.668 25.92,8.367 z m 2.04,14.961 c 8.25,1.66 16.65,2.34 25.06,2.449 3.07,-0.008 6.15,-0.207 9.23,-0.418 l -1.78,-8.723 c -0.01,-0.027 -0.02,-0.047 -0.02,-0.078 -2.47,0.02 -4.92,0.051 -7.4,0.039 -16.2,-0.019 -32.23,-0.578 -49,-1.269 7.46,4.031 15.68,6.379 23.91,8 z m 2.03,14.961 c 7.57,1.589 15.29,2.218 23.02,2.351 4.07,-0.043 8.15,-0.254 12.21,-0.66 l -1.74,-8.57 c -3.47,0.039 -6.95,0.039 -10.44,0.027 -14.84,-0.008 -29.5,-0.437 -44.94,-0.777 6.8,3.847 14.34,6.09 21.89,7.629 z m 2.03,14.968 c 6.9,1.5 13.93,2.102 20.98,2.211 5.05,-0.039 10.11,-0.5 15.12,-1.261 l -1.64,-8.039 c -4.47,0.05 -8.93,0.128 -13.45,0.109 l -40.88,-0.289 c 6.14,3.66 13,5.801 19.87,7.269 z m -11.78,23.379 c 4.83,3.301 10.34,5.231 15.84,6.543 5.54,1.348 11.21,1.867 16.89,1.981 5.68,-0.063 11.39,-0.532 16.97,-1.992 1.29,-0.321 2.58,-0.711 3.86,-1.129 l -1.24,-6.059 c -6.56,0.047 -13.02,0.027 -19.56,-0.012 -10.74,0.032 -21.27,-0.039 -32.76,0.668 z m 13.81,-8.418 c 6.22,1.418 12.57,1.989 18.94,2.11 6.02,-0.071 12.08,-0.59 18.03,-1.95 l -1.5,-7.3 c -5.5,0.07 -10.96,0.082 -16.51,0.05 -12.1,0.02 -24.01,-0.179 -36.82,0.192 5.49,3.476 11.67,5.508 17.86,6.898 z m -76.75,-160.789 c -1.53,0.711 -2.51,1.348 -2.79,1.86 1.92,3.808 33.33,13.379 96.25,13.379 62.01,0 93.42,-9.301 96.13,-13.211 -0.38,-0.559 -1.42,-1.239 -2.99,-1.977 -15.67,4.609 -51.48,7.84 -93.2,7.84 -41.89,0 -77.84,-3.262 -93.4,-7.891 z m -25.728,188.34 c 12.566,-2.629 24.508,-8.199 33.098,-16.441 -3.51,1.609 -7.11,2.871 -10.74,3.82 -7.377,1.91 -14.877,2.82 -22.292,2.629 13.047,-2.508 25.532,-8.25 34.402,-16.77 -3.5,1.602 -7.1,2.86 -10.74,3.813 -7.37,1.918 -14.872,2.828 -22.275,2.637 13.039,-2.528 25.515,-8.25 34.405,-16.77 -3.5,1.602 -7.11,2.859 -10.74,3.801 -7.38,1.922 -14.884,2.832 -22.286,2.64 13.036,-2.519 25.516,-8.25 34.406,-16.781 -3.51,1.61 -7.11,2.871 -10.74,3.813 -7.38,1.929 -14.877,2.828 -22.287,2.648 13.037,-2.519 25.527,-8.25 34.407,-16.781 -3.51,1.601 -7.11,2.859 -10.75,3.812 -7.37,1.918 -14.872,2.821 -22.282,2.649 13.042,-2.531 25.532,-8.27 34.412,-16.789 -3.5,1.609 -7.12,2.871 -10.75,3.82 -7.37,1.91 -14.873,2.82 -22.275,2.629 13.035,-2.52 25.515,-8.25 34.405,-16.77 -3.51,1.61 -7.11,2.872 -10.74,3.809 -7.39,1.922 -14.89,2.832 -22.29,2.641 13.94,-2.692 27.35,-8.942 36.27,-18.481 -13.34,5.723 -31.122,9.332 -49.052,11.442 1.575,26.371 3.067,53.05 4.434,78.98 z m 1.063,20.75 c 0.136,2.59 0.265,5.188 0.402,7.758 2.391,-0.809 5.832,-2.027 9.363,-3.457 0.09,-1.922 0.168,-3.723 0.246,-5.352 -3.34,0.571 -6.672,0.91 -10.011,1.051 z m 30.655,-26.859 c -3.51,1.597 -7.12,2.859 -10.74,3.808 -6.947,1.809 -13.986,2.629 -20.966,2.578 0.164,3.18 0.34,6.391 0.496,9.551 11.883,-2.769 23.07,-8.129 31.21,-15.937 z m -31.171,16.617 c 0.156,3.082 0.312,6.109 0.469,9.152 3.504,-0.902 6.894,-2.031 10.215,-3.39 0.148,-3.141 0.253,-5.391 0.312,-6.711 -3.672,0.57 -7.332,0.879 -10.996,0.949 z M 901.012,865.18 c 0,106.679 24.004,162.33 36.246,183.78 8.129,-14.12 21.351,-43.3 29.351,-92.608 -12.668,37.269 -28.855,62.908 -28.855,62.908 0,0 10.086,-40.651 10.086,-91.248 0,-50.621 0,-346.34 0,-346.34 0,0 -0.012,-170.832 -14.922,-213.863 -1.117,5.91 -2.309,12.793 -3.574,20.929 -9.446,60.813 -28.332,393.403 -28.332,476.442 z M 27.6836,908.332 H 632.848 c -2.52,-17.043 -4.594,-35.211 -6.297,-53.551 H 27.6836 Z M 515.547,1531.2 c 5.332,4.38 130.887,108.11 154.383,197.37 8.16,31.02 15.761,63.52 22.816,96.53 -2.183,-31.67 -8.187,-85.37 -24.816,-130.22 -25.305,-68.25 -97.395,-130.94 -97.395,-130.94 L 157.191,1199.48 c 0,0 -64.4215,-55.21 -78.2222,-87.43 C 67.2578,1084.73 43.4141,965.199 36.4492,929.539 H 29.75 c 5.8008,28.371 21.7773,106.321 36.0195,173.701 9.9219,46.96 85.1325,111.59 85.9495,112.3 z m -158.27,-48.05 -0.113,-65.01 -8.359,-7.24 v 75.6 c 2.625,-1.19 5.453,-2.31 8.472,-3.35 z M 600.34,2516.89 c -0.016,-0.14 -0.098,-0.25 -0.113,-0.39 -1.059,-1.43 -3.7,-3.06 -7.75,-4.76 l -0.254,219.9 c 2.882,0.83 5.601,1.7 8.117,2.66 z m -6.84,-882.32 -0.215,185.34 c 2.508,0.9 4.84,1.88 7.055,2.88 v -179.92 c -2.254,-2.79 -4.539,-5.56 -6.84,-8.3 z m 58.473,758.55 v -34.64 h -32.594 l 0.008,34.64 z m 285.129,1399.61 c 11.824,0 21.636,0.35 30.093,0.92 30.418,-76.1 78.985,-220.97 91.075,-394.76 10.7,-153.77 10.9,-395.75 10.78,-455.29 21.64,0.65 45.16,1.61 75.4,3.01 -23.31,-3.97 -49.58,-6.81 -75.42,-8.86 0,-0.04 0,-0.09 0,-0.13 -6.22,-0.51 -12.68,-0.98 -19.29,-1.42 v 0.17 c -7.06,-0.47 -14.03,-0.88 -20.82,-1.23 0,-0.07 0,-0.13 0,-0.19 -6.44,-0.34 -13.02,-0.65 -19.78,-0.92 v 0.18 c -4.87,-0.21 -9.601,-0.39 -14.152,-0.54 0,-0.05 0,-0.11 0,-0.15 -11.125,-0.36 -22.668,-0.59 -34.543,-0.74 -12.968,-0.22 -21.488,-0.24 -23.343,-0.24 -1.754,0 -9.465,0.02 -21.262,0.21 -65.695,0.73 -120.207,4.79 -161.078,10.21 -30.91,4 -59.106,9.54 -78.106,17.22 0.535,-0.08 1.063,-0.14 1.594,-0.23 -3.941,1.8 -6.562,3.57 -7.816,5.25 -2.426,201 -5.973,594.12 200.273,834.75 9.789,-3.98 28.887,-7.22 66.395,-7.22 z m 267.068,-827.66 c -1.91,-2.41 -6.61,-5 -14,-7.62 0,1.5 0,2.98 0,4.35 0,530.27 -103.68,722.15 -198.502,834.82 5.012,1.01 8.952,2.15 11.942,3.38 193.17,-217.4 197.35,-562.77 200.46,-822.12 l 0.1,-8.68 z m -14,-1091.06 c 0,458.54 0,924.96 0,1065.19 5.21,1.78 9.94,3.69 14,5.74 l -0.11,-1137.23 c -4.87,21.89 -9.5,44.07 -13.89,66.3 z m 32.36,484.47 v 34.64 h 31.99 l 0.01,-34.64 z m 60.08,-539.22 -0.32,-186.63 c -2.94,3.45 -5.85,6.97 -8.72,10.52 v 179.64 c 2.79,-1.27 5.8,-2.45 9.04,-3.53 z m 242.5,697.63 c -0.02,-0.14 -0.1,-0.25 -0.12,-0.39 -1.06,-1.43 -3.7,-3.06 -7.75,-4.76 l -0.25,219.9 c 2.88,0.83 5.6,1.7 8.12,2.66 z m -6.6,-1100.06 -0.07,66.94 c 2.36,0.85 4.57,1.78 6.67,2.73 v -75.39 z m 320.76,-487.291 c -7.33,28.301 -33.06,127.781 -42.88,166.411 -11.5,45.24 -66.71,95.09 -66.71,95.09 0,0 -368.11,319.79 -406.54,353.08 -38.43,33.29 -67.98,73.3 -67.98,73.3 0,0 -55.02,55.99 -69.03,124.58 -13.87,67.95 -40.55,213.03 -53.27,282.75 v 84.5 c 14.87,-108.42 38.69,-256.48 71.38,-380.68 23.49,-89.26 149.04,-192.99 154.18,-197.2 l 364.08,-315.88 c 0.77,-0.66 75.96,-65.29 85.89,-112.25 14.24,-67.38 30.22,-145.33 36.02,-173.701 z m -706.41,923.561 9.2,-144.53 v -594.21 l 12.75,-32.19 c 0,0 73.7,-41.06 89.32,-143.432 H 1421 c 0,0 -164.76,168.722 -164.76,335.132 0,66.4 -0.41,182.73 -0.72,261.43 l -14.19,12.86 -69.79,116.41 -28.52,204.39 h 1.68 l 34.61,-199.78 1.08,-1.79 0.07,-0.4 31.15,-51.69 37.49,-62.54 509.14,-461.5 64.57,-161.721 h -587.9 c -2.64,14.25 -5.63,27.242 -9.1,38.121 -17.64,55.28 -56.43,89.54 -80.74,106.46 l -12.21,32.71 z m 171.76,-39.54 c 3.64,-0.72 7.36,-1.38 11.14,-1.98 l -0.14,-215.35 c -3.49,3.56 -7.06,7.27 -10.65,11.08 z m -21.33,341.76 -0.13,-12.36 -0.5,-292.5 c 6.76,-2.31 14.1,-4.27 21.91,-5.92 l -0.51,298.42 -0.08,7.03 c 3.94,-0.8 7.97,-1.51 12.06,-2.16 -0.02,-6.77 -0.08,-13.53 -0.09,-20.3 l -0.17,-285.1 c 4.79,-0.81 9.71,-1.53 14.73,-2.16 l -0.18,287.26 c 0,6.12 -0.07,12.24 -0.08,18.35 31.45,-3.75 62.33,-3.98 69.09,-3.98 2.17,0 6.89,0.03 13.26,0.18 0.02,-2.5 -0.03,-4.99 0,-7.49 l -0.2,-298.47 c 4.96,0.01 9.87,0.06 14.73,0.13 l -0.21,298.34 c 0.03,2.67 -0.01,5.33 0.01,7.99 5.05,0.23 10.56,0.54 16.33,0.95 l -0.1,-6.95 -0.68,-300.03 c 10.26,0.27 20.07,0.61 29.14,0.96 l -0.68,299.07 -0.15,9.58 c 3.76,0.48 7.52,1 11.23,1.58 l 0.74,-309.78 c 14.26,0.58 26.11,1.06 34.21,1.06 -37.92,-15.01 -107.14,-15.01 -117.63,-15.01 -1.62,0 -4.64,0.02 -8.54,0.08 -23.28,0.3 -43.48,1.84 -60.28,4.01 v 0.06 c -4.95,0.63 -9.88,1.38 -14.75,2.22 v -0.08 c -3.98,0.69 -7.74,1.39 -11.18,2.13 v 0.13 c -7.95,1.74 -15.39,3.84 -21.95,6.36 v -0.25 c -1.96,0.77 -3.7,1.54 -5.06,2.29 -1.91,1.04 -3.22,2.04 -3.9,2.95 -0.01,0.14 -0.09,0.25 -0.11,0.39 v 314.79 c 2.98,-1.36 6.23,-2.62 9.72,-3.77 z m 3.68,335.13 -3.34,-304.04 c 6.21,-2.07 12.93,-3.84 20.01,-5.37 l -3.36,306.02 c 5.88,-1.28 12.03,-2.38 18.29,-3.31 -1.09,-101.7 -2.02,-203.39 -2.39,-305.09 4.54,-0.76 9.19,-1.45 13.94,-2.05 -0.37,101.95 -1.29,203.91 -2.39,305.87 32.31,-4.05 64.67,-4.28 71.61,-4.28 2.44,0 8.06,0.03 15.66,0.24 l -0.46,-46.06 -1.39,-148.9 c -0.22,-37.02 -0.56,-74.04 -0.57,-111.06 4.84,0.01 9.63,0.06 14.37,0.12 -0.02,36.98 -0.35,73.96 -0.58,110.94 l -1.38,148.9 -0.47,46.39 c 7.12,0.3 15.24,0.76 23.84,1.44 l -4.65,-307.32 c 9.35,0.24 18.31,0.55 26.67,0.87 l -4.67,308.1 c 5.18,0.59 10.37,1.27 15.51,2.06 l 0.74,-309.7 c 14.61,0.59 26.77,1.1 35.01,1.1 -25.32,-9.84 -63.39,-13.22 -89.63,-14.38 -0.14,-0.01 -0.26,-0.02 -0.4,-0.02 v 0 c -5.37,-0.24 -10.22,-0.39 -14.35,-0.47 0,0 0,0 0,-0.01 -0.04,0 -0.07,0 -0.1,0 -6.29,-0.12 -10.99,-0.13 -13.15,-0.13 -1.62,0 -4.64,0.01 -8.54,0.08 -23.44,0.31 -43.76,1.85 -60.64,4.05 0,0.02 0,0.04 0,0.06 -4.7,0.6 -9.39,1.32 -14.03,2.11 0,-0.02 0,-0.05 0,-0.07 -4.43,0.75 -8.57,1.54 -12.35,2.37 l -0.01,0.12 c -7.29,1.62 -14.15,3.54 -20.27,5.83 v -0.24 c -2.35,0.89 -4.36,1.78 -5.92,2.63 -1.91,1.05 -3.22,2.04 -3.9,2.96 -0.01,0.13 -0.09,0.25 -0.11,0.39 v 314.79 c 4.02,-1.84 8.51,-3.48 13.4,-4.94 z m 185.51,-1033.68 -0.04,17.03 c 3.75,0.48 7.49,1 11.19,1.6 l 0.07,-28.37 z m -45.16,82.24 -0.18,267.29 c 4.74,0.21 9.89,0.51 15.27,0.88 l -0.61,-264.18 -0.09,-42.76 c 10.84,0.28 21.17,0.64 30.67,1.01 l -0.1,41.75 -0.6,266.99 c 3.73,0.47 7.46,1 11.15,1.57 l 0.73,-309.86 c 13.91,0.57 25.47,1.03 33.41,1.03 -22.41,-8.86 -55.68,-12.48 -81.38,-13.96 l -12.86,11.15 c 1.55,0.02 3.11,0.02 4.63,0.04 z m -96.79,270.55 c 31.35,-3.72 62.07,-3.95 68.81,-3.95 2.15,0 6.78,0.02 13.04,0.17 l -0.18,-266.77 -0.03,-29.92 -41.89,36.35 c -0.46,0.37 -17.32,14.31 -39.61,35.87 z m 194.46,370.65 c -1.03,-1.39 -3.52,-2.97 -7.36,-4.61 l -0.37,316.65 c 2.8,0.97 5.4,2.02 7.85,3.14 V 2180.6 c -0.02,-0.14 -0.1,-0.26 -0.12,-0.39 z m 0.12,-357.42 v -314.78 c -0.02,-0.14 -0.1,-0.26 -0.12,-0.39 -0.95,-1.28 -3.21,-2.73 -6.57,-4.24 l -0.38,316.53 c 2.51,0.9 4.85,1.88 7.07,2.88 z m -0.12,21.12 c -0.99,-1.33 -3.36,-2.86 -6.96,-4.43 l -0.38,316.6 c 2.65,0.94 5.12,1.95 7.46,3.01 V 1844.3 c -0.02,-0.14 -0.1,-0.25 -0.12,-0.39 z m -235.39,885.66 -2.29,-208.01 c 4.04,-1.23 8.24,-2.37 12.63,-3.39 l -2.31,209.71 c 7.6,-1.44 15.73,-2.61 23.98,-3.56 l -0.59,-3.2 -0.03,-0.16 -0.01,-0.2 c -0.59,-68.75 -1.33,-137.51 -2.09,-206.26 2.81,-0.44 5.64,-0.86 8.51,-1.24 -0.75,69.11 -1.5,138.22 -2.1,207.34 l 0.53,3.25 c 30.95,-3.27 62.64,-3.59 73.51,-3.59 3.78,0 10.18,0.05 18.1,0.24 l -2.14,-211.78 c 3,0.01 5.97,0.04 8.92,0.07 l -2.13,211.83 c 8.79,0.26 19.04,0.71 29.93,1.45 l -3.22,-212.75 c 5.68,0.16 11.19,0.35 16.49,0.54 l -3.22,212.98 c 6.18,0.52 12.42,1.17 18.57,1.93 l 0.52,-214.29 c 14.97,0.6 27.41,1.13 35.81,1.13 -25.29,-9.86 -63.52,-13.23 -89.79,-14.39 -0.71,-0.03 -1.39,-0.06 -2.1,-0.09 -4.2,-0.17 -8,-0.28 -11.4,-0.36 -0.39,-0.01 -0.78,-0.02 -1.17,-0.03 -6.3,-0.13 -11.01,-0.14 -13.17,-0.14 -1.62,0 -4.64,0.02 -8.54,0.08 -24.65,0.33 -45.91,2.01 -63.27,4.39 0,0.02 0,0.05 0,0.08 -2.93,0.39 -5.85,0.82 -8.76,1.29 0,-0.02 0,-0.04 0,-0.07 -7.02,1.14 -13.24,2.39 -18.69,3.67 v 0.13 c -4.54,1.1 -8.83,2.34 -12.89,3.7 v -0.25 c -4.05,1.34 -7.3,2.67 -9.61,3.92 -1.91,1.05 -3.22,2.05 -3.9,2.96 -0.01,0.14 -0.09,0.25 -0.11,0.39 v 217.34 c 4.72,-1.77 10.16,-3.31 16.03,-4.66 z m 11.82,23.75 55.93,216.8 c 10.05,-1.42 23.56,-2.33 41.99,-2.33 5.36,0 10.17,0.1 14.74,0.24 l 35.11,-219.75 c 3.14,0.18 6.25,0.37 9.3,0.57 l -41.64,219.29 c 5.53,0.21 10.66,0.49 15.09,0.89 l 44.84,-218.93 c 15.04,1.09 28.16,2.17 38.18,2.88 l -45.82,179.48 c 20.97,-67.37 42.55,-136.94 55.54,-178.86 -1.88,-1.06 -4.9,-2.24 -8.99,-3.46 l -0.05,0.17 c -40.84,-12.99 -112.13,-11.64 -121.86,-11.64 -2.36,0 -7.25,0.06 -13.66,0.25 -19.72,0.46 -36.88,1.62 -51.33,3.16 l 0.02,0.1 c -1.29,0.13 -2.57,0.29 -3.85,0.43 l -0.02,-0.1 c -9.74,1.12 -18.23,2.4 -25.33,3.74 l 0.03,0.12 c -2.59,0.5 -5.08,1.03 -7.48,1.59 l -0.04,-0.16 c -8.95,2.02 -15.05,4.07 -18.12,5.81 l 0.05,0.14 c 27.05,87.26 50.07,161.32 68.22,219.6 3.27,-1.05 7.43,-2 12.52,-2.82 l -60.62,-215.43 c 2.35,-0.63 4.76,-1.23 7.25,-1.78 z m -184.16,-1657.37 5.58,-14.94 h -18.97 l -2.38,14.94 z M 806.465,2369.49 c -6.762,-0.79 -12.766,-1.61 -18.172,-2.45 0.957,14.22 2.082,28.43 3.477,42.63 0.625,6.61 1.535,13.2 2.277,19.8 0.492,-0.11 0.969,-0.3 1.484,-0.3 0.403,0 0.809,0.03 1.215,0.1 l 45.484,8.15 c 2.668,0.48 4.813,2.48 5.477,5.11 l 12.555,49.99 31.988,9.33 44.238,6.82 43.356,-6.63 32.866,-9.53 0.41,-1.63 c 0.14,-38.97 -0.23,-77.95 -0.92,-116.92 -23.364,1.23 -48.782,1.89 -75.098,1.89 -49.293,0 -95.688,-2.26 -130.637,-6.36 z m 120.73,-1273.54 h 6.953 l -0.234,-14.94 h -7.984 z m -236.699,1596.69 -0.414,-372.25 -0.469,-417.15 c -5.953,-31.73 -12.418,-63.64 -19.383,-94.92 v 1136.4 c 5.715,-2.81 12.684,-5.33 20.477,-7.65 -0.051,-19.44 -0.055,-38.88 0,-58.31 z m 278.817,114.2 v -30.28 c 0,-6.61 -1.981,-6.61 -3.165,-6.61 h -29.046 -29.043 c -1.18,0 -3.164,0 -3.164,6.61 v 30.28 c 9.418,1.3 20.148,2.12 32.207,2.12 12.066,0 22.789,-0.82 32.211,-2.12 z m -85.711,14.7 c -4.582,-1.11 -8.961,-2.36 -13.024,-3.79 3.262,6.71 6.352,12.19 9.195,16.06 19.946,27.22 40.844,42.83 57.329,42.83 0.398,0 0.828,-0.12 1.226,-0.14 -22.75,-7.92 -45.98,-41.29 -54.726,-54.96 z m 134.128,-101.28 c 0,0 6.22,-32.43 12.5,-83.76 -5.02,1.24 -10.31,2.34 -15.72,3.35 -4.64,46.76 -11.07,93.33 -21.045,139.2 8.065,-45.74 12.655,-91.91 15.445,-138.19 -22.254,3.77 -47.058,5.72 -71.808,5.72 -50.004,0 -100.278,-7.85 -128.817,-23 15.387,60.73 34.199,124.35 50.653,166.92 2.73,4.23 15.32,10.79 36.753,14.85 v -28.79 c 0,-14.27 8.653,-15.81 12.368,-15.81 h 29.043 29.046 c 3.723,0 12.364,1.54 12.364,15.81 v 28.79 c 21.437,-4.06 34.038,-10.62 36.758,-14.85 16.46,-42.57 35.26,-106.19 50.66,-166.93 -5.03,2.67 -10.68,5.12 -16.94,7.32 -11.67,43.08 -23.21,72.97 -31.26,89.37 z m -230.757,-988.8 -0.266,128.21 -0.348,168.64 c -5.492,-0.91 -10.261,-1.85 -14.242,-2.79 l -0.336,-165.85 -0.269,-131.4 c -4.453,-1.11 -8.453,-2.32 -11.758,-3.65 v 305.98 c 1.09,0.59 2.582,1.18 4.363,1.79 0,0.03 0,0.07 0,0.11 0.758,0.24 1.656,0.46 2.461,0.7 0.106,0.03 0.211,0.06 0.313,0.1 34.297,10.06 108.082,12.65 146.945,13.29 -0.004,-0.04 0,-0.07 0,-0.1 6.07,0.09 12.301,0.14 18.668,0.16 v -306.16 c -22.305,-0.1 -98.438,-1.04 -145.531,-9.03 z m 74.597,-2.08 c 20.938,1.13 44.692,1.82 70.934,1.89 v -306.15 c -22.203,-0.1 -97.746,-1.04 -144.891,-8.93 l -0.601,296.74 c -6.086,-1 -11.282,-2.02 -15.539,-3.06 l -0.61,-297.14 c -4.195,-1.06 -7.961,-2.22 -11.109,-3.48 v 305.97 c 2.184,1.18 5.801,2.4 10.707,3.62 0.234,0.06 0.465,0.12 0.703,0.17 0.113,0.03 0.207,0.06 0.328,0.09 v -0.01 c 22.395,5.62 57.645,8.65 90.078,10.29 z m 70.934,628.04 v -301.56 c -22.406,-0.09 -99.141,-1.05 -146.184,-9.15 l -0.195,88.29 c -0.887,30.58 -1.203,61.21 -1.508,91.74 -0.344,37.45 0.336,74.92 2.168,112.32 -2.648,-0.44 -5.156,-0.88 -7.465,-1.32 -2.832,-36.92 -4.558,-73.93 -5.289,-110.94 -0.625,-30.65 -0.715,-61.2 -1.672,-91.8 l -0.203,-91.19 c -4.718,-1.16 -8.941,-2.42 -12.402,-3.81 v 271.86 c 0,5.58 0.816,16.11 2.125,29.43 0.555,0.42 1.297,0.84 2.258,1.27 -0.004,0.21 -0.012,0.41 -0.02,0.62 25.051,8.16 75.367,11.67 115.613,13.18 8.106,0.31 16.555,0.56 25.36,0.74 3.062,0.07 6.008,0.13 8.746,0.18 0,-0.01 0,-0.01 0,-0.02 6.074,0.09 12.297,0.14 18.668,0.16 z m -106.856,156.16 -14.746,-67.75 -6.566,-1.17 15.152,74.1 z m 34.161,-6.83 -3.918,-1.13 -27.637,23.28 20.957,7.82 26.098,9.74 1.195,-5.72 -37.277,-12.9 z m 40.711,10.29 -4.868,-0.76 -5.398,25.99 -1.695,8.17 40.273,6.43 v -5.94 l -33.516,-4.64 z m 80.914,33.87 -30.809,0.96 v -31.42 l -6.488,1.01 v 35.41 z m 23.266,-7.08 -7.934,-32.37 -6.028,1.74 5.364,25.76 1.55,7.5 z m 85.38,-177.49 c -1.59,24.31 -3.6,47.44 -5.95,69.4 0.03,0.57 0.18,1.13 0.07,1.71 l -0.52,2.54 c -6.99,63.81 -16.8,117.46 -27.08,160.8 -6.15,2.8 -13.97,5.56 -23.2,8.1 2.06,-19.31 4,-40.52 5.6,-63.12 l -17.69,6.6 c -0.43,7.14 -0.78,14.28 -1.27,21.41 -0.91,13 -1.94,26 -3.04,38.99 -2.16,0.44 -4.38,0.86 -6.65,1.27 0.62,-13.55 1.16,-27.1 1.57,-40.65 0.17,-5.88 0.23,-11.77 0.35,-17.65 l -19.145,7.15 c -0.441,0.16 -0.891,0.28 -1.34,0.35 l -53.457,8.53 c -0.629,0.1 -1.234,-0.04 -1.851,-0.1 -0.61,0.06 -1.211,0.2 -1.832,0.1 l -53.461,-8.53 c -0.454,-0.07 -0.899,-0.19 -1.329,-0.35 l -67.25,-25.1 c -0.765,-0.29 -1.347,-0.84 -1.953,-1.36 3.551,18.04 7.301,36.05 11.422,53.98 -9.39,-36.07 -17.554,-72.49 -24.351,-109.18 l -8.957,-43.78 c -0.344,-1.67 0.136,-3.31 0.976,-4.76 -1.07,-7.48 -2.304,-14.93 -3.23,-22.43 -1.883,-14.75 -3.496,-29.53 -4.907,-44.34 -7.07,-1.26 -12.843,-2.59 -17.554,-3.99 6.035,54.52 16.484,131.78 18.246,142.41 4.137,24.94 10.828,56.68 18.941,90.62 1.645,11.64 50.512,33.21 135.864,33.21 20.984,0 39.703,-1.32 56.128,-3.46 0,0.07 0.008,0.1 0.008,0.17 34.662,-4.53 58.692,-12.79 70.742,-20.35 0.04,-0.03 0.08,-0.05 0.12,-0.07 0.2,-0.13 0.48,-0.27 0.67,-0.4 0.04,-0.05 0.05,-0.08 0.08,-0.13 5.03,-3.26 7.76,-6.36 8.12,-8.97 8.11,-33.95 14.8,-65.68 18.94,-90.62 1.76,-10.63 12.21,-87.88 18.24,-142.41 -5.24,1.56 -11.89,3.03 -20.07,4.41 z m -45.87,5.47 c -5.19,0.43 -10.52,0.84 -16.02,1.2 -0.48,22.41 -1.09,44.82 -1.8,67.22 1.03,-1.44 2.54,-2.49 4.36,-2.81 l 12.65,-2.27 c 0.35,-20.38 0.61,-42 0.81,-63.34 z m -16.87,119.1 -1.21,4.82 26.77,22.55 0.57,0.48 1.78,-8.7 z m 66.71,-445.33 c 0,97.14 0,170.41 0,196.72 0,33.7 -0.84,65.71 -2.34,96.03 -11.89,2.13 -27.78,4.17 -47.29,5.84 0.44,-64 0.32,-118.72 0.32,-118.72 v -173.6 c -4.49,0.37 -9.03,0.71 -13.57,1.02 l -0.29,107.02 -0.28,103.44 c 0.19,17.24 -1.21,34.48 -1.34,51.72 l -0.54,30.33 c -5.45,0.37 -11.09,0.72 -16.98,1.03 l -0.55,-31.36 c -0.14,-17.24 -1.52,-34.48 -1.34,-51.72 l -0.28,-103.44 -0.29,-105.78 c -29.389,1.41 -55.874,1.7 -67.573,1.75 v 301.56 c 5.516,-0.01 10.969,-0.05 16.262,-0.12 0,0 0,0 0,0.01 3.125,-0.04 6.59,-0.11 10.183,-0.19 9.024,-0.18 17.703,-0.43 25.996,-0.75 40.312,-1.5 90.882,-5.01 115.982,-13.21 -0.01,-0.21 0,-0.41 0,-0.62 0.93,-0.42 1.65,-0.84 2.19,-1.24 1.31,-13.33 2.13,-23.86 2.13,-29.44 V 2040 c -5.32,2.13 -12.31,3.98 -20.4,5.58 z m 0,-315.37 c 0,105.99 0,209.99 0,297 -12.04,2.28 -28.62,4.47 -49.31,6.25 v -296.98 c -4.21,0.35 -8.45,0.67 -12.72,0.95 l -0.58,215.57 -0.22,81.51 c -6.95,0.5 -14.28,0.94 -21.98,1.33 l -0.23,-82.84 -0.58,-214.22 c -29.047,1.38 -55.141,1.66 -66.723,1.71 v 306.16 c 5.508,-0.02 10.977,-0.05 16.262,-0.12 0,0.03 0,0.07 0,0.1 38.086,-0.58 114.141,-3.05 149.211,-13.3 0.18,-0.05 0.37,-0.1 0.54,-0.16 0.78,-0.23 1.67,-0.45 2.41,-0.69 0,-0.03 0,-0.07 0,-0.11 1.76,-0.59 3.24,-1.19 4.32,-1.76 v -305.99 c -5.32,2.14 -12.31,3.98 -20.4,5.59 z m -49.31,-12.23 V 1421.1 c -3.92,0.33 -7.89,0.63 -11.86,0.9 l -0.8,296.96 c -7.46,0.54 -15.36,1.03 -23.7,1.44 l -0.8,-296.95 c -28.705,1.34 -54.4,1.62 -65.873,1.67 v 306.15 c 24.473,-0.07 46.816,-0.66 66.703,-1.66 v -0.02 c 32.13,-1.52 67.71,-4.39 91.21,-9.79 1.19,-0.26 2.33,-0.51 3.41,-0.78 0.18,-0.05 0.37,-0.09 0.55,-0.14 4.99,-1.23 8.66,-2.46 10.87,-3.66 v -305.97 c -5.32,2.14 -12.31,3.98 -20.4,5.58 0,90.92 0,194.37 0,296.89 -12.04,2.28 -28.62,4.48 -49.31,6.26 z m 5.03,1200.07 c 6.36,0.41 12.78,0.87 19.23,1.38 v -236.34 c -6.12,21.92 -12.52,43.44 -18.93,63.44 z m -40.61,-2.17 c 6.37,0.26 13.01,0.58 19.8,0.94 0.08,-37.03 0.06,-74.08 0.02,-111.11 -7.01,17.21 -13.7,30.81 -19.7,38.99 -0.01,0.03 -0.03,0.05 -0.05,0.08 z m -304.012,-595.49 -0.418,372.25 c 0.2,80.23 -0.421,160.5 -0.007,240.69 80.066,-18.81 224,-19.11 232.379,-19.11 3.207,0 26.265,0.03 57.925,1.12 0.047,-17.8 0.028,-35.6 0.047,-53.4 -19.558,21.39 -39.695,33.1 -57.972,33.1 -22.743,0 -48.379,-17.87 -72.176,-50.34 C 832.043,2799.83 778.434,2593.51 764.145,2507.35 761.781,2493.11 741.41,2342 741.352,2312 h -0.004 v -49.95 c -0.633,-6.35 -12.66,-125.44 -35.836,-267.83 z M 380.422,1477.17 c 3.391,-0.67 6.832,-1.29 10.332,-1.85 l -0.031,-28.06 -10.231,-8.88 z m 25.586,-3.93 c 4.406,-0.53 8.781,-0.96 13.09,-1.36 l -13.075,-11.34 z m -48.164,346.02 -0.457,-272 -0.055,-32.89 c 7.078,-2.45 14.789,-4.53 23.035,-6.25 l -0.062,39.14 -0.453,266.3 c 3.648,-0.72 7.363,-1.38 11.14,-1.98 l -0.168,-277.27 -0.035,-28.13 c 4.938,-0.84 10,-1.58 15.18,-2.22 l -0.035,30.35 -0.164,275.25 c 31.351,-3.72 62.066,-3.95 68.808,-3.95 2.149,0 6.781,0.02 13.035,0.17 l -0.175,-266.77 -0.008,-7.85 -48.805,-42.33 c -11.93,0.7 -22.914,1.7 -32.637,2.95 v 0.06 c -5.105,0.65 -10.187,1.42 -15.211,2.29 v -0.08 c -3.672,0.64 -7.172,1.29 -10.382,1.97 l -0.004,0.13 c -8.391,1.81 -16.239,4.03 -23.082,6.7 v -0.24 c -1.715,0.7 -3.27,1.39 -4.493,2.06 -1.91,1.04 -3.218,2.04 -3.898,2.95 -0.008,0.13 -0.094,0.25 -0.113,0.39 v 314.78 c 2.789,-1.27 5.808,-2.45 9.039,-3.53 z m 0.687,336.06 -0.136,-12.36 -0.497,-292.5 c 6.758,-2.31 14.09,-4.27 21.907,-5.92 l -0.508,298.42 -0.078,7.03 c 3.933,-0.8 7.965,-1.51 12.062,-2.16 -0.019,-6.77 -0.082,-13.53 -0.093,-20.3 l -0.172,-285.1 c 4.793,-0.81 9.707,-1.53 14.734,-2.16 l -0.176,287.26 c -0.011,6.12 -0.074,12.24 -0.09,18.35 31.454,-3.75 62.332,-3.98 69.094,-3.98 2.18,0 6.887,0.03 13.25,0.18 0.02,-2.5 -0.023,-4.99 0.008,-7.49 l -0.195,-298.47 c 4.961,0.01 9.871,0.06 14.718,0.13 l -0.199,298.34 c 0.031,2.67 -0.015,5.33 0.004,7.99 5.059,0.23 10.559,0.54 16.336,0.95 l -0.105,-6.95 -0.68,-300.03 c 10.265,0.27 20.078,0.61 29.137,0.96 l -0.676,299.07 -0.149,9.58 c 3.762,0.48 7.516,1 11.231,1.58 L 558,1837.96 c 14.254,0.58 26.113,1.06 34.211,1.06 -37.926,-15.01 -107.141,-15.01 -117.633,-15.01 -1.617,0 -4.64,0.02 -8.547,0.08 -23.269,0.3 -43.476,1.84 -60.277,4.01 v 0.06 c -4.945,0.63 -9.875,1.38 -14.746,2.22 v -0.08 c -3.973,0.69 -7.746,1.39 -11.188,2.13 v 0.13 c -7.941,1.74 -15.382,3.84 -21.941,6.36 v -0.25 c -1.957,0.77 -3.699,1.54 -5.063,2.29 -1.91,1.04 -3.218,2.04 -3.898,2.95 -0.008,0.14 -0.094,0.25 -0.113,0.39 v 314.79 c 2.984,-1.36 6.238,-2.62 9.726,-3.77 z m 3.68,335.13 -3.34,-304.04 c 6.211,-2.07 12.926,-3.84 20.004,-5.37 l -3.355,306.02 c 5.878,-1.28 12.027,-2.38 18.285,-3.31 -1.09,-101.7 -2.016,-203.39 -2.387,-305.09 4.543,-0.76 9.184,-1.45 13.93,-2.05 -0.36,101.95 -1.289,203.91 -2.379,305.87 32.301,-4.05 64.668,-4.28 71.609,-4.28 2.442,0 8.059,0.03 15.66,0.24 l -0.465,-46.06 -1.382,-148.9 c -0.231,-37.02 -0.567,-74.04 -0.582,-111.06 4.843,0.01 9.64,0.06 14.375,0.12 -0.012,36.98 -0.348,73.96 -0.579,110.94 l -1.382,148.9 -0.469,46.39 c 7.125,0.3 15.246,0.76 23.84,1.44 l -4.653,-307.32 c 9.364,0.24 18.317,0.55 26.672,0.87 l -4.664,308.1 c 5.176,0.59 10.371,1.27 15.508,2.06 l 0.742,-309.7 c 14.61,0.59 26.766,1.1 35.012,1.1 -25.328,-9.84 -63.395,-13.22 -89.637,-14.38 -0.136,-0.01 -0.261,-0.02 -0.394,-0.02 v 0 c -5.375,-0.24 -10.223,-0.39 -14.36,-0.47 0,0 0,0 0,-0.01 -0.035,0 -0.066,0 -0.097,0 -6.289,-0.12 -10.989,-0.13 -13.145,-0.13 -1.617,0 -4.64,0.01 -8.547,0.08 -23.429,0.31 -43.758,1.85 -60.625,4.05 0,0.02 -0.004,0.04 -0.004,0.06 -4.707,0.6 -9.398,1.32 -14.039,2.11 0,-0.02 0,-0.05 0,-0.07 -4.433,0.75 -8.574,1.54 -12.351,2.37 l -0.004,0.12 c -7.285,1.62 -14.149,3.54 -20.262,5.83 l -0.004,-0.24 c -2.355,0.89 -4.359,1.78 -5.926,2.63 -1.91,1.05 -3.218,2.04 -3.898,2.96 -0.008,0.13 -0.094,0.25 -0.113,0.39 v 314.79 c 4.015,-1.84 8.511,-3.48 13.406,-4.94 z m 184.707,-680.46 c 3.73,0.47 7.461,1 11.145,1.57 l 0.515,-215.26 c -3.812,-3.89 -7.535,-7.6 -11.152,-11.14 z m -44.367,-265.7 -0.176,262.01 c 4.746,0.21 9.891,0.51 15.273,0.88 l -0.57,-250.35 c -8.051,-7.14 -13.109,-11.33 -13.398,-11.57 z m 97.789,614.8 V 1844.3 c -0.016,-0.14 -0.098,-0.25 -0.113,-0.39 -0.993,-1.33 -3.36,-2.86 -6.965,-4.43 l -0.367,316.6 c 2.652,0.94 5.117,1.95 7.445,3.01 z m -0.113,21.12 c -1.032,-1.39 -3.516,-2.97 -7.36,-4.61 l -0.363,316.65 c 2.789,0.97 5.394,2.02 7.836,3.14 V 2180.6 c -0.016,-0.14 -0.098,-0.26 -0.113,-0.39 z m -235.395,549.36 -2.281,-208.01 c 4.035,-1.23 8.242,-2.37 12.629,-3.39 l -2.305,209.71 c 7.594,-1.44 15.719,-2.61 23.969,-3.56 l -0.586,-3.2 -0.031,-0.16 -0.004,-0.2 c -0.594,-68.75 -1.34,-137.51 -2.09,-206.26 2.797,-0.44 5.633,-0.86 8.508,-1.24 -0.754,69.11 -1.504,138.22 -2.106,207.33 l 0.531,3.26 c 30.957,-3.27 62.649,-3.59 73.512,-3.59 3.785,0 10.18,0.05 18.098,0.24 l -2.129,-211.78 c 2.984,0.01 5.961,0.04 8.902,0.07 l -2.129,211.83 c 8.797,0.26 19.051,0.71 29.93,1.45 l -3.215,-212.75 c 5.684,0.16 11.188,0.35 16.488,0.54 l -3.214,212.98 c 6.179,0.52 12.414,1.17 18.574,1.93 l 0.512,-214.29 c 14.976,0.6 27.418,1.13 35.816,1.13 -25.301,-9.86 -63.523,-13.23 -89.801,-14.39 -0.699,-0.03 -1.387,-0.06 -2.09,-0.09 -4.199,-0.17 -8.004,-0.28 -11.406,-0.36 -0.391,-0.01 -0.777,-0.02 -1.168,-0.03 -6.305,-0.13 -11.012,-0.14 -13.168,-0.14 -1.617,0 -4.64,0.02 -8.547,0.08 -24.64,0.33 -45.902,2.01 -63.261,4.39 0,0.02 -0.004,0.05 -0.004,0.08 -2.93,0.39 -5.856,0.82 -8.758,1.29 0,-0.02 0,-0.04 0,-0.07 -7.02,1.14 -13.231,2.39 -18.699,3.67 v 0.13 c -4.532,1.1 -8.829,2.34 -12.887,3.7 v -0.25 c -4.039,1.34 -7.293,2.67 -9.606,3.92 -1.91,1.05 -3.218,2.05 -3.898,2.96 -0.008,0.14 -0.094,0.25 -0.113,0.39 v 217.34 c 4.722,-1.77 10.16,-3.31 16.027,-4.66 z m 11.832,23.75 55.926,216.8 c 10.047,-1.42 23.555,-2.33 41.988,-2.33 5.356,0 10.172,0.1 14.742,0.24 l 35.102,-219.75 c 3.152,0.18 6.254,0.37 9.312,0.57 l -41.644,219.29 c 5.523,0.21 10.656,0.49 15.086,0.89 L 552.02,2750.1 c 15.043,1.09 28.156,2.17 38.179,2.88 l -45.82,179.48 c 20.961,-67.37 42.543,-136.94 55.531,-178.86 -1.875,-1.06 -4.887,-2.24 -8.984,-3.46 l -0.043,0.17 c -40.848,-12.99 -112.137,-11.64 -121.867,-11.64 -2.36,0 -7.246,0.06 -13.657,0.25 -19.722,0.46 -36.879,1.62 -51.332,3.16 l 0.012,0.1 c -1.285,0.13 -2.562,0.29 -3.848,0.43 l -0.015,-0.1 c -9.738,1.12 -18.231,2.4 -25.332,3.74 l 0.027,0.12 c -2.582,0.5 -5.074,1.03 -7.476,1.59 l -0.043,-0.16 c -8.946,2.02 -15.047,4.07 -18.11,5.81 l 0.043,0.14 c 27.055,87.26 50.067,161.32 68.223,219.6 3.269,-1.05 7.43,-2 12.519,-2.82 L 369.406,2755.1 c 2.352,-0.63 4.766,-1.23 7.258,-1.78 z m 243.91,-1201.01 70.149,116.01 34.769,200.64 h 15.856 v -761.89 l -13.004,-29.8 c -24.117,-17 -64.739,-52.69 -82.887,-109.61 -3.469,-10.879 -6.469,-23.871 -9.102,-38.121 H 52.582 l 59.359,161.721 z m 138.754,-456.36 -3.82,-14.94 h -5.453 l 6.519,14.94 z m 23.719,0 -2.086,-14.94 H 774.5 l 3.824,14.94 z m 125.672,0 -1.258,-14.94 h -7.242 l 2.086,14.94 z m -148.965,18.41 v 285.49 c 1.09,0.59 2.582,1.19 4.363,1.78 0,0.01 0,0.01 0,0.01 0.051,0.02 0.113,0.03 0.168,0.05 1.68,0.57 3.649,1.13 5.906,1.7 22.551,5.9 59.071,9.02 92.418,10.68 1.477,0.08 2.981,0.15 4.485,0.23 1.086,0.05 2.152,0.08 3.23,0.13 18.742,0.87 39.512,1.4 62.18,1.47 V 1114.36 Z M 890.93,1081.01 H 790.254 l 2.082,14.94 h 100.68 z m 50.777,33.35 v 301.54 c 22.043,-0.06 42.285,-0.57 60.623,-1.4 1.05,-0.04 2.09,-0.09 3.15,-0.13 0.68,-0.03 1.39,-0.06 2.07,-0.09 v -0.01 c 32.57,-1.53 68.82,-4.43 92.52,-9.94 0.91,-0.2 1.8,-0.4 2.65,-0.6 0.39,-0.1 0.76,-0.2 1.15,-0.3 2.36,-0.59 4.41,-1.18 6.14,-1.77 0.04,-0.01 0.09,-0.02 0.12,-0.03 v -0.01 c 1.76,-0.59 3.24,-1.19 4.32,-1.77 v -285.49 z m 31.055,-33.35 h -11.231 l 0.235,14.94 h 10.996 z M 1244.7,854.781 c -1.69,18.34 -3.77,36.508 -6.29,53.551 h 608.12 v -53.551 z m 154.64,2266.489 c 0.52,0 0.95,-0.06 1.43,-0.08 l 26.85,-131.08 c 7.91,-0.05 14.96,-0.05 20.11,-0.05 -2.8,-0.59 -9.69,-1.75 -19.56,-2.65 l 0.01,-0.05 c -3.27,-0.29 -6.88,-0.52 -10.72,-0.72 -5.4,-0.28 -11.37,-0.46 -17.81,-0.44 -0.11,0 -0.2,-0.01 -0.31,-0.01 -0.25,0 -0.47,0.01 -0.73,0.01 -1.88,0.01 -3.8,0.03 -5.76,0.08 -12.59,0.22 -22.96,0.99 -30.81,1.98 l 0.04,0.17 c -0.71,0.09 -1.45,0.2 -2.17,0.29 l -0.05,-0.17 c -2.49,0.34 -4.74,0.7 -6.64,1.06 -0.09,0.02 -0.18,0.03 -0.26,0.04 v 0.01 c -2.17,0.42 -3.87,0.83 -5.22,1.23 22.81,73.17 36.88,117.9 40.18,127.76 1.99,1.25 5.95,2.62 11.42,2.62 z m -463.684,743.29 c 19.391,-15.47 37.192,-32.08 53.844,-49.49 -1.758,-0.34 -3.77,-0.68 -6.035,-1.03 l 0.027,-0.02 c -4.922,-0.89 -15.894,-1.68 -23.758,-2.17 0.02,-0.03 0.028,-0.06 0.047,-0.1 -2.304,-0.12 -4.746,-0.22 -7.234,-0.31 -1.004,-0.06 -1.621,-0.09 -1.621,-0.09 v 0.02 c -4.356,-0.14 -8.926,-0.23 -13.824,-0.23 -25.274,0 -43.211,2.05 -52.918,4.04 15.98,17.36 33.046,33.92 51.472,49.38 z m -459.648,-743.37 26.851,-131.08 c 7.907,-0.05 14.95,-0.05 20.11,-0.05 -2.801,-0.59 -9.684,-1.75 -19.559,-2.65 l 0.012,-0.05 c -3.274,-0.29 -6.887,-0.52 -10.731,-0.72 -5.398,-0.28 -11.367,-0.46 -17.808,-0.44 -0.11,0 -0.199,-0.01 -0.305,-0.01 -0.254,0 -0.48,0.01 -0.73,0.01 -1.887,0.01 -3.797,0.03 -5.758,0.08 -12.594,0.22 -22.965,0.99 -30.817,1.98 l 0.043,0.17 c -0.718,0.09 -1.449,0.2 -2.171,0.29 l -0.043,-0.17 c -2.493,0.34 -4.743,0.7 -6.641,1.06 -0.09,0.02 -0.176,0.03 -0.266,0.04 l -0.004,0.01 c -2.164,0.42 -3.863,0.83 -5.214,1.23 22.812,73.17 36.875,117.9 40.179,127.76 1.989,1.25 5.942,2.62 11.422,2.62 0.52,0 0.945,-0.06 1.43,-0.08 z M 618.852,704.781 42.5039,758.852 29.5586,836.371 H 624.953 c -4.433,-55.391 -5.73,-108.812 -6.101,-131.59 z m 18.675,-65.949 v 55.219 c 1.848,3.379 11.114,8.129 27.34,12.058 v -67.277 z m 219.684,70.109 c -23.473,13.661 -67.395,21.098 -109.316,22.43 -32.497,1.039 -63.266,-1.5 -86.653,-7.109 -9.484,-2.282 -17.402,-4.981 -23.734,-8.082 1.246,53.191 6.226,185.492 25.484,245.89 19.699,61.8 62.735,91.99 76.903,100.53 h 77.933 c 8.652,-16.01 33.203,-66.311 40.703,-134.819 5.774,-52.73 1.051,-169.66 -1.32,-218.84 z m 31.855,-14.64 c 0.164,-3.199 0.336,-6.422 0.5,-9.629 -7.093,0.09 -14.265,-0.762 -21.328,-2.602 -3.633,-0.949 -7.238,-2.211 -10.746,-3.808 8.235,7.886 19.559,13.277 31.574,16.039 z m -13.73,9.238 c 0.047,1.133 0.102,2.34 0.16,3.602 4.188,1.961 9.031,3.789 12.656,5.058 0.118,-2.34 0.243,-4.711 0.36,-7.058 -4.399,-0.172 -8.793,-0.7 -13.176,-1.602 z m 13.23,0.59 c 0.153,-3.078 0.309,-6.129 0.469,-9.231 -4.726,-0.058 -9.457,-0.589 -14.18,-1.507 0.071,1.39 0.168,3.461 0.29,6.078 4.277,1.961 8.785,3.492 13.421,4.66 z M 844.441,593.82 c 8.914,9.621 22.418,15.91 36.422,18.61 -7.41,0.191 -14.91,-0.719 -22.285,-2.641 -3.633,-0.937 -7.238,-2.199 -10.742,-3.809 8.883,8.52 21.367,14.25 34.402,16.77 -7.406,0.191 -14.906,-0.719 -22.277,-2.629 -3.637,-0.949 -7.238,-2.211 -10.742,-3.82 8.879,8.519 21.359,14.258 34.402,16.789 -7.406,0.172 -14.906,-0.731 -22.281,-2.649 -3.633,-0.953 -7.235,-2.211 -10.742,-3.812 8.882,8.531 21.363,14.262 34.402,16.781 -7.402,0.18 -14.91,-0.719 -22.281,-2.648 -3.633,-0.942 -7.239,-2.203 -10.742,-3.813 8.878,8.531 21.363,14.262 34.402,16.781 -7.406,0.192 -14.906,-0.718 -22.281,-2.64 -3.629,-0.942 -7.235,-2.199 -10.746,-3.801 8.886,8.52 21.367,14.242 34.41,16.77 -7.407,0.191 -14.907,-0.719 -22.285,-2.637 -3.633,-0.953 -7.239,-2.211 -10.743,-3.813 8.883,8.52 21.368,14.262 34.403,16.77 -7.407,0.191 -14.903,-0.719 -22.278,-2.629 -3.632,-0.949 -7.238,-2.211 -10.742,-3.82 8.664,8.32 20.762,13.941 33.465,16.531 1.363,-25.941 2.856,-52.629 4.43,-79.02 -18.141,-2.132 -36.145,-5.8 -49.571,-11.621 z m -137.113,87.36 c 9.777,-0.86 18.735,-15.879 26.094,-55.489 -7.34,2.129 -15.719,3.36 -24.828,3.36 -9.852,0 -18.883,-1.403 -26.617,-3.86 0,25.399 15.285,56.868 25.351,55.989 z m 1.266,21.992 c -8.371,0 -17.145,-0.801 -25.164,-2.473 0.789,1.09 7.238,9.289 23.898,10.211 15.781,0.871 27.91,-3.879 35.016,-12.41 -9.914,3.281 -22.27,4.672 -33.75,4.672 z M 774.672,560.66 c -20.293,-0.051 -40.442,-0.969 -61.18,-2.719 9.446,4.571 19.684,7.27 29.949,9.11 10.293,1.89 20.743,2.679 31.2,2.808 10.464,-0.058 20.968,-0.75 31.289,-2.82 10.281,-2.039 20.547,-5.207 29.523,-10.687 -20.48,3.679 -40.48,4.359 -60.781,4.308 z m 68.871,-35.18 c -11.531,2.469 -22.98,3.59 -34.418,4.508 -11.461,0.742 -22.941,1.094 -34.43,0.992 -11.488,0.04 -22.992,-0.41 -34.519,-0.96 -11.528,-0.711 -23.063,-1.372 -34.778,-2.731 21.743,9.52 45.719,12.52 69.274,12.883 11.824,-0.051 23.695,-0.813 35.375,-3.063 11.648,-2.14 23.207,-5.789 33.496,-11.629 z m -68.859,20.34 c -21.661,-0.07 -43.176,-1.109 -65.239,-3.211 10.106,4.75 21.024,7.563 31.965,9.481 10.965,1.961 22.098,2.789 33.246,2.93 11.145,-0.059 22.328,-0.79 33.328,-2.95 10.957,-2.121 21.903,-5.441 31.516,-11.148 -21.762,4.16 -43.152,4.949 -64.816,4.898 z m -20.141,37.418 c 6.668,0.821 13.363,1.371 20.09,1.473 9.773,-0.063 19.594,-0.731 29.242,-2.711 9.598,-1.949 19.195,-4.98 27.527,-10.211 -19.187,3.199 -37.8,3.77 -56.742,3.723 -11.097,-0.032 -22.187,-0.383 -33.336,-0.903 5.36,2.34 9.84,5.262 13.219,8.629 z m 20.047,81.332 c -7.918,0.02 -15.832,0.102 -23.977,0.36 l -0.746,4.441 c 2.555,0.988 5.176,1.777 7.809,2.41 5.535,1.348 11.199,1.867 16.883,1.981 5.679,-0.063 11.39,-0.532 16.968,-1.992 5.539,-1.411 11.094,-3.61 15.59,-7.379 -11.469,0.347 -21.762,0.25 -32.527,0.179 z m 0.008,-14.84 c -7.121,0.008 -14.231,-0.019 -21.43,0.008 l -1.039,6.192 c 1.164,0.308 2.336,0.621 3.508,0.89 6.215,1.418 12.57,1.989 18.929,2.11 6.364,-0.071 12.766,-0.578 19.02,-2.121 6.219,-1.5 12.441,-3.829 17.578,-7.848 -12.758,0.82 -24.434,0.828 -36.566,0.769 z m 0.015,-14.851 -18.922,-0.129 -1.218,7.238 c 6.621,1.371 13.351,1.973 20.109,2.082 7.047,-0.058 14.129,-0.59 21.059,-2.218 6.894,-1.59 13.797,-4.071 19.574,-8.321 -14.043,1.289 -27.113,1.41 -40.602,1.348 z m 0.008,-14.84 c -5.476,0 -10.945,-0.109 -16.426,-0.199 l -1.316,7.851 c 5.863,0.891 11.777,1.45 17.715,1.551 7.726,-0.07 15.496,-0.64 23.109,-2.363 7.567,-1.668 15.141,-4.277 21.559,-8.777 -15.332,1.757 -29.782,2 -44.641,1.937 z m 0.016,-14.84 c -4.649,-0.008 -9.297,-0.14 -13.942,-0.23 l -1.406,8.371 c 5.09,0.59 10.191,0.98 15.316,1.039 8.411,-0.039 16.864,-0.649 25.153,-2.457 8.25,-1.762 16.496,-4.524 23.551,-9.262 -16.618,2.238 -32.457,2.59 -48.672,2.539 z m -13.039,-6.301 c 4.332,0.372 8.672,0.582 13.019,0.653 9.098,-0.063 18.231,-0.692 27.196,-2.59 8.925,-1.852 17.847,-4.75 25.542,-9.742 -17.906,2.73 -35.132,3.191 -52.71,3.133 -5.04,-0.012 -10.079,-0.172 -15.11,-0.282 1.332,2.731 2.078,5.629 2.078,8.68 0,0.051 -0.008,0.102 -0.015,0.148 z M 676.73,496.031 c -1.531,0.711 -2.511,1.348 -2.789,1.86 1.903,3.808 33.313,13.379 96.243,13.379 62.007,0 93.421,-9.301 96.132,-13.211 -0.386,-0.559 -1.425,-1.227 -2.988,-1.977 -15.676,4.609 -51.469,7.84 -93.176,7.84 -41.906,0 -77.871,-3.262 -93.422,-7.891 z m 557.02,220.149 c -6.33,3.109 -14.24,5.8 -23.73,8.082 -23.39,5.609 -54.18,8.148 -86.65,7.109 -41.94,-1.332 -85.84,-8.769 -109.32,-22.43 -2.37,49.18 -7.1,166.11 -1.32,218.84 7.48,68.321 32.06,118.779 40.72,134.819 h 78.63 c 13.18,-7.92 56.19,-37.81 76.18,-100.53 19.27,-60.398 24.24,-192.699 25.49,-245.89 z m 18.66,-11.68 c -0.36,22.629 -1.66,76.262 -6.1,131.871 h 598.34 l -12.95,-77.519 z m 612.43,210.949 -0.14,6.723 c -0.2,1 -20.59,101.088 -38.31,184.888 -11.21,53.07 -88.65,119.62 -91.88,122.37 l -190.67,165.43 0.43,1356.84 c 0.01,0.19 0.01,0.37 0.01,0.54 0,2.39 -0.7,4.72 -2.08,6.97 -93.3,301.09 -110.89,356.54 -115.22,367.87 l 0.27,0.1 c -0.6,1.85 -1.8,3.42 -3.33,4.52 -5.6,5.02 -14.65,7.98 -24.58,7.98 -10.05,0 -19.22,-3.04 -24.79,-8.17 -1.54,-1.22 -2.73,-2.92 -3.29,-4.87 l 0.23,-0.06 c -4.65,-12.35 -22.82,-70.05 -115.02,-367.37 v -0.02 c -1.37,-2.24 -2.07,-4.58 -2.07,-6.95 l 0.11,-321.16 h -31.98 l 0.05,537.62 -0.12,9.4 c -3.29,276.18 -8.28,693.56 -281.304,905.56 l -5.789,4.48 -5.672,-4.62 C 644.992,3651.21 649.32,3189.39 652.027,2964.83 h -0.004 l -0.046,-533.75 h -32.575 l 0.098,320.62 c 0.012,0.19 0.02,0.37 0.02,0.54 0,2.39 -0.704,4.72 -2.075,6.97 -93.3,301.09 -110.898,356.54 -115.23,367.87 l 0.277,0.1 c -0.601,1.85 -1.804,3.42 -3.336,4.52 -5.597,5.02 -14.656,7.98 -24.578,7.98 -10.043,0 -19.215,-3.04 -24.797,-8.17 -1.543,-1.22 -2.718,-2.92 -3.285,-4.87 l 0.234,-0.06 c -4.648,-12.35 -22.828,-70.05 -115.023,-367.37 v -0.02 c -1.379,-2.24 -2.066,-4.58 -2.066,-6.95 l 0.433,-1357.59 -190.359,-165.17 c -3.297,-2.8 -80.7345,-69.35 -91.9533,-122.42 C 30.0508,1023.26 9.67188,923.172 9.46094,922.172 l -0.09766,-5.973 -0.08203,-0.09 V 836.371 L 26.6875,741.852 330.297,713.359 330.402,378.238 249.734,218.512 c -0.05,-0.102 -1,-4.102 -1,-4.203 0,-30.848 44.789,-52.848 104.871,-65.098 0,0 -38.382,-76.6094 -38.523,-77.2227 -0.144,-0.5977 -0.426,-1.9766 -0.426,-2.0899 0,-39.3671 82.395,-60.61715 159.922,-60.61715 76.024,0 156.527,20.48045 159.625,58.41015 0.031,0.1484 0.199,3.5 0.156,3.7695 -0.363,2.1289 -0.914,4.9688 -37.629,78.4101 58.508,12.367 101.774,34.117 101.774,64.438 0,0.273 -0.758,3.582 -0.859,3.812 -5.856,15.328 -45.407,94.551 -78.895,160.93 l 0.098,307.23 0.277,-0.019 v -56.641 c 0,-5.09 4.113,-9.199 9.199,-9.199 h 31.469 l -3.098,-15.192 c -0.73,-2.082 -1.125,-4.23 -1.125,-6.48 0,-7.328 4.145,-13.891 11.196,-19.02 l -10.723,-77.582 c 0,0 -0.473,-2.558 -0.473,-4.089 0,-20.2 72.039,-25.579 114.614,-25.579 42.57,0 114.613,5.379 114.613,25.579 0,0.461 -5.207,38.339 -5.207,38.339 6.219,-1.046 12.582,-1.898 18.93,-2.546 4.554,-68.391 9.21,-125.883 12.636,-147.93 8.703,-56.133 15.309,-67.563 25.5,-68.281 v -0.071 c 0.188,0 0.364,0.032 0.547,0.032 0.188,0 0.363,-0.032 0.551,-0.032 v 0.071 c 10.184,0.718 16.785,12.148 25.508,68.281 3.426,22.058 8.086,79.558 12.633,147.93 6.273,0.648 12.57,1.468 18.722,2.507 l -5.117,-37.039 0.223,0.129 c -0.086,-0.469 -0.313,-0.91 -0.313,-1.39 0,-20.2 72.04,-25.579 114.61,-25.579 42.58,0 114.61,5.379 114.61,25.579 0,0.453 -0.21,0.863 -0.29,1.3 l 0.2,-0.039 -11.1,80.41 c 7.05,5.122 11.19,11.692 11.19,19.02 0,0.52 -0.08,1.031 -0.12,1.531 v 0 h -0.01 c -0.08,1.149 -0.27,2.258 -0.55,3.34 l -2.89,17.211 h 27.85 c 5.08,0 9.2,4.117 9.2,9.207 v 55.941 l 2.96,0.27 0.09,-308.012 -80.67,-159.726 c -0.04,-0.102 -0.03,-0.211 -0.08,-0.313 -0.26,-0.551 -0.34,-1.179 -0.49,-1.777 -0.14,-0.621 -0.35,-1.211 -0.37,-1.813 0,-0.109 -0.06,-0.199 -0.06,-0.3 0,-30.848 44.8,-52.848 104.88,-65.098 l -37.96,-75.1602 c -0.05,-0.0899 -0.99,-4.0391 -0.99,-4.1524 0,-39.3671 82.39,-60.61715 159.92,-60.61715 76.03,0 156.53,20.48045 159.62,58.41015 0.04,0.1484 0.21,3.5 0.16,3.7695 -0.36,2.1289 -0.91,4.9688 -37.63,78.4101 58.51,12.367 101.78,34.117 101.78,64.438 0,0.273 -0.14,0.5 -0.16,0.781 -0.03,0.269 0.07,0.531 0.02,0.789 -0.05,0.301 -0.28,0.941 -0.49,1.531 -0.08,0.238 -0.13,0.481 -0.23,0.711 -5.86,15.328 -45.41,94.551 -78.9,160.93 l 0.11,334.281 303.9,28.52 17.41,94.519 v 78.981 l -0.09,0.097"
         style="fill:#262525;fill-opacity:1;fill-rule:nonzero;stroke:none"
         transform="matrix(0.13333333,0,0,-0.13333333,0,520)" />
      <path
         id="path17"
         d="m 1094.05,1125.48 c 0,0 0,114.71 0,270.88 -12.04,2.28 -28.62,4.47 -49.31,6.25 v -277.13 h 49.31"
         style="fill:#262525;fill-opacity:1;fill-rule:nonzero;stroke:none"
         transform="matrix(0.13333333,0,0,-0.13333333,0,520)" />
      <path
         id="path18"
         d="m 1142.24,1034.6 c 32.59,-155.401 -20.59,-292.209 -20.59,-292.209 68.12,2.14 98.39,-12.192 98.39,-12.192 -4.66,246.563 -44.82,284.841 -77.8,304.401"
         style="fill:#262525;fill-opacity:1;fill-rule:nonzero;stroke:none"
         transform="matrix(0.13333333,0,0,-0.13333333,0,520)" />
      <path
         id="path19"
         d="M 801.199,1039.78 C 816.672,878.34 746.52,745.711 746.52,745.711 c 69.949,-5.723 99.64,-17.93 99.64,-17.93 16.172,240.09 -16.012,284.079 -44.961,311.999"
         style="fill:#262525;fill-opacity:1;fill-rule:nonzero;stroke:none"
         transform="matrix(0.13333333,0,0,-0.13333333,0,520)" />
      <path
         id="path20"
         d="m 1033.68,1125.48 -0.75,278.06 c -7.96,0.58 -16.44,1.1 -25.4,1.54 l -0.76,-279.6 h 26.91"
         style="fill:#262525;fill-opacity:1;fill-rule:nonzero;stroke:none"
         transform="matrix(0.13333333,0,0,-0.13333333,0,520)" />
      <path
         id="path21"
         d="m 770.824,1394.35 -0.547,-268.87 h 17.934 l -0.559,272.19 c -6.679,-1.09 -12.304,-2.2 -16.828,-3.32"
         style="fill:#262525;fill-opacity:1;fill-rule:nonzero;stroke:none"
         transform="matrix(0.13333333,0,0,-0.13333333,0,520)" />
      <path
         id="path22"
         d="m 1454.81,864.359 c 0,0 -0.09,11.039 -4.95,24.539 h 96.31 142.11 71.05 c 23.69,1.543 47.37,2.731 71.06,4.602 -23.69,1.859 -47.37,3.039 -71.06,4.602 h -71.05 -142.11 -100.25 c -0.12,0.218 -0.2,0.437 -0.32,0.648 h -194.84 c 0,0 2.44,-17.199 3.64,-34.391 h 200.41"
         style="fill:#262525;fill-opacity:1;fill-rule:nonzero;stroke:none"
         transform="matrix(0.13333333,0,0,-0.13333333,0,520)" />
      <path
         id="path23"
         d="m 1680.04,815.27 h 69.61 c 23.21,2.332 46.41,4.101 69.62,6.91 -23.21,2.789 -46.41,4.582 -69.62,6.898 h -69.61 -139.24 -82.39 c -0.01,0.063 -0.01,0.121 -0.02,0.192 h -122.55 c -1.3,0.019 -2.6,0 -3.89,0.019 -10.73,0.461 -21.46,0.652 -32.2,-0.019 h -44.59 c 0,0 7.1,-75.379 7.1,-112.161 l 190.95,17.262 c 0,0 9.69,39.129 6.65,80.899 h 80.94 139.24"
         style="fill:#262525;fill-opacity:1;fill-rule:nonzero;stroke:none"
         transform="matrix(0.13333333,0,0,-0.13333333,0,520)" />
      <path
         id="path24"
         d="m 540.242,938.738 c 49.324,0 88.074,0 88.074,0 15.618,102.372 89.321,143.432 89.321,143.432 l 12.758,32.19 v 378.29 215.92 c 0,0 -35.188,-659.61 -190.153,-769.832"
         style="fill:#262525;fill-opacity:1;fill-rule:nonzero;stroke:none"
         transform="matrix(0.13333333,0,0,-0.13333333,0,520)" />
      <path
         id="path25"
         d="m 470.023,888.898 71.055,-0.148 c 7.395,-0.211 14.793,-0.25 22.192,-0.191 -0.45,-7.098 -4.704,-15.7 -12.098,-24.2 21.281,0 66.879,0 66.879,0 1.199,17.192 3.64,34.391 3.64,34.391 0,0 -45.785,0 -61.316,0 0.066,-0.078 0.098,-0.191 0.164,-0.262 -6.488,0.024 -12.973,-0.078 -19.461,-0.258 l -71.055,-0.128 H 327.914 185.801 114.742 c -23.6795,-1.563 -47.367,-2.743 -71.0545,-4.602 23.6875,-1.871 47.375,-3.059 71.0545,-4.602 h 71.059 142.113 142.109"
         style="fill:#262525;fill-opacity:1;fill-rule:nonzero;stroke:none"
         transform="matrix(0.13333333,0,0,-0.13333333,0,520)" />
      <path
         id="path26"
         d="m 617.281,829.27 h -42.957 c -10.73,0.671 -21.465,0.48 -32.191,0.019 -23.207,-0.418 -46.41,-0.117 -69.621,-0.211 H 333.277 194.047 124.426 c -23.203,-2.316 -46.4104,-4.109 -69.6135,-6.898 23.2031,-2.809 46.4105,-4.578 69.6135,-6.91 h 69.621 139.23 139.235 c 23.211,-0.079 46.414,0.222 69.621,-0.2 5.711,-0.25 11.433,-0.422 17.148,-0.441 19.086,-44.899 -14.82,-91.578 -14.82,-91.578 l 65.727,-5.942 c 0,36.782 7.093,112.161 7.093,112.161"
         style="fill:#262525;fill-opacity:1;fill-rule:nonzero;stroke:none"
         transform="matrix(0.13333333,0,0,-0.13333333,0,520)" />
      <path
         id="path27"
         d="m 1539.58,1036.38 6.12,-12.41 13.67,-1.98 -9.89,-9.65 2.33,-13.621 -12.23,6.441 -12.23,-6.441 2.34,13.621 -9.91,9.65 13.68,1.98 z m -32.13,-21.03 c 0,-17.741 14.38,-32.131 32.13,-32.131 17.75,0 32.14,14.39 32.14,32.131 0,17.76 -14.39,32.14 -32.14,32.14 -17.75,0 -32.13,-14.38 -32.13,-32.14"
         style="fill:#262525;fill-opacity:1;fill-rule:nonzero;stroke:none"
         transform="matrix(0.13333333,0,0,-0.13333333,0,520)" />
      <path
         id="path28"
         d="m 1589.84,985.582 h 110.2 c 3,0 5.48,2.457 5.48,5.469 v 48.979 c 0,3.02 -2.48,5.48 -5.48,5.48 h -54.68 -0.84 -54.68 c -3.02,0 -5.49,-2.46 -5.49,-5.48 v -48.979 c 0,-3.012 2.47,-5.469 5.49,-5.469"
         style="fill:#262525;fill-opacity:1;fill-rule:nonzero;stroke:none"
         transform="matrix(0.13333333,0,0,-0.13333333,0,520)" />
      <path
         id="path29"
         d="m 234.426,998.719 -12.231,6.441 -12.234,-6.441 2.336,13.621 -9.899,9.65 13.68,1.98 6.117,12.41 6.114,-12.41 13.679,-1.98 -9.894,-9.65 z m -12.231,48.771 c -17.75,0 -32.14,-14.38 -32.14,-32.14 0,-17.741 14.39,-32.131 32.14,-32.131 17.743,0 32.133,14.39 32.133,32.131 0,17.76 -14.39,32.14 -32.133,32.14"
         style="fill:#262525;fill-opacity:1;fill-rule:nonzero;stroke:none"
         transform="matrix(0.13333333,0,0,-0.13333333,0,520)" />
      <path
         id="path30"
         d="M 382.645,1045.51 H 272.453 c -3.012,0 -5.48,-2.46 -5.48,-5.48 v -48.979 c 0,-3.012 2.468,-5.469 5.48,-5.469 h 54.68 0.836 54.676 c 3.015,0 5.484,2.457 5.484,5.469 v 48.979 c 0,3.02 -2.469,5.48 -5.484,5.48"
         style="fill:#262525;fill-opacity:1;fill-rule:nonzero;stroke:none"
         transform="matrix(0.13333333,0,0,-0.13333333,0,520)" />
      <path
         id="path31"
         d="m 930.082,2416.63 h -26.184 c -0.718,0 -1.3,-1.18 -1.3,-2.62 v -23.37 c 0,-1.44 0.582,-2.62 1.3,-2.62 h 12.989 0.203 12.992 c 0.719,0 1.305,1.18 1.305,2.62 v 23.37 c 0,1.44 -0.586,2.62 -1.305,2.62"
         style="fill:#262525;fill-opacity:1;fill-rule:nonzero;stroke:none"
         transform="matrix(0.13333333,0,0,-0.13333333,0,520)" />
      <path
         id="path32"
         d="m 944.129,2388.02 h 26.18 c 0.714,0 1.3,1.18 1.3,2.62 v 23.37 c 0,1.44 -0.586,2.62 -1.3,2.62 h -12.989 -0.203 -12.988 c -0.719,0 -1.305,-1.18 -1.305,-2.62 v -23.37 c 0,-1.44 0.586,-2.62 1.305,-2.62"
         style="fill:#262525;fill-opacity:1;fill-rule:nonzero;stroke:none"
         transform="matrix(0.13333333,0,0,-0.13333333,0,520)" />
      <path
         id="path33"
         d="m 1066.07,1043.42 c 0,0 -59.23,-52.529 -39.63,-315.639 7.09,3.438 16.5,6.59 16.5,6.59 0,0 -21.83,217.41 23.13,309.049"
         style="fill:#262525;fill-opacity:1;fill-rule:nonzero;stroke:none"
         transform="matrix(0.13333333,0,0,-0.13333333,0,520)" />
      <path
         id="path34"
         d="m 733.113,1039.78 c -21.09,-15.15 -77.836,-51.581 -82.234,-306.62 7.344,2.879 19.351,6.199 19.351,6.199 0,0 -6.585,224.7 62.883,300.421"
         style="fill:#262525;fill-opacity:1;fill-rule:nonzero;stroke:none"
         transform="matrix(0.13333333,0,0,-0.13333333,0,520)" />
    </g>
  </g>
</svg>
